<svg width="17" height="19" viewBox="0 0 17 19" fill="none" xmlns="http://www.w3.org/2000/svg">
<path d="M0 0H3C3.28 0 3.53 0.11 3.71 0.29L5.79 2.38L6.59 1.59C7 1.2 7.5 1 8 1H14C14.5 1 15 1.2 15.41 1.59L16.41 2.59C16.8 3 17 3.5 17 4V17C17 17.5304 16.7893 18.0391 16.4142 18.4142C16.0391 18.7893 15.5304 19 15 19H5C4.46957 19 3.96086 18.7893 3.58579 18.4142C3.21071 18.0391 3 17.5304 3 17V6C3 5.5 3.2 5 3.59 4.59L4.38 3.79L2.59 2H0V0ZM8 3V5H14V3H8ZM8.41 9L6.41 7H5V8.41L7 10.41V13.59L5 15.59V17H6.41L8.41 15H11.59L13.59 17H15V15.59L13 13.59V10.41L15 8.41V7H13.59L11.59 9H8.41ZM9 11H11V13H9V11Z" fill="#0D6BCA"/>
</svg>
