<svg width="90" height="19" viewBox="0 0 90 19" fill="none" xmlns="http://www.w3.org/2000/svg">
<path fill-rule="evenodd" clip-rule="evenodd" d="M16 15C18.7615 15 21 12.7615 21 10C21 7.2385 18.7615 5 16 5C13.2385 5 11 7.2385 11 10C11 12.7615 13.2385 15 16 15ZM18.977 10.375H17.4525C17.3844 10.6389 17.2455 10.8792 17.051 11.07L17.813 12.39C18.1315 12.1487 18.3986 11.8461 18.5985 11.5001C18.7984 11.154 18.9271 10.7715 18.977 10.375ZM17.164 12.766L16.4015 11.446C16.1388 11.5189 15.8612 11.5189 15.5985 11.446L14.836 12.766C15.2045 12.921 15.6003 13.0006 16 13C16.4125 13 16.806 12.9165 17.164 12.766ZM14.187 12.3905L14.949 11.0705C14.7542 10.8796 14.6152 10.6391 14.547 10.375H13.023C13.0729 10.7715 13.2015 11.154 13.4014 11.5001C13.6013 11.8461 13.8684 12.1492 14.187 12.3905ZM18.977 9.625H17.4525C17.3844 9.36113 17.2455 9.12085 17.051 8.93L17.813 7.61C18.1315 7.85132 18.3986 8.15389 18.5985 8.49994C18.7984 8.84598 18.9271 9.2285 18.977 9.625ZM17.164 7.234C16.7955 7.079 16.3997 6.99943 16 7C15.5875 7 15.194 7.0835 14.836 7.234L15.5985 8.554C15.8612 8.48107 16.1388 8.48107 16.4015 8.554L17.164 7.234ZM14.949 8.93L14.187 7.61C13.8685 7.85132 13.6014 8.15389 13.4015 8.49994C13.2016 8.84598 13.0729 9.2285 13.023 9.625H14.5475C14.6165 9.3575 14.7575 9.1185 14.949 8.93Z" fill="#0D6BCA"/>
<path d="M24.9545 15.1136C24.3333 15.1136 23.7614 14.9508 23.2386 14.625C22.7197 14.2992 22.303 13.8049 21.9886 13.142C21.678 12.4792 21.5227 11.6439 21.5227 10.6364C21.5227 9.58333 21.6856 8.72727 22.0114 8.06818C22.3409 7.40909 22.7652 6.92614 23.2841 6.61932C23.8068 6.3125 24.3561 6.15909 24.9318 6.15909C25.3636 6.15909 25.7424 6.23485 26.0682 6.38636C26.3939 6.53409 26.6667 6.73295 26.8864 6.98295C27.1061 7.22917 27.2727 7.5 27.3864 7.79545H27.4318V3.36364H30.5682V15H27.4545V13.5682H27.3864C27.2652 13.8636 27.0909 14.1288 26.8636 14.3636C26.6402 14.5947 26.3674 14.7784 26.0455 14.9148C25.7273 15.0473 25.3636 15.1136 24.9545 15.1136ZM26.1136 12.7045C26.4015 12.7045 26.6477 12.6212 26.8523 12.4545C27.0606 12.2841 27.2197 12.0455 27.3295 11.7386C27.4432 11.428 27.5 11.0606 27.5 10.6364C27.5 10.2045 27.4432 9.83523 27.3295 9.52841C27.2197 9.2178 27.0606 8.98106 26.8523 8.81818C26.6477 8.65151 26.4015 8.56818 26.1136 8.56818C25.8258 8.56818 25.5795 8.65151 25.375 8.81818C25.1742 8.98106 25.0189 9.2178 24.9091 9.52841C24.803 9.83523 24.75 10.2045 24.75 10.6364C24.75 11.0682 24.803 11.4394 24.9091 11.75C25.0189 12.0568 25.1742 12.2936 25.375 12.4602C25.5795 12.6231 25.8258 12.7045 26.1136 12.7045ZM34.5398 15.1364C33.983 15.1364 33.4905 15.0455 33.0625 14.8636C32.6383 14.678 32.3049 14.3977 32.0625 14.0227C31.8201 13.6477 31.6989 13.1705 31.6989 12.5909C31.6989 12.1136 31.7803 11.7064 31.9432 11.3693C32.1061 11.0284 32.3333 10.75 32.625 10.5341C32.9167 10.3182 33.2557 10.1534 33.642 10.0398C34.0322 9.92614 34.4527 9.85227 34.9034 9.81818C35.392 9.7803 35.7841 9.73485 36.0795 9.68182C36.3788 9.625 36.5947 9.54735 36.7273 9.44886C36.8598 9.34659 36.9261 9.21212 36.9261 9.04545V9.02273C36.9261 8.79545 36.839 8.62121 36.6648 8.5C36.4905 8.37879 36.267 8.31818 35.9943 8.31818C35.6951 8.31818 35.4508 8.38447 35.2614 8.51705C35.0758 8.64583 34.964 8.8447 34.9261 9.11364H32.0398C32.0777 8.58333 32.2462 8.0947 32.5455 7.64773C32.8485 7.19697 33.2898 6.83712 33.8693 6.56818C34.4489 6.29545 35.1723 6.15909 36.0398 6.15909C36.6648 6.15909 37.2254 6.23295 37.7216 6.38068C38.2178 6.52462 38.6402 6.72727 38.9886 6.98864C39.3371 7.24621 39.6023 7.54924 39.7841 7.89773C39.9697 8.24242 40.0625 8.61742 40.0625 9.02273V15H37.1307V13.7727H37.0625C36.8883 14.0985 36.6761 14.3617 36.4261 14.5625C36.1799 14.7633 35.8977 14.9091 35.5795 15C35.2652 15.0909 34.9186 15.1364 34.5398 15.1364ZM35.5625 13.1591C35.8011 13.1591 36.0246 13.1098 36.233 13.0114C36.4451 12.9129 36.6174 12.7708 36.75 12.5852C36.8826 12.3996 36.9489 12.1742 36.9489 11.9091V11.1818C36.8655 11.2159 36.7765 11.2481 36.6818 11.2784C36.5909 11.3087 36.4924 11.3371 36.3864 11.3636C36.2841 11.3902 36.1742 11.4148 36.0568 11.4375C35.9432 11.4602 35.8239 11.4811 35.6989 11.5C35.4564 11.5379 35.2576 11.6004 35.1023 11.6875C34.9508 11.7708 34.8371 11.875 34.7614 12C34.6894 12.1212 34.6534 12.2576 34.6534 12.4091C34.6534 12.6515 34.7386 12.8371 34.9091 12.9659C35.0795 13.0947 35.2973 13.1591 35.5625 13.1591ZM49.5384 9.11364H46.652C46.6368 8.93561 46.5743 8.7822 46.4645 8.65341C46.3546 8.52462 46.2126 8.42614 46.0384 8.35795C45.8679 8.28598 45.6785 8.25 45.4702 8.25C45.2012 8.25 44.9702 8.29924 44.777 8.39773C44.5838 8.49621 44.4891 8.63636 44.4929 8.81818C44.4891 8.94697 44.544 9.06629 44.6577 9.17614C44.7751 9.28598 45.0005 9.37121 45.3338 9.43182L47.1065 9.75C48.0005 9.91288 48.6652 10.1875 49.1009 10.5739C49.5402 10.9564 49.7618 11.4697 49.7656 12.1136C49.7618 12.7348 49.5762 13.2746 49.2088 13.733C48.8452 14.1875 48.3471 14.5398 47.7145 14.7898C47.0857 15.036 46.3679 15.1591 45.5611 15.1591C44.2277 15.1591 43.1842 14.8864 42.4304 14.3409C41.6804 13.7955 41.2618 13.0758 41.1747 12.1818H44.2884C44.33 12.4583 44.4664 12.6723 44.6974 12.8239C44.9323 12.9716 45.2277 13.0455 45.5838 13.0455C45.8717 13.0455 46.1084 12.9962 46.294 12.8977C46.4834 12.7992 46.58 12.6591 46.5838 12.4773C46.58 12.3106 46.4967 12.178 46.3338 12.0795C46.1747 11.9811 45.9247 11.9015 45.5838 11.8409L44.0384 11.5682C43.1482 11.4129 42.4815 11.1174 42.0384 10.6818C41.5952 10.2462 41.3755 9.68561 41.3793 9C41.3755 8.39394 41.5346 7.88068 41.8565 7.46023C42.1823 7.03598 42.6463 6.71401 43.2486 6.49432C43.8546 6.27083 44.5724 6.15909 45.402 6.15909C46.6634 6.15909 47.6577 6.42045 48.3849 6.94318C49.116 7.46591 49.5005 8.18939 49.5384 9.11364ZM52.6719 15.1818C52.2325 15.1818 51.8556 15.0284 51.5412 14.7216C51.2306 14.411 51.0772 14.0341 51.081 13.5909C51.0772 13.1591 51.2306 12.7898 51.5412 12.483C51.8556 12.1761 52.2325 12.0227 52.6719 12.0227C53.0885 12.0227 53.456 12.1761 53.7741 12.483C54.0961 12.7898 54.259 13.1591 54.2628 13.5909C54.259 13.8864 54.1813 14.1553 54.0298 14.3977C53.8821 14.6364 53.6889 14.8277 53.4503 14.9716C53.2116 15.1117 52.9522 15.1818 52.6719 15.1818ZM60.1719 15.1591C59.2249 15.1591 58.4143 14.9716 57.7401 14.5966C57.0658 14.2178 56.5488 13.6913 56.1889 13.017C55.8291 12.339 55.6491 11.553 55.6491 10.6591C55.6491 9.76515 55.8291 8.98106 56.1889 8.30682C56.5488 7.62879 57.0658 7.10227 57.7401 6.72727C58.4143 6.34848 59.2249 6.15909 60.1719 6.15909C61.0279 6.15909 61.7685 6.31439 62.3935 6.625C63.0223 6.93182 63.509 7.36742 63.8537 7.93182C64.1984 8.49242 64.3726 9.15152 64.3764 9.90909H61.4673C61.4257 9.45076 61.2931 9.10227 61.0696 8.86364C60.8499 8.62121 60.5658 8.5 60.2173 8.5C59.9446 8.5 59.706 8.57955 59.5014 8.73864C59.2969 8.89394 59.1378 9.13068 59.0241 9.44886C58.9105 9.76326 58.8537 10.1591 58.8537 10.6364C58.8537 11.1136 58.9105 11.5114 59.0241 11.8295C59.1378 12.1439 59.2969 12.3807 59.5014 12.5398C59.706 12.6951 59.9446 12.7727 60.2173 12.7727C60.4484 12.7727 60.6529 12.7197 60.831 12.6136C61.009 12.5038 61.1529 12.3447 61.2628 12.1364C61.3764 11.9242 61.4446 11.6667 61.4673 11.3636H64.3764C64.3651 12.1326 64.1889 12.803 63.848 13.375C63.5071 13.9432 63.0241 14.3826 62.3991 14.6932C61.7779 15.0038 61.0355 15.1591 60.1719 15.1591ZM69.875 15.1591C68.928 15.1591 68.1174 14.9716 67.4432 14.5966C66.7689 14.2178 66.2519 13.6913 65.892 13.017C65.5322 12.339 65.3523 11.553 65.3523 10.6591C65.3523 9.76515 65.5322 8.98106 65.892 8.30682C66.2519 7.62879 66.7689 7.10227 67.4432 6.72727C68.1174 6.34848 68.928 6.15909 69.875 6.15909C70.822 6.15909 71.6326 6.34848 72.3068 6.72727C72.9811 7.10227 73.4981 7.62879 73.858 8.30682C74.2178 8.98106 74.3977 9.76515 74.3977 10.6591C74.3977 11.553 74.2178 12.339 73.858 13.017C73.4981 13.6913 72.9811 14.2178 72.3068 14.5966C71.6326 14.9716 70.822 15.1591 69.875 15.1591ZM69.8977 12.8409C70.1629 12.8409 70.392 12.7519 70.5852 12.5739C70.7784 12.3958 70.928 12.142 71.0341 11.8125C71.1402 11.483 71.1932 11.0909 71.1932 10.6364C71.1932 10.178 71.1402 9.78598 71.0341 9.46023C70.928 9.13068 70.7784 8.87689 70.5852 8.69886C70.392 8.52083 70.1629 8.43182 69.8977 8.43182C69.6174 8.43182 69.3769 8.52083 69.1761 8.69886C68.9754 8.87689 68.822 9.13068 68.7159 9.46023C68.6098 9.78598 68.5568 10.178 68.5568 10.6364C68.5568 11.0909 68.6098 11.483 68.7159 11.8125C68.822 12.142 68.9754 12.3958 69.1761 12.5739C69.3769 12.7519 69.6174 12.8409 69.8977 12.8409ZM75.6705 15V6.27273H78.6477V7.93182H78.7386C78.9205 7.38636 79.2311 6.95455 79.6705 6.63636C80.1098 6.31818 80.6326 6.15909 81.2386 6.15909C81.8523 6.15909 82.3807 6.32197 82.8239 6.64773C83.267 6.9697 83.5341 7.39773 83.625 7.93182H83.7159C83.8636 7.39773 84.178 6.9697 84.6591 6.64773C85.1402 6.32197 85.7045 6.15909 86.3523 6.15909C87.1894 6.15909 87.8674 6.42803 88.3864 6.96591C88.9091 7.50379 89.1705 8.2197 89.1705 9.11364V15H86.0341V9.90909C86.0341 9.52652 85.9375 9.22727 85.7443 9.01136C85.5511 8.79167 85.2917 8.68182 84.9659 8.68182C84.6439 8.68182 84.3883 8.79167 84.1989 9.01136C84.0133 9.22727 83.9205 9.52652 83.9205 9.90909V15H80.9205V9.90909C80.9205 9.52652 80.8239 9.22727 80.6307 9.01136C80.4375 8.79167 80.178 8.68182 79.8523 8.68182C79.6364 8.68182 79.4508 8.73106 79.2955 8.82955C79.1402 8.92803 79.0189 9.07008 78.9318 9.25568C78.8485 9.4375 78.8068 9.6553 78.8068 9.90909V15H75.6705Z" fill="#0D6BCA"/>
<path d="M0.75 15V3.36364H5.77273C6.63636 3.36364 7.39205 3.52083 8.03977 3.83523C8.6875 4.14962 9.19129 4.60227 9.55114 5.19318C9.91098 5.78409 10.0909 6.49242 10.0909 7.31818C10.0909 8.15151 9.9053 8.85417 9.53409 9.42614C9.16667 9.99811 8.64962 10.4299 7.98295 10.7216C7.32008 11.0133 6.54545 11.1591 5.65909 11.1591H2.65909V8.70455H5.02273C5.39394 8.70455 5.71023 8.65909 5.97159 8.56818C6.23674 8.47348 6.43939 8.32386 6.57955 8.11932C6.72349 7.91477 6.79545 7.64773 6.79545 7.31818C6.79545 6.98485 6.72349 6.71402 6.57955 6.50568C6.43939 6.29356 6.23674 6.13826 5.97159 6.03977C5.71023 5.9375 5.39394 5.88636 5.02273 5.88636H3.90909V15H0.75ZM7.56818 9.65909L10.4773 15H7.04545L4.20455 9.65909H7.56818Z" fill="#0D6BCA"/>
</svg>
