<svg xmlns="http://www.w3.org/2000/svg" xmlns:xlink="http://www.w3.org/1999/xlink" xmlns:lucid="lucid" width="1944" height="1053"><g transform="translate(738 -418)" lucid:page-tab-id="GOdUfmvH6LWl"><path d="M-1000 0h2500v1500h-2500z" fill="#f2f3f5"/><g class="lucid-layer" lucid:layer-id="HOlUaB2Eo4~H" display="block"><path d="M-725.83 438.84a6 6 0 0 1 6-6h348.64a6 6 0 0 1 6 6v8a14.48 14.48 0 0 1-4.24 10.24l-1.5 1.52a14.48 14.48 0 0 1-10.25 4.24h-338.63a6 6 0 0 1-6-6z" fill="#fff"/><path d="M-365.2 432.84v20l-10 10h-350.63" stroke="#3a414a" stroke-width="2" fill="none"/><path d="M-725.83 438.84a6 6 0 0 1 6-6H1182.2a6 6 0 0 1 6 6V1446.3a6 6 0 0 1-6 6H-719.84a6 6 0 0 1-6-6z" stroke="#3a414a" stroke-width="2" fill="none"/><use xlink:href="#a" transform="matrix(1,0,0,1,-717.8254491919679,432.8409676024587) translate(133.69384765625 19.7900390625)"/><path d="M294.83 496.9a6 6 0 0 1 6-6h824.8a6 6 0 0 1 6 6v902a6 6 0 0 1-6 6h-824.8a6 6 0 0 1-6-6z" stroke="#000" stroke-opacity="0" stroke-width="2" fill="#dfe3e8"/><path d="M292.3 496.9a6 6 0 0 1 6-6h348.64a6 6 0 0 1 6 6v8a14.48 14.48 0 0 1-4.25 10.25l-1.52 1.52a14.48 14.48 0 0 1-10.24 4.24H298.3a6 6 0 0 1-6-6z" fill="#fff"/><path d="M652.94 490.9v20l-10 10H292.3" stroke="#3a414a" stroke-width="2" fill="none"/><path d="M292.3 496.9a6 6 0 0 1 6-6h824.8a6 6 0 0 1 6 6v901.96a6 6 0 0 1-6 6H298.3a6 6 0 0 1-6-6z" stroke="#3a414a" stroke-width="2" fill="none"/><use xlink:href="#b" transform="matrix(1,0,0,1,300.3052588872866,490.90908010809216) translate(106.689453125 19.7900390625)"/><use xlink:href="#c" transform="matrix(1,0,0,1,300.3052588872866,490.90908010809216) translate(149.896484375 19.7900390625)"/></g><g class="lucid-layer" lucid:layer-id="wPlUgMZbG_05" display="block"><path d="M906.23 643.35h-11M861.23 643.35h-5" stroke="#3a414a" stroke-width="2" fill="none"/><path d="M881.23 657.35c-7.73 0-14-6.26-14-14 0-7.73 6.27-14 14-14s14 6.27 14 14c0 7.74-6.27 14-14 14z" stroke="#3a414a" stroke-width="2" fill="#fff"/><path d="M881.23 623.35c-11.05 0-20 8.96-20 20 0 11.05 8.95 20 20 20" stroke="#3a414a" stroke-width="2" fill="none"/><path d="M906.23 643.35a.8.8 0 0 1-.8.8h-9.4a.8.8 0 0 1-.8-.8.8.8 0 0 1 .8-.8h9.4a.8.8 0 0 1 .8.8z" fill="none"/><path d="M907.23 643.36h7.9" stroke="#3a414a" stroke-width="2" fill="none"/><path d="M907.26 644.36h-1.03v-2h1.03zM916.13 644.36h-1.03v-2h1.03z" stroke="#3a414a" stroke-width=".05" fill="#3a414a"/><path d="M518.23 643.36h337" stroke="#3a414a" stroke-width="2" fill="none"/><path d="M518.26 644.36h-1.03v-2h1.03zM856.23 644.36h-1.03v-2h1.03z" stroke="#3a414a" stroke-width=".05" fill="#3a414a"/><path d="M997.13 714.36v11M997.13 759.36v5" stroke="#3a414a" stroke-width="2" fill="none"/><path d="M1011.13 739.36c0 7.73-6.27 14-14 14s-14-6.27-14-14c0-7.74 6.27-14 14-14s14 6.26 14 14z" stroke="#3a414a" stroke-width="2" fill="#fff"/><path d="M977.13 739.36c0 11.04 8.95 20 20 20s20-8.96 20-20" stroke="#3a414a" stroke-width="2" fill="none"/><path d="M997.13 714.36a.8.8 0 0 1 .8.8v9.4a.8.8 0 0 1-.8.8.8.8 0 0 1-.8-.8v-9.4a.8.8 0 0 1 .8-.8z" fill="none"/><path d="M997.13 705.36v8" stroke="#3a414a" stroke-width="2" fill="none"/><path d="M998.13 705.38h-2v-1.02h2zM996.13 714.36v-1.03h2v1.02z" stroke="#3a414a" stroke-width=".05" fill="#3a414a"/><path d="M997.13 1006.2V765.36" stroke="#3a414a" stroke-width="2" fill="none"/><path d="M998.13 1007.2h-2v-1.03h2zM998.13 765.38h-2v-1.02h2z" stroke="#3a414a" stroke-width=".05" fill="#3a414a"/><path d="M716.23 923.37v11M716.23 968.37v5" stroke="#3a414a" stroke-width="2" fill="none"/><path d="M730.23 948.37c0 7.73-6.27 14-14 14s-14-6.27-14-14 6.27-14 14-14 14 6.27 14 14z" stroke="#3a414a" stroke-width="2" fill="#fff"/><path d="M696.23 948.37c0 11.04 8.95 20 20 20s20-8.96 20-20" stroke="#3a414a" stroke-width="2" fill="none"/><path d="M716.23 923.37a.8.8 0 0 1 .8.8v9.4a.8.8 0 0 1-.8.8.8.8 0 0 1-.8-.8v-9.4a.8.8 0 0 1 .8-.8z" fill="none"/><path d="M518.23 1053.92l69.27-.62 20.63-1.27 14.76-1.53 11.5-1.7 9.33-1.77 7.8-1.82 6.65-1.85 5.74-1.86 5.02-1.87 4.44-1.87 3.96-1.86 3.55-1.85 3.2-1.86 2.92-1.86 2.66-1.85 2.45-1.87 2.26-1.86 2.07-1.88 1.93-1.9 1.8-1.9 1.67-1.95 1.57-1.97 1.46-2 1.36-2.07 1.28-2.1 1.2-2.16 1.1-2.24 1.03-2.32.96-2.4.87-2.5.8-2.64.7-2.76.62-2.92.52-3.1.42-3.28.3-3.52.15-3.78.02-1" stroke="#3a414a" stroke-width="2" stroke-linejoin="round" fill="none"/><path d="M518.27 1054.92h-1.04v-2h1.02zM717.26 970.38l-.04 4.02-2-.02v-1.02h2v-2.98z" stroke="#3a414a" stroke-width=".05" fill="#3a414a"/><path d="M716.23 922.37v-8.4" stroke="#3a414a" stroke-width="2" fill="none"/><path d="M715.23 923.37v-1.03h2v1.03zM717.23 914h-2v-1.04h2z" stroke="#3a414a" stroke-width=".05" fill="#3a414a"/><path d="M716.25 974.37l.06 2.9.24 3.63.35 3.37.46 3.15.56 2.97.66 2.78.74 2.66.82 2.53.9 2.4.97 2.34 1.07 2.24 1.12 2.16 1.2 2.1 1.3 2.03 1.38 2 1.48 1.94 1.58 1.9 1.7 1.9 1.8 1.85 1.97 1.84 2.12 1.82 2.3 1.8 2.47 1.8 2.7 1.8 2.97 1.8 3.28 1.8 3.63 1.8 4.05 1.82 4.57 1.8 5.2 1.8 5.95 1.8 6.94 1.78 8.2 1.74 9.95 1.67 12.44 1.56 16.47 1.36 24.9 1 60.36.06" stroke="#3a414a" stroke-width="2" stroke-linejoin="round" fill="none"/><path d="M715.23 973.37h2l.02 1-2 .05-.08-4.03h.06zM916.13 1051.08v2h-1.03v-2z" stroke="#3a414a" stroke-width=".05" fill="#3a414a"/><path d="M-58.16 1190.37v-11M-58.16 1145.37v-5" stroke="#3a414a" stroke-width="2" fill="none"/><path d="M-72.16 1165.37c0-7.73 6.27-14 14-14s14 6.27 14 14-6.27 14-14 14-14-6.27-14-14z" stroke="#3a414a" stroke-width="2" fill="#fff"/><path d="M-38.16 1165.37c0-11.05-8.95-20-20-20s-20 8.95-20 20" stroke="#3a414a" stroke-width="2" fill="none"/><path d="M-58.16 1190.37a.8.8 0 0 1-.8-.8v-9.4a.8.8 0 0 1 .8-.8.8.8 0 0 1 .8.8v9.4a.8.8 0 0 1-.8.8z" fill="none"/><path d="M-58.16 1139.37V1011.2" stroke="#3a414a" stroke-width="2" fill="none"/><path d="M-59.16 1140.37v-1.03h2v1.03zM-57.16 1011.22h-2v-1.03h2z" stroke="#3a414a" stroke-width=".05" fill="#3a414a"/><path d="M-58.16 1191.37v31.82" stroke="#3a414a" stroke-width="2" fill="none"/><path d="M-57.16 1191.4h-2v-1.03h2zM-57.16 1224.2h-2v-1.03h2z" stroke="#3a414a" stroke-width=".05" fill="#3a414a"/><path d="M436.23 1163.2v11M436.23 1208.2v5" stroke="#3a414a" stroke-width="2" fill="none"/><path d="M450.23 1188.2c0 7.73-6.27 14-14 14s-14-6.27-14-14c0-7.74 6.27-14 14-14s14 6.26 14 14z" stroke="#3a414a" stroke-width="2" fill="#fff"/><path d="M416.23 1188.2c0 11.04 8.95 20 20 20s20-8.96 20-20" stroke="#3a414a" stroke-width="2" fill="none"/><path d="M436.23 1163.2a.8.8 0 0 1 .8.8v9.4a.8.8 0 0 1-.8.8.8.8 0 0 1-.8-.8v-9.4a.8.8 0 0 1 .8-.8z" fill="none"/><path d="M436.23 1130.2v32" stroke="#3a414a" stroke-width="2" fill="none"/><path d="M437.23 1130.22h-2v-1.03h2zM435.23 1163.2v-1.03h2v1.03z" stroke="#3a414a" stroke-width=".05" fill="#3a414a"/><path d="M436.23 1214.2v9" stroke="#3a414a" stroke-width="2" fill="none"/><path d="M437.23 1214.22h-2v-1.02h2zM437.23 1224.2h-2v-1.03h2z" stroke="#3a414a" stroke-width=".05" fill="#3a414a"/><path d="M239.3 1285.2h-11M194.3 1285.2h-5" stroke="#3a414a" stroke-width="2" fill="none"/><path d="M214.3 1299.2c-7.73 0-14-6.27-14-14 0-7.74 6.27-14 14-14 7.74 0 14 6.26 14 14 0 7.73-6.26 14-14 14z" stroke="#3a414a" stroke-width="2" fill="#fff"/><path d="M214.3 1265.2c-11.04 0-20 8.95-20 20 0 11.04 8.96 20 20 20" stroke="#3a414a" stroke-width="2" fill="none"/><path d="M239.3 1285.2a.8.8 0 0 1-.8.8h-9.4a.8.8 0 0 1-.8-.8.8.8 0 0 1 .8-.8h9.4a.8.8 0 0 1 .8.8z" fill="none"/><path d="M240.3 1285.2h113.93" stroke="#3a414a" stroke-width="2" fill="none"/><path d="M240.33 1286.2h-1.03v-2h1.03zM355.23 1286.2h-1.03v-2h1.03z" stroke="#3a414a" stroke-width=".05" fill="#3a414a"/><path d="M188.3 1285.2H23.84" stroke="#3a414a" stroke-width="2" fill="none"/><path d="M189.3 1286.2h3-4.02v-2h1.03zM23.87 1286.2h-1.03v-2h1.03z" stroke="#3a414a" stroke-width=".05" fill="#3a414a"/><path d="M356.23 589.36a6 6 0 0 1 6-6h148a6 6 0 0 1 6 6v108a6 6 0 0 1-6 6h-148a6 6 0 0 1-6-6z" stroke="#3a414a" stroke-width="2" fill="#fff"/><path d="M506.23 593.36h-15v20h15z" stroke="#3a414a" fill="#fff"/><path d="M496.23 596.7h-10V600h10zm0 10h-10V610h10z" stroke="#3a414a" fill="#fff"/><path d="M498.23 703.36a18 18 0 0 1 18-18 18 18 0 0 1 18 18 18 18 0 0 1-18 18 18 18 0 0 1-18-18z" stroke="#000" stroke-opacity="0" fill="#6f7681"/><path d="M520.23 709.55l.1-10.2-3.2 10.2h-1.85l-3.15-10.2.1 10.2h-2.3v-12.4h3.5l2.8 9.25 2.85-9.25h3.45v12.4h-2.3" fill="#fff"/><use xlink:href="#d" transform="matrix(1,0,0,1,356.2300917546545,583.3547557251768) translate(26.99881510416666 35.45030381944444)"/><use xlink:href="#e" transform="matrix(1,0,0,1,356.2300917546545,583.3547557251768) translate(45.668519965277774 35.45030381944444)"/><use xlink:href="#f" transform="matrix(1,0,0,1,356.2300917546545,583.3547557251768) translate(93.67633246527778 35.45030381944444)"/><use xlink:href="#g" transform="matrix(1,0,0,1,356.2300917546545,583.3547557251768) translate(31.99718749999999 63.73263888888889)"/><use xlink:href="#h" transform="matrix(1,0,0,1,356.2300917546545,583.3547557251768) translate(96.00760416666667 63.73263888888889)"/><use xlink:href="#i" transform="matrix(1,0,0,1,356.2300917546545,583.3547557251768) translate(37.33138888888888 93.94097222222223)"/><path d="M917.13 1014.2a6 6 0 0 1 6-6h148a6 6 0 0 1 6 6v108a6 6 0 0 1-6 6h-148a6 6 0 0 1-6-6z" stroke="#3a414a" stroke-width="2" fill="#fff"/><path d="M1067.13 1018.2h-15v20h15z" stroke="#3a414a" fill="#fff"/><path d="M1057.13 1021.53h-10v3.33h10zm0 10h-10v3.33h10z" stroke="#3a414a" fill="#fff"/><path d="M1059.13 1128.2a18 18 0 0 1 18-18 18 18 0 0 1 18 18 18 18 0 0 1-18 18 18 18 0 0 1-18-18z" stroke="#000" stroke-opacity="0" fill="#6f7681"/><path d="M1081.13 1134.4l.1-10.2-3.2 10.2h-1.85l-3.15-10.2.1 10.2h-2.3V1122h3.5l2.8 9.24 2.85-9.25h3.45v12.4h-2.3" fill="#fff"/><use xlink:href="#j" transform="matrix(1,0,0,1,917.1296136531037,1008.1935848268415) translate(26.99881510416666 35.45030381944444)"/><use xlink:href="#e" transform="matrix(1,0,0,1,917.1296136531037,1008.1935848268415) translate(45.668519965277774 35.45030381944444)"/><use xlink:href="#k" transform="matrix(1,0,0,1,917.1296136531037,1008.1935848268415) translate(93.67633246527778 35.45030381944444)"/><use xlink:href="#l" transform="matrix(1,0,0,1,917.1296136531037,1008.1935848268415) translate(10.660381944444461 63.73263888888889)"/><use xlink:href="#m" transform="matrix(1,0,0,1,917.1296136531037,1008.1935848268415) translate(26.662986111111103 93.94097222222223)"/><use xlink:href="#n" transform="matrix(1,0,0,1,917.1296136531037,1008.1935848268415) translate(69.33659722222222 93.94097222222223)"/><path d="M356.23 1014.2a6 6 0 0 1 6-6h148a6 6 0 0 1 6 6v108a6 6 0 0 1-6 6h-148a6 6 0 0 1-6-6z" stroke="#3a414a" stroke-width="2" fill="#fff"/><path d="M506.23 1018.2h-15v20h15z" stroke="#3a414a" fill="#fff"/><path d="M496.23 1021.53h-10v3.33h10zm0 10h-10v3.33h10z" stroke="#3a414a" fill="#fff"/><path d="M498.23 1128.2a18 18 0 0 1 18-18 18 18 0 0 1 18 18 18 18 0 0 1-18 18 18 18 0 0 1-18-18z" stroke="#000" stroke-opacity="0" fill="#6f7681"/><path d="M520.23 1134.4l.1-10.2-3.2 10.2h-1.85l-3.15-10.2.1 10.2h-2.3V1122h3.5l2.8 9.24 2.85-9.25h3.45v12.4h-2.3" fill="#fff"/><use xlink:href="#j" transform="matrix(1,0,0,1,356.2300917546545,1008.1935848268415) translate(26.99881510416666 35.45030381944444)"/><use xlink:href="#e" transform="matrix(1,0,0,1,356.2300917546545,1008.1935848268415) translate(45.668519965277774 35.45030381944444)"/><use xlink:href="#k" transform="matrix(1,0,0,1,356.2300917546545,1008.1935848268415) translate(93.67633246527778 35.45030381944444)"/><use xlink:href="#o" transform="matrix(1,0,0,1,356.2300917546545,1008.1935848268415) translate(15.994583333333333 63.73263888888889)"/><use xlink:href="#p" transform="matrix(1,0,0,1,356.2300917546545,1008.1935848268415) translate(58.668194444444445 63.73263888888889)"/><use xlink:href="#q" transform="matrix(1,0,0,1,356.2300917546545,1008.1935848268415) translate(31.997187499999995 93.94097222222223)"/><path d="M917.13 589.36a6 6 0 0 1 6-6h148a6 6 0 0 1 6 6v108a6 6 0 0 1-6 6h-148a6 6 0 0 1-6-6z" stroke="#3a414a" stroke-width="2" fill="#fff"/><path d="M1067.13 593.36h-15v20h15z" stroke="#3a414a" fill="#fff"/><path d="M1057.13 596.7h-10V600h10zm0 10h-10V610h10z" stroke="#3a414a" fill="#fff"/><path d="M891.9 583.36a18 18 0 0 1 18-18h14.46a18 18 0 0 1 18 18 18 18 0 0 1-18 18H909.9a18 18 0 0 1-18-18z" stroke="#000" stroke-opacity="0" fill="#e81313"/><path d="M904.72 579.8c.05-1.3-3.17-1.53-3.22-.17.68 2.08 5.35.3 5.4 3.9.04 3.75-7.43 3.43-7.8.4l1.95-.32c.18.87.9 1.14 2 1.14 1.5.37 2.58-1.35 1.08-1.85-1.95-.65-4.62-.5-4.7-3-.1-3.63 6.97-3.35 7.28-.32m6.44 6.93c-.67 1.96-1.94 3.45-4.7 2.82v-1.6c1.58.38 2.4-.5 2.67-1.75l-3.4-8.52h2.37l2.17 6.7c.54-2.35 1.27-4.52 2-6.7h2.3m6.2-.18c3.95-.04 2.63 5.12 2.86 8.8h-2.27c-.3-2.6 1.05-7.12-1.54-7.12-2.68 0-1.54 4.4-1.77 7.1h-2.27l-.04-8.6h2.13c.1.55-.05 1.27.13 1.72.55-1.17 1.27-1.85 2.76-1.9m12.4 5.93c-.3 1.9-1.7 3.04-3.88 3.04-2.67 0-3.8-1.72-4.08-4.44-.54-4.98 6.98-6.2 7.88-1.63l-2.2.1c-.1-.87-.7-1.46-1.6-1.46-1.36 0-1.6 1.28-1.72 2.9-.27 3.36 2.94 3.95 3.35 1.37" fill="#fff"/><use xlink:href="#j" transform="matrix(1,0,0,1,917.1296136531041,583.354755725177) translate(26.99881510416666 35.45030381944444)"/><use xlink:href="#e" transform="matrix(1,0,0,1,917.1296136531041,583.354755725177) translate(45.668519965277774 35.45030381944444)"/><use xlink:href="#k" transform="matrix(1,0,0,1,917.1296136531041,583.354755725177) translate(93.67633246527778 35.45030381944444)"/><use xlink:href="#o" transform="matrix(1,0,0,1,917.1296136531041,583.354755725177) translate(31.997187499999995 63.73263888888889)"/><use xlink:href="#r" transform="matrix(1,0,0,1,917.1296136531041,583.354755725177) translate(74.67079861111111 63.73263888888889)"/><use xlink:href="#s" transform="matrix(1,0,0,1,917.1296136531041,583.354755725177) translate(53.33399305555555 93.94097222222223)"/><path d="M636.23 797.96a6 6 0 0 1 6-6h148a6 6 0 0 1 6 6v108a6 6 0 0 1-6 6h-148a6 6 0 0 1-6-6z" stroke="#3a414a" stroke-width="2" fill="#fff"/><path d="M786.23 801.96h-15v20h15z" stroke="#3a414a" fill="#fff"/><path d="M776.23 805.3h-10v3.33h10zm0 10h-10v3.33h10z" stroke="#3a414a" fill="#fff"/><path d="M611 791.96a18 18 0 0 1 18-18h14.46a18 18 0 0 1 18 18 18 18 0 0 1-18 18H629a18 18 0 0 1-18-18z" stroke="#000" stroke-opacity="0" fill="#e81313"/><path d="M623.82 788.4c.05-1.3-3.17-1.53-3.22-.17.68 2.1 5.35.32 5.4 3.9.04 3.76-7.43 3.44-7.8.4l1.95-.3c.18.85.9 1.12 2 1.12 1.5.36 2.58-1.36 1.08-1.86-1.95-.64-4.62-.5-4.7-3-.1-3.62 6.97-3.35 7.28-.3m6.45 6.92c-.68 1.94-1.95 3.44-4.72 2.8v-1.58c1.6.36 2.4-.5 2.68-1.77l-3.4-8.5h2.37l2.17 6.7c.54-2.36 1.27-4.54 2-6.7h2.3m6.2-.2c3.95-.04 2.63 5.13 2.86 8.8h-2.27c-.3-2.6 1.05-7.12-1.53-7.12-2.68 0-1.54 4.4-1.77 7.1h-2.27l-.04-8.6h2.13c.1.55-.05 1.28.13 1.73.55-1.18 1.27-1.86 2.77-1.9m12.4 5.93c-.3 1.9-1.72 3.05-3.9 3.05-2.66 0-3.8-1.73-4.07-4.44-.54-4.98 6.98-6.2 7.88-1.62l-2.2.1c-.1-.87-.7-1.46-1.6-1.46-1.36 0-1.6 1.27-1.72 2.9-.27 3.35 2.94 3.94 3.35 1.35" fill="#fff"/><use xlink:href="#d" transform="matrix(1,0,0,1,636.230091754655,791.9612506651492) translate(26.99881510416666 35.45030381944444)"/><use xlink:href="#e" transform="matrix(1,0,0,1,636.230091754655,791.9612506651492) translate(45.668519965277774 35.45030381944444)"/><use xlink:href="#f" transform="matrix(1,0,0,1,636.230091754655,791.9612506651492) translate(93.67633246527778 35.45030381944444)"/><use xlink:href="#o" transform="matrix(1,0,0,1,636.230091754655,791.9612506651492) translate(37.33138888888889 63.73263888888889)"/><use xlink:href="#t" transform="matrix(1,0,0,1,636.230091754655,791.9612506651492) translate(80.005 63.73263888888889)"/><use xlink:href="#u" transform="matrix(1,0,0,1,636.230091754655,791.9612506651492) translate(53.33399305555555 93.94097222222223)"/><path d="M636.23 1231.2a6 6 0 0 1 6-6h148a6 6 0 0 1 6 6v108a6 6 0 0 1-6 6h-148a6 6 0 0 1-6-6z" stroke="#3a414a" stroke-width="2" fill="#fff"/><path d="M786.23 1235.2h-15v20h15z" stroke="#3a414a" fill="#fff"/><path d="M776.23 1238.53h-10v3.33h10zm0 10h-10v3.33h10z" stroke="#3a414a" fill="#fff"/><path d="M611 1225.2a18 18 0 0 1 18-18h14.46a18 18 0 0 1 18 18 18 18 0 0 1-18 18H629a18 18 0 0 1-18-18z" stroke="#000" stroke-opacity="0" fill="#e81313"/><path d="M623.82 1221.65c.05-1.32-3.17-1.54-3.22-.2.68 2.1 5.35.33 5.4 3.9.04 3.77-7.43 3.45-7.8.42l1.95-.32c.18.86.9 1.13 2 1.13 1.5.37 2.58-1.36 1.08-1.85-1.95-.64-4.62-.5-4.7-3-.1-3.62 6.97-3.34 7.28-.3m6.45 6.92c-.68 1.95-1.95 3.44-4.72 2.8v-1.58c1.6.37 2.4-.5 2.68-1.76l-3.4-8.5h2.37l2.17 6.7c.54-2.36 1.27-4.54 2-6.7h2.3m6.2-.2c3.95-.03 2.63 5.13 2.86 8.8h-2.27c-.3-2.6 1.05-7.1-1.53-7.1-2.68 0-1.54 4.38-1.77 7.1h-2.27l-.04-8.6h2.13c.1.54-.05 1.26.13 1.7.55-1.16 1.27-1.84 2.77-1.9m12.4 5.94c-.3 1.9-1.72 3.04-3.9 3.04-2.66 0-3.8-1.72-4.07-4.44-.54-4.98 6.98-6.2 7.88-1.63l-2.2.1c-.1-.86-.7-1.45-1.6-1.45-1.36 0-1.6 1.27-1.72 2.9-.27 3.35 2.94 3.94 3.35 1.36" fill="#fff"/><use xlink:href="#j" transform="matrix(1,0,0,1,636.230091754654,1225.1935848268415) translate(45.99946614583333 50.45030381944444)"/><use xlink:href="#v" transform="matrix(1,0,0,1,636.230091754654,1225.1935848268415) translate(64.66917100694445 50.45030381944444)"/><use xlink:href="#k" transform="matrix(1,0,0,1,636.230091754654,1225.1935848268415) translate(104.67568142361111 50.45030381944444)"/><use xlink:href="#w" transform="matrix(1,0,0,1,636.230091754654,1225.1935848268415) translate(10.660381944444461 78.7326388888889)"/><path d="M-675.5 811.1a6 6 0 0 1 6-6h148a6 6 0 0 1 6 6v108a6 6 0 0 1-6 6h-148a6 6 0 0 1-6-6z" stroke="#3a414a" stroke-width="2" fill="#fff"/><path d="M-525.5 815.1h-15v20h15z" stroke="#3a414a" fill="#fff"/><path d="M-535.5 818.43h-10v3.34h10zm0 10h-10v3.34h10z" stroke="#3a414a" fill="#fff"/><use xlink:href="#j" transform="matrix(1,0,0,1,-675.4931970929401,805.10030543324) translate(25.996210937499995 50.45030381944444)"/><use xlink:href="#x" transform="matrix(1,0,0,1,-675.4931970929401,805.10030543324) translate(44.66591579861111 50.45030381944444)"/><use xlink:href="#k" transform="matrix(1,0,0,1,-675.4931970929401,805.10030543324) translate(124.67893663194445 50.45030381944444)"/><use xlink:href="#o" transform="matrix(1,0,0,1,-675.4931970929401,805.10030543324) translate(10.660381944444447 78.7326388888889)"/><use xlink:href="#y" transform="matrix(1,0,0,1,-675.4931970929401,805.10030543324) translate(53.33399305555556 78.7326388888889)"/><path d="M-138.16 895.2a6 6 0 0 1 6-6h148a6 6 0 0 1 6 6v108a6 6 0 0 1-6 6h-148a6 6 0 0 1-6-6z" stroke="#3a414a" stroke-width="2" fill="#fff"/><path d="M11.84 899.2h-15v20h15z" stroke="#3a414a" fill="#fff"/><path d="M1.84 902.53h-10v3.33h10zm0 10h-10v3.33h10z" stroke="#3a414a" fill="#fff"/><use xlink:href="#d" transform="matrix(1,0,0,1,-138.15986375960676,889.193076324239) translate(26.99881510416666 35.45030381944444)"/><use xlink:href="#e" transform="matrix(1,0,0,1,-138.15986375960676,889.193076324239) translate(45.668519965277774 35.45030381944444)"/><use xlink:href="#f" transform="matrix(1,0,0,1,-138.15986375960676,889.193076324239) translate(93.67633246527778 35.45030381944444)"/><use xlink:href="#z" transform="matrix(1,0,0,1,-138.15986375960676,889.193076324239) translate(15.994583333333319 63.73263888888889)"/><use xlink:href="#A" transform="matrix(1,0,0,1,-138.15986375960676,889.193076324239) translate(90.67340277777778 63.73263888888889)"/><use xlink:href="#B" transform="matrix(1,0,0,1,-138.15986375960676,889.193076324239) translate(47.99979166666666 93.94097222222223)"/><path d="M-138.16 1231.2a6 6 0 0 1 6-6h148a6 6 0 0 1 6 6v108a6 6 0 0 1-6 6h-148a6 6 0 0 1-6-6z" stroke="#3a414a" stroke-width="2" fill="#fff"/><path d="M11.84 1235.2h-15v20h15z" stroke="#3a414a" fill="#fff"/><path d="M1.84 1238.53h-10v3.33h10zm0 10h-10v3.33h10z" stroke="#3a414a" fill="#fff"/><path d="M3.84 1345.2a18 18 0 0 1 18-18 18 18 0 0 1 18 18 18 18 0 0 1-18 18 18 18 0 0 1-18-18z" stroke="#000" stroke-opacity="0" fill="#6f7681"/><path d="M25.84 1351.4l.1-10.2-3.2 10.2H20.9l-3.16-10.2.1 10.2h-2.3V1339h3.5l2.8 9.24 2.85-9.25h3.44v12.4h-2.3" fill="#fff"/><path d="M-168.26 1225.2a18 18 0 0 1 18-18h24.2a18 18 0 0 1 18 18 18 18 0 0 1-18 18h-24.2a18 18 0 0 1-18-18z" stroke="#000" stroke-opacity="0" fill="#4297ff"/><path d="M-155.46 1226.37c-.73.87-1.38 1.8-2.94 1.75-1.7-.05-2.66-.92-2.66-2.67-.04-2.75 2.52-2.9 5.32-2.8.05-1.2-.13-2.15-1.28-2.15-.83.04-1.2.4-1.3 1.24l-2.37-.1c.33-1.74 1.66-2.66 3.77-2.6 2.1.04 3.4 1 3.44 3.1l.06 3.77c-.05.66.55.84 1.15.7v1.24c-1.37.37-3.25.23-3.16-1.47zm-2.2.14c1.33 0 1.97-1.1 1.92-2.6-1.47 0-3.02-.14-2.98 1.37 0 .78.37 1.24 1.06 1.24m11.56-4.9c.05-1.33-3.2-1.56-3.26-.18.7 2.1 5.42.32 5.46 3.94.05 3.8-7.52 3.5-7.9.42l1.98-.33c.2.88.92 1.15 2.02 1.15 1.52.37 2.62-1.38 1.1-1.88-1.97-.64-4.68-.5-4.77-3.03-.1-3.68 7.07-3.4 7.4-.33m6.5 7.02c-.68 1.96-1.97 3.48-4.77 2.84v-1.6c1.6.36 2.44-.5 2.7-1.8l-3.43-8.63h2.4l2.2 6.8c.54-2.38 1.27-4.58 2-6.8h2.35m6.3-.17c3.98-.05 2.65 5.18 2.88 8.9h-2.3c-.32-2.6 1.06-7.2-1.56-7.2-2.7 0-1.56 4.45-1.8 7.2h-2.28l-.05-8.72h2.16c.1.56-.05 1.3.14 1.76.55-1.2 1.28-1.88 2.8-1.93m12.57 6c-.32 1.94-1.74 3.1-3.95 3.1-2.7 0-3.86-1.76-4.14-4.5-.55-5.06 7.07-6.3 8-1.66l-2.26.1c-.1-.88-.7-1.48-1.6-1.48-1.38 0-1.6 1.28-1.75 2.93-.28 3.4 2.98 4 3.4 1.37" fill="#fff"/><use xlink:href="#j" transform="matrix(1,0,0,1,-138.15986375960676,1225.1935848268415) translate(26.99881510416666 35.45030381944444)"/><use xlink:href="#e" transform="matrix(1,0,0,1,-138.15986375960676,1225.1935848268415) translate(45.668519965277774 35.45030381944444)"/><use xlink:href="#k" transform="matrix(1,0,0,1,-138.15986375960676,1225.1935848268415) translate(93.67633246527778 35.45030381944444)"/><use xlink:href="#C" transform="matrix(1,0,0,1,-138.15986375960676,1225.1935848268415) translate(58.668194444444445 63.73263888888889)"/><use xlink:href="#D" transform="matrix(1,0,0,1,-138.15986375960676,1225.1935848268415) translate(26.66298611111111 93.94097222222223)"/><path d="M356.23 1231.2a6 6 0 0 1 6-6h148a6 6 0 0 1 6 6v108a6 6 0 0 1-6 6h-148a6 6 0 0 1-6-6z" stroke="#3a414a" stroke-width="2" fill="#fff"/><path d="M506.23 1235.2h-15v20h15z" stroke="#3a414a" fill="#fff"/><path d="M496.23 1238.53h-10v3.33h10zm0 10h-10v3.33h10z" stroke="#3a414a" fill="#fff"/><path d="M331 1225.2a18 18 0 0 1 18-18h14.45a18 18 0 0 1 18 18 18 18 0 0 1-18 18H349a18 18 0 0 1-18-18z" stroke="#000" stroke-opacity="0" fill="#e81313"/><path d="M343.82 1221.65c.05-1.32-3.17-1.54-3.2-.2.67 2.1 5.33.33 5.38 3.9.04 3.77-7.43 3.45-7.8.42l1.95-.32c.18.86.9 1.13 2 1.13 1.5.37 2.58-1.36 1.08-1.85-1.94-.64-4.62-.5-4.7-3-.1-3.62 6.97-3.34 7.28-.3m6.44 6.92c-.68 1.95-1.94 3.44-4.7 2.8v-1.58c1.58.37 2.4-.5 2.67-1.76l-3.4-8.5h2.37l2.17 6.7c.54-2.36 1.27-4.54 2-6.7h2.3m6.2-.2c3.95-.03 2.63 5.13 2.86 8.8h-2.26c-.32-2.6 1.04-7.1-1.55-7.1-2.68 0-1.54 4.38-1.77 7.1h-2.27l-.04-8.6h2.13c.1.54-.05 1.26.13 1.7.55-1.16 1.27-1.84 2.77-1.9m12.4 5.94c-.3 1.9-1.72 3.04-3.9 3.04-2.66 0-3.8-1.72-4.07-4.44-.54-4.98 6.98-6.2 7.9-1.63l-2.24.1c-.08-.86-.67-1.45-1.58-1.45-1.36 0-1.6 1.27-1.72 2.9-.27 3.35 2.94 3.94 3.35 1.36" fill="#fff"/><use xlink:href="#j" transform="matrix(1,0,0,1,356.23009175465495,1225.1935848268415) translate(41.99881510416666 50.45030381944444)"/><use xlink:href="#e" transform="matrix(1,0,0,1,356.23009175465495,1225.1935848268415) translate(60.668519965277774 50.45030381944444)"/><use xlink:href="#k" transform="matrix(1,0,0,1,356.23009175465495,1225.1935848268415) translate(108.67633246527778 50.45030381944444)"/><use xlink:href="#E" transform="matrix(1,0,0,1,356.23009175465495,1225.1935848268415) translate(5.326180555555547 78.7326388888889)"/><use xlink:href="#F" transform="matrix(1,0,0,1,356.23009175465495,1225.1935848268415) translate(101.34180555555555 78.7326388888889)"/><path d="M-270.4 1333.2c0 6.62-26.85 12-60 12-33.13 0-60-5.38-60-12v-96c0-6.63 26.87-12 60-12 33.15 0 60 5.37 60 12z" stroke="#000" fill="#fff"/><path d="M-270.4 1237.2c0 6.62-26.85 12-60 12-33.13 0-60-5.38-60-12" stroke="#000" fill="none"/><use xlink:href="#G" transform="matrix(1,0,0,1,-385.3899684511689,1254.1935848268415) translate(32.77777777777778 39.94444444444444)"/><use xlink:href="#H" transform="matrix(1,0,0,1,-385.3899684511689,1254.1935848268415) translate(10.55555555555555 62.166666666666664)"/><path d="M-140.16 1285.2h-3.97m-7.95 0h-7.94m-7.95 0h-7.94m-7.96 0h-7.94m-7.95 0h-7.94m-7.94 0h-7.94m-7.95 0h-7.94m-7.95 0h-3.97" stroke="#3a414a" stroke-width="2" fill="none"/><path d="M-139.16 1286.2h-1.03v-2h1.04z" stroke="#3a414a" stroke-width=".05" fill="#3a414a"/><path d="M-266.65 1285.2l14.26-4.64v9.27z" stroke="#3a414a" stroke-width="2" fill="#3a414a"/><g><use xlink:href="#I" transform="matrix(1,0,0,1,-218.59859590376578,1263.4158070490637) translate(0 14.755555555555555)"/></g><path d="M-675.5 985.62a6 6 0 0 1 6-6h148a6 6 0 0 1 6 6v108a6 6 0 0 1-6 6h-148a6 6 0 0 1-6-6z" stroke="#3a414a" stroke-width="2" fill="#fff"/><path d="M-525.5 989.62h-15v20h15z" stroke="#3a414a" fill="#fff"/><path d="M-535.5 992.96h-10v3.33h10zm0 10h-10v3.33h10z" stroke="#3a414a" fill="#fff"/><g><use xlink:href="#j" transform="matrix(1,0,0,1,-675.4931970929401,979.6227775922787) translate(25.996210937499995 50.45030381944444)"/><use xlink:href="#x" transform="matrix(1,0,0,1,-675.4931970929401,979.6227775922787) translate(44.66591579861111 50.45030381944444)"/><use xlink:href="#k" transform="matrix(1,0,0,1,-675.4931970929401,979.6227775922787) translate(124.67893663194445 50.45030381944444)"/><use xlink:href="#o" transform="matrix(1,0,0,1,-675.4931970929401,979.6227775922787) translate(26.662986111111103 78.7326388888889)"/><use xlink:href="#J" transform="matrix(1,0,0,1,-675.4931970929401,979.6227775922787) translate(69.33659722222222 78.7326388888889)"/></g><g><path d="M152.4 1306.4H92.84v5.82l-13-10.9 13-10.93v5.82h59.54z" stroke="#6f7681" fill="#4c535d"/></g><path d="M60.1 1258.16h112.06v32.23H60.1z" fill="#fff" fill-opacity="0"/><g><use xlink:href="#K" transform="matrix(1,0,0,1,60.08777273579415,1258.1628992852047) translate(2.613333333333344 20.676666666666662)"/><use xlink:href="#L" transform="matrix(1,0,0,1,60.08777273579415,1258.1628992852047) translate(35.21333333333333 20.676666666666662)"/><use xlink:href="#M" transform="matrix(1,0,0,1,60.08777273579415,1258.1628992852047) translate(50.97333333333333 20.676666666666662)"/></g><path d="M116.76 656.5h59.55v-5.83l13 10.92-13 10.9v-5.82h-59.54z" stroke="#4c535d"/><path d="M105.18 623.36h84.13v20.23h-84.12z" fill="#fff" fill-opacity="0"/><g><use xlink:href="#N" transform="matrix(1,0,0,1,105.18432643172707,623.354755725177) translate(4.9733333333333505 15.05166666666666)"/><use xlink:href="#O" transform="matrix(1,0,0,1,105.18432643172707,623.354755725177) translate(49.559999999999995 15.05166666666666)"/></g><path d="M32.52 643.36h11M77.52 643.36h5" stroke="#3a414a" stroke-width="2" fill="none"/><path d="M57.52 629.36c7.73 0 14 6.26 14 14 0 7.73-6.27 14-14 14s-14-6.27-14-14c0-7.74 6.27-14 14-14z" stroke="#3a414a" stroke-width="2" fill="#fff"/><path d="M57.52 663.36c11.04 0 20-8.96 20-20 0-11.05-8.96-20-20-20" stroke="#3a414a" stroke-width="2" fill="none"/><path d="M32.52 643.36a.8.8 0 0 1 .8-.8h9.4a.8.8 0 0 1 .8.8.8.8 0 0 1-.8.8h-9.4a.8.8 0 0 1-.8-.8z" fill="none"/><path d="M83.52 643.36H354.23" stroke="#3a414a" stroke-width="2" fill="none"/><path d="M83.54 644.36h-1.02v-2h1.02zM355.23 644.36h-1.03v-2h1.03z" stroke="#3a414a" stroke-width=".05" fill="#3a414a"/><path d="M716.25 1162.2l.06-2.94.24-3.65.36-3.38.47-3.18.57-3 .66-2.82.75-2.7.83-2.54.9-2.45 1-2.35 1.06-2.26 1.14-2.2 1.23-2.12 1.32-2.06 1.4-2.02 1.5-1.98 1.6-1.94 1.74-1.9 1.85-1.9 2-1.87 2.14-1.85 2.33-1.85 2.53-1.83 2.76-1.84 3.03-1.83 3.33-1.84 3.7-1.85 4.15-1.84 4.67-1.83 5.3-1.85 6.1-1.84 7.1-1.8 8.4-1.8 10.2-1.7 12.76-1.6 16.94-1.4 25.78-1.05 57-.12" stroke="#3a414a" stroke-width="2" stroke-linejoin="round" fill="none"/><path d="M717.25 1162.2l-.02 1h-2v2.97h-.06l.08-4.02zM916.13 1084.2h-1.02v-2h1.03z" stroke="#3a414a" stroke-width=".05" fill="#3a414a"/><g><path d="M716.23 1213.2v-11M716.23 1168.2v-5" stroke="#3a414a" stroke-width="2" fill="none"/><path d="M702.23 1188.2c0-7.74 6.27-14 14-14s14 6.26 14 14c0 7.73-6.27 14-14 14s-14-6.27-14-14z" stroke="#3a414a" stroke-width="2" fill="#fff"/><path d="M736.23 1188.2c0-11.05-8.95-20-20-20s-20 8.95-20 20" stroke="#3a414a" stroke-width="2" fill="none"/><path d="M716.23 1213.2a.8.8 0 0 1-.8-.8v-9.4a.8.8 0 0 1 .8-.8.8.8 0 0 1 .8.8v9.4a.8.8 0 0 1-.8.8z" fill="none"/></g><path d="M716.23 1214.2v9" stroke="#3a414a" stroke-width="2" fill="none"/><path d="M717.23 1214.22h-2v-1.02h2zM717.23 1224.2h-2v-1.03h2z" stroke="#3a414a" stroke-width=".05" fill="#3a414a"/><path d="M716.2 1162.2l-.05-2.88-.23-3.6-.34-3.32-.46-3.12-.56-2.93-.65-2.76-.72-2.63-.8-2.5-.9-2.38-.96-2.3-1.04-2.2-1.1-2.14-1.2-2.06-1.28-2-1.36-1.97-1.45-1.9-1.57-1.9-1.66-1.84-1.8-1.84-1.92-1.8-2.07-1.8-2.24-1.77-2.44-1.78-2.66-1.76-2.9-1.77-3.23-1.77-3.55-1.77-3.97-1.77-4.48-1.78-5.08-1.76-5.83-1.76-6.8-1.74-8.03-1.7-9.7-1.64-12.16-1.52-16.05-1.33-24.13-.97h-62.6" stroke="#3a414a" stroke-width="2" stroke-linejoin="round" fill="none"/><path d="M717.3 1166.17h-.07v-2.97h-2l-.02-1 2-.05zM518.26 1084.8v2h-1.03v-2z" stroke="#3a414a" stroke-width=".05" fill="#3a414a"/><path d="M-138.16 589.36a6 6 0 0 1 6-6h148a6 6 0 0 1 6 6v108a6 6 0 0 1-6 6h-148a6 6 0 0 1-6-6z" stroke="#3a414a" stroke-width="2" fill="#fff"/><path d="M11.84 593.36h-15v20h15z" stroke="#3a414a" fill="#fff"/><path d="M1.84 596.7h-10V600h10zm0 10h-10V610h10z" stroke="#3a414a" fill="#fff"/><path d="M-163.38 583.36a18 18 0 0 1 18-18h14.44a18 18 0 0 1 18 18 18 18 0 0 1-18 18h-14.44a18 18 0 0 1-18-18z" stroke="#000" stroke-opacity="0" fill="#e81313"/><path d="M-150.57 579.8c.05-1.3-3.17-1.53-3.22-.17.7 2.08 5.36.3 5.4 3.9.05 3.75-7.42 3.43-7.78.4l1.94-.32c.18.87.9 1.14 2 1.14 1.5.37 2.58-1.35 1.08-1.85-1.94-.65-4.62-.5-4.7-3-.1-3.63 6.97-3.35 7.28-.32m6.44 6.93c-.7 1.96-1.95 3.45-4.72 2.82v-1.6c1.6.38 2.4-.5 2.68-1.75l-3.4-8.52h2.36l2.17 6.7c.54-2.35 1.27-4.52 2-6.7h2.3m6.2-.18c3.95-.04 2.63 5.12 2.86 8.8h-2.26c-.3-2.6 1.05-7.12-1.53-7.12-2.67 0-1.53 4.4-1.76 7.1h-2.27l-.04-8.6h2.13c.1.55-.05 1.27.13 1.72.54-1.17 1.26-1.85 2.76-1.9m12.4 5.93c-.3 1.9-1.72 3.04-3.9 3.04-2.66 0-3.8-1.72-4.07-4.44-.55-4.98 6.97-6.2 7.88-1.63l-2.22.1c-.1-.87-.68-1.46-1.6-1.46-1.35 0-1.57 1.28-1.7 2.9-.28 3.36 2.93 3.95 3.34 1.37" fill="#fff"/><g><use xlink:href="#d" transform="matrix(1,0,0,1,-138.15986375960676,583.354755725177) translate(26.99881510416666 35.45030381944444)"/><use xlink:href="#e" transform="matrix(1,0,0,1,-138.15986375960676,583.354755725177) translate(45.668519965277774 35.45030381944444)"/><use xlink:href="#f" transform="matrix(1,0,0,1,-138.15986375960676,583.354755725177) translate(93.67633246527778 35.45030381944444)"/><use xlink:href="#P" transform="matrix(1,0,0,1,-138.15986375960676,583.354755725177) translate(26.662986111111103 63.73263888888889)"/><use xlink:href="#Q" transform="matrix(1,0,0,1,-138.15986375960676,583.354755725177) translate(101.34180555555557 63.73263888888889)"/><use xlink:href="#u" transform="matrix(1,0,0,1,-138.15986375960676,583.354755725177) translate(53.33399305555555 93.94097222222223)"/></g><path d="M31.52 643.36h-7.68" stroke="#3a414a" stroke-width="2" fill="none"/><path d="M35.52 642.36h-3v2H31.5v-2h4.02zM23.87 644.36h-1.03v-2h1.03z" stroke="#3a414a" stroke-width=".05" fill="#3a414a"/><path d="M-410.4 895.2a6 6 0 0 1 6-6h148a6 6 0 0 1 6 6v108a6 6 0 0 1-6 6h-148a6 6 0 0 1-6-6z" stroke="#3a414a" stroke-width="2" fill="#fff"/><path d="M-260.4 899.2h-15v20h15z" stroke="#3a414a" fill="#fff"/><path d="M-270.4 902.53h-10v3.33h10zm0 10h-10v3.33h10z" stroke="#3a414a" fill="#fff"/><g><use xlink:href="#d" transform="matrix(1,0,0,1,-410.3899684511689,889.193076324239) translate(26.99881510416666 35.45030381944444)"/><use xlink:href="#e" transform="matrix(1,0,0,1,-410.3899684511689,889.193076324239) translate(45.668519965277774 35.45030381944444)"/><use xlink:href="#f" transform="matrix(1,0,0,1,-410.3899684511689,889.193076324239) translate(93.67633246527778 35.45030381944444)"/><use xlink:href="#R" transform="matrix(1,0,0,1,-410.3899684511689,889.193076324239) translate(5.326180555555547 63.73263888888889)"/><use xlink:href="#S" transform="matrix(1,0,0,1,-410.3899684511689,889.193076324239) translate(58.66819444444444 63.73263888888889)"/><use xlink:href="#T" transform="matrix(1,0,0,1,-410.3899684511689,889.193076324239) translate(42.66559027777777 93.94097222222223)"/></g><g><path d="M985.18 815.7v59.53H991l-10.9 13-10.92-13H975V815.7z" stroke="#4c535d"/></g><path d="M1002.47 836.77h40.18v30.38h-40.18z" fill="#fff" fill-opacity="0"/><g><use xlink:href="#U" transform="matrix(1,0,0,1,1002.4723062341741,836.7722649787056) translate(5.266666666666673 20.176666666666662)"/></g><path d="M-248.4 949.2h108.24" stroke="#3a414a" stroke-width="2" fill="none"/><path d="M-248.36 950.2h-1.03v-2h1.04zM-139.16 950.2h-1.03v-2h1.04z" stroke="#3a414a" stroke-width=".05" fill="#3a414a"/><path d="M-412.4 918.82h-44.54a6 6 0 0 1-6-6V871.1a6 6 0 0 0-6-6h-44.55" stroke="#3a414a" stroke-width="2" fill="none"/><path d="M-411.4 919.82h-1.02v-2h1.03zM-513.47 866.1h-1.02v-2h1.03z" stroke="#3a414a" stroke-width=".05" fill="#3a414a"/><path d="M-412.4 979.57h-44.54a6 6 0 0 0-6 6v48.05a6 6 0 0 1-6 6h-44.55" stroke="#3a414a" stroke-width="2" fill="none"/><path d="M-411.4 980.57h-1.02v-2h1.03zM-513.47 1040.62h-1.02v-2h1.03zM-280.83 1225.6l-2.58 3.2-1.56-1.27 2.58-3.18zm10.3-12.7l-5.15 6.35-1.55-1.26 5.16-6.37zm10.32-12.74l-5.17 6.37-1.55-1.26 5.16-6.37zm10.3-12.72l-5.16 6.36-1.55-1.26 5.15-6.36zm10.3-12.73l-5.15 6.38-1.55-1.26 5.16-6.37zm10.32-12.7l-5.16 6.35-1.55-1.26 5.16-6.37zm10.3-12.74l-5.15 6.37-1.55-1.26 5.15-6.36zm10.32-12.72l-5.16 6.36-1.55-1.26 5.15-6.36zm5.15-6.36l-1.56-1.26.37-.46h2.6zm14.95-19.5h-1.73l.68-.85zm10.82-12.32l-5.16 6.37-1.54-1.26 5.15-6.36zm10.3-12.72l-5.15 6.36-1.55-1.26 5.15-6.36zm10.32-12.72l-5.17 6.36-1.55-1.26 5.15-6.36zm10.3-12.73l-5.16 6.35-1.55-1.26 5.14-6.37zm10.3-12.73l-5.15 6.36-1.55-1.26 5.15-6.36zm10.3-12.73l-5.14 6.36-1.55-1.25 5.16-6.37zm7.75-9.54l-2.58 3.18-1.55-1.26 2.57-3.18z" stroke="#3a414a" stroke-width=".05" fill="#3a414a"/><path d="M-283.4 1228.77l-.3.4-2.22-.46.98-1.2z" fill="#3a414a"/><path d="M-283.36 1228.77l-.34.43-2.26-.47 1-1.25zm-2.5-.07l2.14.44.3-.36-1.52-1.23z" stroke="#3a414a" stroke-width=".05" fill="#3a414a"/><path d="M-115 1026.7l-7.2-5.83 12.58-8.16z" fill="#3a414a"/><path d="M-114.56 1028.35l-9.34-7.57 16.32-10.6zm-5.94-7.4l5.06 4.12 3.78-9.85z" stroke="#3a414a" stroke-width=".05" fill="#3a414a"/><g><use xlink:href="#V" transform="matrix(1,0,0,1,-213.97565543556806,1110.6778605271952) translate(0 14.755555555555555)"/></g><g><path d="M-58.16 714.35v11M-58.16 759.35v5" stroke="#3a414a" stroke-width="2" fill="none"/><path d="M-44.16 739.35c0 7.74-6.27 14-14 14s-14-6.26-14-14c0-7.73 6.27-14 14-14s14 6.27 14 14z" stroke="#3a414a" stroke-width="2" fill="#fff"/><path d="M-78.16 739.35c0 11.05 8.95 20 20 20s20-8.95 20-20" stroke="#3a414a" stroke-width="2" fill="none"/><path d="M-58.16 714.35a.8.8 0 0 1 .8.8v9.4a.8.8 0 0 1-.8.8.8.8 0 0 1-.8-.8v-9.4a.8.8 0 0 1 .8-.8z" fill="none"/></g><path d="M-58.16 713.36v-8" stroke="#3a414a" stroke-width="2" fill="none"/><path d="M-59.16 714.36v-1.03h2v1.02zM-57.16 705.38h-2v-1.02h2z" stroke="#3a414a" stroke-width=".05" fill="#3a414a"/><path d="M-58.16 765.36V887.2" stroke="#3a414a" stroke-width="2" fill="none"/><path d="M-57.16 765.38h-2v-1.02h2zM-57.16 888.2h-2v-1.03h2z" stroke="#3a414a" stroke-width=".05" fill="#3a414a"/></g><defs><path d="M650-1214c-281 0-336 244-336 533 0 295 60 546 347 546 188 0 263-142 322-282l159 65C1058-155 935 20 659 20c-401 0-546-295-546-701 0-407 135-689 536-689 264 0 391 146 466 335l-168 65c-47-129-127-244-297-244" id="W"/><path d="M839-1102c70 0 148 7 206 17v167c-112-18-268-36-363 15-129 69-208 203-208 395V0H294c-10-367 32-789-52-1082h171c21 75 41 161 48 250h5c67-152 152-270 373-270" id="X"/><path d="M1000-272c3 95 12 159 101 161 21 0 41-3 59-7V-6c-44 10-86 16-139 16-141 2-191-84-197-217h-6C748-76 648 20 446 20c-207 0-318-120-318-322 0-266 194-348 454-354l236-4c12-191-40-305-222-305-140 0-220 47-232 172l-188-17c33-204 181-292 423-292 255 0 401 118 401 364v466zm-683-27c0 109 63 184 175 182 166-3 259-96 306-217 24-65 20-120 20-200-232 7-501-28-501 235" id="Y"/><path d="M1018 0H814c-67-224-138-444-200-673C552-442 476-224 407 0H204L21-1082h178c43 310 105 601 126 933 54-225 128-425 193-638h193c63 212 134 415 185 638 22-336 90-622 136-933h176" id="Z"/><path d="M736-142h380V0H134v-142h422v-1200H267v-142h469v1342" id="aa"/><path d="M617-1102c355 0 481 238 477 599H322c5 222 84 388 301 388 144 0 244-59 284-166l158 45C1002-72 854 20 623 20c-342 0-490-220-490-568 0-346 151-554 484-554zm291 461c-18-192-90-328-289-328-194 0-287 128-295 328h584" id="ab"/><g id="a"><use transform="matrix(0.0087890625,0,0,0.0087890625,0,0)" xlink:href="#W"/><use transform="matrix(0.0087890625,0,0,0.0087890625,10.8017578125,0)" xlink:href="#X"/><use transform="matrix(0.0087890625,0,0,0.0087890625,21.603515625,0)" xlink:href="#Y"/><use transform="matrix(0.0087890625,0,0,0.0087890625,32.4052734375,0)" xlink:href="#Z"/><use transform="matrix(0.0087890625,0,0,0.0087890625,43.20703125,0)" xlink:href="#aa"/><use transform="matrix(0.0087890625,0,0,0.0087890625,54.0087890625,0)" xlink:href="#ab"/><use transform="matrix(0.0087890625,0,0,0.0087890625,64.810546875,0)" xlink:href="#X"/></g><path d="M604-135c236 0 291-142 291-376v-838h190v859c5 340-142 510-480 510-326 0-463-164-463-492v-877h191v851c-3 222 46 363 271 363" id="ac"/><path d="M1121-976c0 225-142 341-344 379L1177 0H957L591-575H353V0H162v-1349h482c281 3 477 100 477 373zM633-726c181-1 296-73 296-247 0-149-101-223-304-223H353v470h280" id="ad"/><path d="M237 0v-1349h191v1193h672V0H237" id="ae"/><g id="b"><use transform="matrix(0.0087890625,0,0,0.0087890625,0,0)" xlink:href="#ac"/><use transform="matrix(0.0087890625,0,0,0.0087890625,10.8017578125,0)" xlink:href="#ad"/><use transform="matrix(0.0087890625,0,0,0.0087890625,21.603515625,0)" xlink:href="#ae"/></g><path d="M385-1193v494h676v158H385V0H194v-1349h891v156H385" id="af"/><path d="M615-1102c343 0 484 203 482 560-1 347-147 562-488 562-336 0-475-219-479-562-4-349 156-560 485-560zm-8 989c240 0 301-180 301-429 0-245-55-427-290-427-236 0-299 181-299 427 0 243 61 429 288 429" id="ag"/><path d="M706-1102c241 0 344 136 343 381V0H868v-695c1-168-57-273-220-268-190 6-283 138-283 336V0H185c-3-360 6-732-6-1082h170c4 54 7 126 8 185h3c63-121 164-204 346-205" id="ah"/><path d="M682 16c-209 0-323-80-324-285v-671H190v-142h170l58-282h120v282h432v142H538v652c2 114 60 155 182 155 106 0 209-16 297-34v137C921-4 806 16 682 16" id="ai"/><path d="M745-142h380V0H143v-142h422v-798H246v-142h499v940zM545-1292v-192h200v192H545" id="aj"/><g id="c"><use transform="matrix(0.0087890625,0,0,0.0087890625,0,0)" xlink:href="#af"/><use transform="matrix(0.0087890625,0,0,0.0087890625,10.8017578125,0)" xlink:href="#X"/><use transform="matrix(0.0087890625,0,0,0.0087890625,21.603515625,0)" xlink:href="#ag"/><use transform="matrix(0.0087890625,0,0,0.0087890625,32.4052734375,0)" xlink:href="#ah"/><use transform="matrix(0.0087890625,0,0,0.0087890625,43.20703125,0)" xlink:href="#ai"/><use transform="matrix(0.0087890625,0,0,0.0087890625,54.0087890625,0)" xlink:href="#aj"/><use transform="matrix(0.0087890625,0,0,0.0087890625,64.810546875,0)" xlink:href="#ab"/><use transform="matrix(0.0087890625,0,0,0.0087890625,75.6123046875,0)" xlink:href="#X"/></g><path fill="#979ea8" d="M940-141L602-506v-63l338-371h178v31L780-537l340 367v29H940zm-477 0L127-506v-63l336-371h177v31L305-537l337 367v29H463" id="ak"/><use transform="matrix(0.007595486111111112,0,0,0.007595486111111112,0,0)" xlink:href="#ak" id="d"/><path fill="#979ea8" d="M631 20c-350 0-501-215-501-562 0-355 162-560 502-560 250 0 399 118 446 323l-192 14c-23-124-109-196-262-196-242 0-305 171-305 415 1 245 61 427 304 427 151 0 248-77 267-215l190 12C1039-107 883 20 631 20" id="al"/><path fill="#979ea8" d="M736-142h380V0H134v-142h422v-1200H267v-142h469v1342" id="am"/><path fill="#979ea8" d="M1000-272c3 95 12 159 101 161 21 0 41-3 59-7V-6c-44 10-86 16-139 16-141 2-191-84-197-217h-6C748-76 648 20 446 20c-207 0-318-120-318-322 0-266 194-348 454-354l236-4c12-191-40-305-222-305-140 0-220 47-232 172l-188-17c33-204 181-292 423-292 255 0 401 118 401 364v466zm-683-27c0 109 63 184 175 182 166-3 259-96 306-217 24-65 20-120 20-200-232 7-501-28-501 235" id="an"/><path fill="#979ea8" d="M873-819c-18-114-119-146-250-146-163 0-245 50-245 151 0 151 170 148 294 185 182 54 388 94 388 320 0 240-189 325-439 329-245 4-410-69-454-268l159-31c24 133 136 168 295 165 144-2 270-31 270-171 0-164-195-160-331-202-167-52-350-87-350-299 0-218 173-315 413-313 220 2 373 77 412 260" id="ao"/><g id="e"><use transform="matrix(0.006510416666666667,0,0,0.006510416666666667,0,0)" xlink:href="#al"/><use transform="matrix(0.006510416666666667,0,0,0.006510416666666667,8.001302083333334,0)" xlink:href="#am"/><use transform="matrix(0.006510416666666667,0,0,0.006510416666666667,16.002604166666668,0)" xlink:href="#an"/><use transform="matrix(0.006510416666666667,0,0,0.006510416666666667,24.00390625,0)" xlink:href="#ao"/><use transform="matrix(0.006510416666666667,0,0,0.006510416666666667,32.005208333333336,0)" xlink:href="#ao"/></g><path fill="#979ea8" d="M762-141H584v-29l338-367-336-372v-31h176l338 371v63zm-475 0H107v-29l338-367-336-372v-31h178l335 371v63" id="ap"/><use transform="matrix(0.007595486111111112,0,0,0.007595486111111112,0,0)" xlink:href="#ap" id="f"/><path d="M462-1121v384h621v228H462V0H167v-1349h939v228H462" id="aq"/><path d="M875-1102c70 0 148 7 206 17v237c-110-17-267-37-359 15-123 69-192 207-192 395V0H250c-10-367 32-789-52-1082h271c19 69 36 149 46 228h4c52-151 151-250 356-248" id="ar"/><path d="M616-1102c361 0 521 202 521 560 0 354-171 562-527 562C259 20 92-192 92-542c0-351 169-560 524-560zm-9 930c200-2 236-165 236-370 0-199-27-367-223-367-195 0-233 146-233 367 0 129 18 223 55 282s92 88 165 88" id="as"/><path d="M768-1103c247 0 336 167 336 416V0H824v-619c-3-164-24-273-171-273-164 0-229 142-229 312V0H143c-4-359 9-736-8-1082h268c7 63 12 146 13 215h4c67-145 160-236 348-236" id="at"/><path d="M711 13c-250 0-386-99-385-349l2-556H161v-190h181l88-282h176v282h385v190H606v530c-10 130 45 186 174 184 91-2 176-11 255-27v186C933-1 833 13 711 13" id="au"/><g id="g"><use transform="matrix(0.008680555555555556,0,0,0.008680555555555556,0,0)" xlink:href="#aq"/><use transform="matrix(0.008680555555555556,0,0,0.008680555555555556,10.668402777777779,0)" xlink:href="#ar"/><use transform="matrix(0.008680555555555556,0,0,0.008680555555555556,21.336805555555557,0)" xlink:href="#as"/><use transform="matrix(0.008680555555555556,0,0,0.008680555555555556,32.005208333333336,0)" xlink:href="#at"/><use transform="matrix(0.008680555555555556,0,0,0.008680555555555556,42.673611111111114,0)" xlink:href="#au"/></g><path d="M1100-543c2 361-147 563-501 563-342 0-470-199-470-548v-821h295v818c3 172 13 322 183 320 173-2 198-150 198-330v-808h295v806" id="av"/><path d="M1157-949c0 209-118 316-279 368L1227 0H895L605-515H432V0H137v-1349h494c317-2 526 111 526 400zM608-744c158 1 248-51 252-193 5-207-223-184-428-183v376h176" id="aw"/><path d="M211 0v-1349h295v1121h616V0H211" id="ax"/><g id="h"><use transform="matrix(0.008680555555555556,0,0,0.008680555555555556,0,0)" xlink:href="#av"/><use transform="matrix(0.008680555555555556,0,0,0.008680555555555556,10.668402777777779,0)" xlink:href="#aw"/><use transform="matrix(0.008680555555555556,0,0,0.008680555555555556,21.336805555555557,0)" xlink:href="#ax"/></g><path d="M872-915c-35-112-84-223-220-223-91 0-156 41-204 116-89 137-87 550 2 688 51 79 116 122 209 122 150 0 197-126 240-244l273 52C1094-168 961 20 656 20 239 20 80-262 80-681c0-418 154-689 568-689 289 0 425 167 496 389" id="ay"/><path d="M794-190h353V0H118v-190h395v-1104H223v-190h571v1294" id="az"/><path d="M1113-274C1038-96 884 20 626 20c-352 0-526-209-526-566 0-358 185-556 530-556 358 0 496 251 499 615H395c5 180 68 319 245 319 102 0 186-45 208-129zM857-663c-6-177-128-307-315-247-94 30-141 121-145 247h460" id="aA"/><path d="M1109-360C1066-122 902 20 624 20c-347 0-514-209-514-555 0-353 168-567 518-567 270 0 425 136 473 361l-283 14c-16-106-75-183-196-182-75 0-130 31-165 93s-52 152-52 270c0 249 74 374 221 374 120 0 188-82 201-201" id="aB"/><g id="i"><use transform="matrix(0.008680555555555556,0,0,0.008680555555555556,0,0)" xlink:href="#ay"/><use transform="matrix(0.008680555555555556,0,0,0.008680555555555556,10.668402777777779,0)" xlink:href="#as"/><use transform="matrix(0.008680555555555556,0,0,0.008680555555555556,21.336805555555557,0)" xlink:href="#az"/><use transform="matrix(0.008680555555555556,0,0,0.008680555555555556,32.005208333333336,0)" xlink:href="#aA"/><use transform="matrix(0.008680555555555556,0,0,0.008680555555555556,42.673611111111114,0)" xlink:href="#aB"/><use transform="matrix(0.008680555555555556,0,0,0.008680555555555556,53.34201388888889,0)" xlink:href="#au"/><use transform="matrix(0.008680555555555556,0,0,0.008680555555555556,64.01041666666667,0)" xlink:href="#as"/><use transform="matrix(0.008680555555555556,0,0,0.008680555555555556,74.67881944444446,0)" xlink:href="#ar"/></g><use transform="matrix(0.007595486111111112,0,0,0.007595486111111112,0,0)" xlink:href="#ak" id="j"/><use transform="matrix(0.007595486111111112,0,0,0.007595486111111112,0,0)" xlink:href="#ap" id="k"/><path d="M324-409v-244h580v244H324" id="aC"/><path d="M836-709c204 20 350 118 350 324C1186-112 992 0 719 0H137v-1349h525c258 3 443 87 443 339 0 176-107 269-269 301zM643-811c107 0 165-53 165-159 0-113-61-160-167-160H432v319h211zm46 592c128-1 201-59 200-191-1-128-80-183-207-183H432v374h257" id="aD"/><path d="M775-193C708-75 621 20 439 20 226 20 106-93 106-306c0-251 170-341 417-346l223-4c4-143-12-264-148-264-103 0-141 58-150 153l-293-14c37-219 194-321 455-321 263 0 418 130 417 390v392c1 84 5 161 89 160 21 0 42-2 62-6v152c-57 15-108 27-180 26-145 0-202-73-217-205h-6zm-256 17c168 0 234-139 227-325-166 4-347-25-347 173 0 94 33 152 120 152" id="aE"/><path d="M864 0L575-490l-121 84V0H173v-1484h281v850l386-448h302L762-660 1171 0H864" id="aF"/><g id="l"><use transform="matrix(0.008680555555555556,0,0,0.008680555555555556,0,0)" xlink:href="#aq"/><use transform="matrix(0.008680555555555556,0,0,0.008680555555555556,10.668402777777779,0)" xlink:href="#ar"/><use transform="matrix(0.008680555555555556,0,0,0.008680555555555556,21.336805555555557,0)" xlink:href="#as"/><use transform="matrix(0.008680555555555556,0,0,0.008680555555555556,32.005208333333336,0)" xlink:href="#at"/><use transform="matrix(0.008680555555555556,0,0,0.008680555555555556,42.673611111111114,0)" xlink:href="#au"/><use transform="matrix(0.008680555555555556,0,0,0.008680555555555556,53.34201388888889,0)" xlink:href="#aC"/><use transform="matrix(0.008680555555555556,0,0,0.008680555555555556,64.01041666666667,0)" xlink:href="#au"/><use transform="matrix(0.008680555555555556,0,0,0.008680555555555556,74.67881944444446,0)" xlink:href="#as"/><use transform="matrix(0.008680555555555556,0,0,0.008680555555555556,85.34722222222223,0)" xlink:href="#aC"/><use transform="matrix(0.008680555555555556,0,0,0.008680555555555556,96.015625,0)" xlink:href="#aD"/><use transform="matrix(0.008680555555555556,0,0,0.008680555555555556,106.68402777777777,0)" xlink:href="#aE"/><use transform="matrix(0.008680555555555556,0,0,0.008680555555555556,117.35243055555554,0)" xlink:href="#aB"/><use transform="matrix(0.008680555555555556,0,0,0.008680555555555556,128.02083333333331,0)" xlink:href="#aF"/></g><g id="m"><use transform="matrix(0.008680555555555556,0,0,0.008680555555555556,0,0)" xlink:href="#av"/><use transform="matrix(0.008680555555555556,0,0,0.008680555555555556,10.668402777777779,0)" xlink:href="#aw"/><use transform="matrix(0.008680555555555556,0,0,0.008680555555555556,21.336805555555557,0)" xlink:href="#ax"/></g><path d="M471 20c-247 0-336-169-336-415v-687h281v607c4 148 31 285 172 285 152 0 207-150 207-312v-580h281c4 359-9 736 8 1082H816c-7-63-11-146-12-215h-5C736-76 644 20 471 20" id="aG"/><g id="n"><use transform="matrix(0.008680555555555556,0,0,0.008680555555555556,0,0)" xlink:href="#aw"/><use transform="matrix(0.008680555555555556,0,0,0.008680555555555556,10.668402777777779,0)" xlink:href="#as"/><use transform="matrix(0.008680555555555556,0,0,0.008680555555555556,21.336805555555557,0)" xlink:href="#aG"/><use transform="matrix(0.008680555555555556,0,0,0.008680555555555556,32.005208333333336,0)" xlink:href="#au"/><use transform="matrix(0.008680555555555556,0,0,0.008680555555555556,42.673611111111114,0)" xlink:href="#aA"/><use transform="matrix(0.008680555555555556,0,0,0.008680555555555556,53.34201388888889,0)" xlink:href="#ar"/></g><g id="o"><use transform="matrix(0.008680555555555556,0,0,0.008680555555555556,0,0)" xlink:href="#av"/><use transform="matrix(0.008680555555555556,0,0,0.008680555555555556,10.668402777777779,0)" xlink:href="#aw"/><use transform="matrix(0.008680555555555556,0,0,0.008680555555555556,21.336805555555557,0)" xlink:href="#ax"/></g><path d="M496-1349c439 0 656 222 653 664C1146-265 969 0 556 0H135v-1349h361zm36 1121c245-7 319-187 320-457 1-273-91-439-361-436h-61v893h102" id="aH"/><path d="M1028 0H784c-56-191-119-378-170-573C562-377 495-191 437 0H194L11-1082h228c32 239 67 472 95 714 4 40 7 80 7 119 53-195 119-378 177-568h193c56 190 120 371 169 568-1-79 11-158 21-226l91-607h226" id="aI"/><path d="M802-909c-3-189-2-383-2-575h281v1248c-1 83 4 168 8 236H817c-9-50-14-117-15-176h-4C735-49 651 20 482 20 191 20 97-238 97-539c0-243 66-432 221-519 50-28 108-42 175-42 162 2 253 78 309 191zm-70 658c91-113 93-462 2-584-46-61-145-100-224-53-96 56-119 190-120 349 0 123 17 214 52 275 46 82 130 115 222 74 25-12 46-33 68-61" id="aJ"/><g id="p"><use transform="matrix(0.008680555555555556,0,0,0.008680555555555556,0,0)" xlink:href="#aH"/><use transform="matrix(0.008680555555555556,0,0,0.008680555555555556,10.668402777777779,0)" xlink:href="#as"/><use transform="matrix(0.008680555555555556,0,0,0.008680555555555556,21.336805555555557,0)" xlink:href="#aI"/><use transform="matrix(0.008680555555555556,0,0,0.008680555555555556,32.005208333333336,0)" xlink:href="#at"/><use transform="matrix(0.008680555555555556,0,0,0.008680555555555556,42.673611111111114,0)" xlink:href="#az"/><use transform="matrix(0.008680555555555556,0,0,0.008680555555555556,53.34201388888889,0)" xlink:href="#as"/><use transform="matrix(0.008680555555555556,0,0,0.008680555555555556,64.01041666666667,0)" xlink:href="#aE"/><use transform="matrix(0.008680555555555556,0,0,0.008680555555555556,74.67881944444446,0)" xlink:href="#aJ"/></g><path d="M609-1161c-125 0-218 36-218 153 0 149 166 161 290 196 235 67 484 129 484 421 0 300-239 408-554 411C302 23 93-114 38-367l285-37c32 128 131 205 296 203 143-2 259-31 259-173 0-164-197-172-333-212-218-64-441-131-441-405 0-276 231-379 511-379 299 0 463 114 513 363l-286 29c-28-115-96-183-233-183" id="aK"/><path d="M424-1484c-2 206 5 424-8 618h4c67-145 160-234 348-236 251-3 335 167 336 416V0H824v-621c0-150-23-276-173-270-163 7-227 142-227 312V0H143v-1484h281" id="aL"/><g id="q"><use transform="matrix(0.008680555555555556,0,0,0.008680555555555556,0,0)" xlink:href="#aK"/><use transform="matrix(0.008680555555555556,0,0,0.008680555555555556,10.668402777777779,0)" xlink:href="#aB"/><use transform="matrix(0.008680555555555556,0,0,0.008680555555555556,21.336805555555557,0)" xlink:href="#aL"/><use transform="matrix(0.008680555555555556,0,0,0.008680555555555556,32.005208333333336,0)" xlink:href="#aA"/><use transform="matrix(0.008680555555555556,0,0,0.008680555555555556,42.673611111111114,0)" xlink:href="#aJ"/><use transform="matrix(0.008680555555555556,0,0,0.008680555555555556,53.34201388888889,0)" xlink:href="#aG"/><use transform="matrix(0.008680555555555556,0,0,0.008680555555555556,64.01041666666667,0)" xlink:href="#az"/><use transform="matrix(0.008680555555555556,0,0,0.008680555555555556,74.67881944444446,0)" xlink:href="#aA"/><use transform="matrix(0.008680555555555556,0,0,0.008680555555555556,85.34722222222223,0)" xlink:href="#ar"/></g><g id="r"><use transform="matrix(0.008680555555555556,0,0,0.008680555555555556,0,0)" xlink:href="#aq"/><use transform="matrix(0.008680555555555556,0,0,0.008680555555555556,10.668402777777779,0)" xlink:href="#ar"/><use transform="matrix(0.008680555555555556,0,0,0.008680555555555556,21.336805555555557,0)" xlink:href="#as"/><use transform="matrix(0.008680555555555556,0,0,0.008680555555555556,32.005208333333336,0)" xlink:href="#at"/><use transform="matrix(0.008680555555555556,0,0,0.008680555555555556,42.673611111111114,0)" xlink:href="#au"/></g><path d="M615-1370c385 0 542 273 542 691 0 358-114 602-378 679 41 115 114 187 266 186 41 0 86-7 123-13v202c-117 27-296 45-408-1C608 311 534 171 482 7 194-58 72-308 72-679c0-419 158-691 543-691zM797-330c77-133 78-564 0-695-44-73-101-113-182-113s-139 40-183 114c-79 133-78 560 0 694 45 77 102 118 183 118s138-41 182-118" id="aM"/><g id="s"><use transform="matrix(0.008680555555555556,0,0,0.008680555555555556,0,0)" xlink:href="#aM"/><use transform="matrix(0.008680555555555556,0,0,0.008680555555555556,10.668402777777779,0)" xlink:href="#aG"/><use transform="matrix(0.008680555555555556,0,0,0.008680555555555556,21.336805555555557,0)" xlink:href="#aA"/><use transform="matrix(0.008680555555555556,0,0,0.008680555555555556,32.005208333333336,0)" xlink:href="#aG"/><use transform="matrix(0.008680555555555556,0,0,0.008680555555555556,42.673611111111114,0)" xlink:href="#aA"/></g><g id="t"><use transform="matrix(0.008680555555555556,0,0,0.008680555555555556,0,0)" xlink:href="#aD"/><use transform="matrix(0.008680555555555556,0,0,0.008680555555555556,10.668402777777779,0)" xlink:href="#aE"/><use transform="matrix(0.008680555555555556,0,0,0.008680555555555556,21.336805555555557,0)" xlink:href="#aB"/><use transform="matrix(0.008680555555555556,0,0,0.008680555555555556,32.005208333333336,0)" xlink:href="#aF"/></g><g id="u"><use transform="matrix(0.008680555555555556,0,0,0.008680555555555556,0,0)" xlink:href="#aM"/><use transform="matrix(0.008680555555555556,0,0,0.008680555555555556,10.668402777777779,0)" xlink:href="#aG"/><use transform="matrix(0.008680555555555556,0,0,0.008680555555555556,21.336805555555557,0)" xlink:href="#aA"/><use transform="matrix(0.008680555555555556,0,0,0.008680555555555556,32.005208333333336,0)" xlink:href="#aG"/><use transform="matrix(0.008680555555555556,0,0,0.008680555555555556,42.673611111111114,0)" xlink:href="#aA"/></g><path fill="#979ea8" d="M865-914c-3-187-2-380-2-570h180v1261c0 76 1 155 6 223H877c-8-49-9-116-10-174h-5C801-44 708 26 530 26c-135 0-234-46-297-139s-95-232-95-419c0-377 131-566 392-566 176 0 271 63 335 184zm-286-51c-222 0-255 197-255 427 0 229 31 425 253 425 237 0 286-195 286-441 0-238-52-411-284-411" id="aN"/><path fill="#979ea8" d="M745-142h380V0H143v-142h422v-798H246v-142h499v940zM545-1292v-192h200v192H545" id="aO"/><path fill="#979ea8" d="M682 16c-209 0-323-80-324-285v-671H190v-142h170l58-282h120v282h432v142H538v652c2 114 60 155 182 155 106 0 209-16 297-34v137C921-4 806 16 682 16" id="aP"/><g id="v"><use transform="matrix(0.006510416666666667,0,0,0.006510416666666667,0,0)" xlink:href="#aN"/><use transform="matrix(0.006510416666666667,0,0,0.006510416666666667,8.001302083333334,0)" xlink:href="#aO"/><use transform="matrix(0.006510416666666667,0,0,0.006510416666666667,16.002604166666668,0)" xlink:href="#al"/><use transform="matrix(0.006510416666666667,0,0,0.006510416666666667,24.00390625,0)" xlink:href="#aP"/></g><path d="M796 0v-574H433V0H138v-1349h295v531h363v-531h295V0H796" id="aQ"/><path d="M622-916c-112 2-200 14-200 111 0 90 89 101 168 121 234 58 514 77 514 368C1104-4 751 54 434 5 267-21 161-112 121-270l247-37c24 111 113 145 252 141 114-3 226-12 226-124 0-101-103-113-192-134-225-54-490-76-490-351 0-247 201-328 458-328 245 0 413 88 457 292l-249 26c-16-98-92-133-208-131" id="aR"/><g id="w"><use transform="matrix(0.008680555555555556,0,0,0.008680555555555556,0,0)" xlink:href="#aQ"/><use transform="matrix(0.008680555555555556,0,0,0.008680555555555556,10.668402777777779,0)" xlink:href="#as"/><use transform="matrix(0.008680555555555556,0,0,0.008680555555555556,21.336805555555557,0)" xlink:href="#aR"/><use transform="matrix(0.008680555555555556,0,0,0.008680555555555556,32.005208333333336,0)" xlink:href="#au"/><use transform="matrix(0.008680555555555556,0,0,0.008680555555555556,42.673611111111114,0)" xlink:href="#aC"/><use transform="matrix(0.008680555555555556,0,0,0.008680555555555556,53.34201388888889,0)" xlink:href="#au"/><use transform="matrix(0.008680555555555556,0,0,0.008680555555555556,64.01041666666667,0)" xlink:href="#as"/><use transform="matrix(0.008680555555555556,0,0,0.008680555555555556,74.67881944444446,0)" xlink:href="#aC"/><use transform="matrix(0.008680555555555556,0,0,0.008680555555555556,85.34722222222223,0)" xlink:href="#aM"/><use transform="matrix(0.008680555555555556,0,0,0.008680555555555556,96.015625,0)" xlink:href="#aG"/><use transform="matrix(0.008680555555555556,0,0,0.008680555555555556,106.68402777777777,0)" xlink:href="#aA"/><use transform="matrix(0.008680555555555556,0,0,0.008680555555555556,117.35243055555554,0)" xlink:href="#aG"/><use transform="matrix(0.008680555555555556,0,0,0.008680555555555556,128.02083333333331,0)" xlink:href="#aA"/></g><path fill="#979ea8" d="M706-1102c241 0 344 136 343 381V0H868v-695c1-168-57-273-220-268-190 6-283 138-283 336V0H185c-3-360 6-732-6-1082h170c4 54 7 126 8 185h3c63-121 164-204 346-205" id="aS"/><path fill="#979ea8" d="M617-1102c355 0 481 238 477 599H322c5 222 84 388 301 388 144 0 244-59 284-166l158 45C1002-72 854 20 623 20c-342 0-490-220-490-568 0-346 151-554 484-554zm291 461c-18-192-90-328-289-328-194 0-287 128-295 328h584" id="aT"/><path fill="#979ea8" d="M839-1102c70 0 148 7 206 17v167c-112-18-268-36-363 15-129 69-208 203-208 395V0H294c-10-367 32-789-52-1082h171c21 75 41 161 48 250h5c67-152 152-270 373-270" id="aU"/><path fill="#979ea8" d="M839-1335c-182-6-269 67-259 253h491v142H580V0H400v-940H138v-142h262c-15-293 132-408 418-402 94 2 200 7 281 21v145c-75-10-177-14-260-17" id="aV"/><g id="x"><use transform="matrix(0.006510416666666667,0,0,0.006510416666666667,0,0)" xlink:href="#aO"/><use transform="matrix(0.006510416666666667,0,0,0.006510416666666667,8.001302083333334,0)" xlink:href="#aS"/><use transform="matrix(0.006510416666666667,0,0,0.006510416666666667,16.002604166666668,0)" xlink:href="#aP"/><use transform="matrix(0.006510416666666667,0,0,0.006510416666666667,24.00390625,0)" xlink:href="#aT"/><use transform="matrix(0.006510416666666667,0,0,0.006510416666666667,32.005208333333336,0)" xlink:href="#aU"/><use transform="matrix(0.006510416666666667,0,0,0.006510416666666667,40.00651041666667,0)" xlink:href="#aV"/><use transform="matrix(0.006510416666666667,0,0,0.006510416666666667,48.00781250000001,0)" xlink:href="#an"/><use transform="matrix(0.006510416666666667,0,0,0.006510416666666667,56.00911458333335,0)" xlink:href="#al"/><use transform="matrix(0.006510416666666667,0,0,0.006510416666666667,64.01041666666667,0)" xlink:href="#aT"/></g><path d="M137 0v-1349h968v228H432v324h612v228H432v341h714V0H137" id="aW"/><path d="M874 0L612-392 348 0H49l406-559-387-523h303l241 354 240-354h305L770-562 1179 0H874" id="aX"/><g id="y"><use transform="matrix(0.008680555555555556,0,0,0.008680555555555556,0,0)" xlink:href="#aW"/><use transform="matrix(0.008680555555555556,0,0,0.008680555555555556,10.668402777777779,0)" xlink:href="#aX"/><use transform="matrix(0.008680555555555556,0,0,0.008680555555555556,21.336805555555557,0)" xlink:href="#au"/><use transform="matrix(0.008680555555555556,0,0,0.008680555555555556,32.005208333333336,0)" xlink:href="#ar"/><use transform="matrix(0.008680555555555556,0,0,0.008680555555555556,42.673611111111114,0)" xlink:href="#aE"/><use transform="matrix(0.008680555555555556,0,0,0.008680555555555556,53.34201388888889,0)" xlink:href="#aB"/><use transform="matrix(0.008680555555555556,0,0,0.008680555555555556,64.01041666666667,0)" xlink:href="#au"/><use transform="matrix(0.008680555555555556,0,0,0.008680555555555556,74.67881944444446,0)" xlink:href="#as"/><use transform="matrix(0.008680555555555556,0,0,0.008680555555555556,85.34722222222223,0)" xlink:href="#ar"/></g><path d="M794-190h353V0H118v-190h395v-702H223v-190h571v892zM513-1277v-207h281v207H513" id="aY"/><g id="z"><use transform="matrix(0.008680555555555556,0,0,0.008680555555555556,0,0)" xlink:href="#aw"/><use transform="matrix(0.008680555555555556,0,0,0.008680555555555556,10.668402777777779,0)" xlink:href="#aA"/><use transform="matrix(0.008680555555555556,0,0,0.008680555555555556,21.336805555555557,0)" xlink:href="#aI"/><use transform="matrix(0.008680555555555556,0,0,0.008680555555555556,32.005208333333336,0)" xlink:href="#aY"/><use transform="matrix(0.008680555555555556,0,0,0.008680555555555556,42.673611111111114,0)" xlink:href="#at"/><use transform="matrix(0.008680555555555556,0,0,0.008680555555555556,53.34201388888889,0)" xlink:href="#aJ"/></g><path d="M157-1349h916v228H757v893h316V0H157v-228h316v-893H157v-228" id="aZ"/><path d="M427-171c3 195 2 397 2 596H148V-846c1-83-4-168-8-236h272c10 49 14 118 15 176h4c59-114 151-197 316-197 291 0 385 259 385 560 0 243-65 433-220 521-50 28-109 42-176 42-162-2-253-78-309-191zm69-661c-91 113-92 463-1 586 46 62 145 101 225 54 96-57 118-191 119-351 0-123-18-215-53-276-46-82-128-115-220-74-25 12-48 33-70 61" id="ba"/><g id="A"><use transform="matrix(0.008680555555555556,0,0,0.008680555555555556,0,0)" xlink:href="#aZ"/><use transform="matrix(0.008680555555555556,0,0,0.008680555555555556,10.668402777777779,0)" xlink:href="#at"/><use transform="matrix(0.008680555555555556,0,0,0.008680555555555556,21.336805555555557,0)" xlink:href="#ba"/><use transform="matrix(0.008680555555555556,0,0,0.008680555555555556,32.005208333333336,0)" xlink:href="#aG"/><use transform="matrix(0.008680555555555556,0,0,0.008680555555555556,42.673611111111114,0)" xlink:href="#au"/></g><path d="M934-1102c199 0 220 177 220 381V0H926c-2-260 10-533-4-785-4-72-14-138-83-138-34 0-61 27-81 81s-29 134-29 241V0H501c-2-260 9-533-5-785-4-72-13-138-82-138-46 0-65 47-80 93-21 67-30 155-30 248V0H75c-3-360 6-732-6-1082h209c6 50 3 123 8 175 36-100 83-195 216-195 135 0 166 79 196 196 42-105 93-196 236-196" id="bb"/><g id="B"><use transform="matrix(0.008680555555555556,0,0,0.008680555555555556,0,0)" xlink:href="#aK"/><use transform="matrix(0.008680555555555556,0,0,0.008680555555555556,10.668402777777779,0)" xlink:href="#au"/><use transform="matrix(0.008680555555555556,0,0,0.008680555555555556,21.336805555555557,0)" xlink:href="#ar"/><use transform="matrix(0.008680555555555556,0,0,0.008680555555555556,32.005208333333336,0)" xlink:href="#aA"/><use transform="matrix(0.008680555555555556,0,0,0.008680555555555556,42.673611111111114,0)" xlink:href="#aE"/><use transform="matrix(0.008680555555555556,0,0,0.008680555555555556,53.34201388888889,0)" xlink:href="#bb"/></g><path d="M762-1121V0H467v-1121H61v-228h1107v228H762" id="bc"/><path d="M616-1349c316 3 526 118 526 426 0 301-201 442-514 447H431V0H136v-1349h480zm-25 646c164 1 254-62 254-215 0-157-99-200-262-202H431v417h160" id="bd"/><g id="C"><use transform="matrix(0.008680555555555556,0,0,0.008680555555555556,0,0)" xlink:href="#aQ"/><use transform="matrix(0.008680555555555556,0,0,0.008680555555555556,10.668402777777779,0)" xlink:href="#bc"/><use transform="matrix(0.008680555555555556,0,0,0.008680555555555556,21.336805555555557,0)" xlink:href="#bc"/><use transform="matrix(0.008680555555555556,0,0,0.008680555555555556,32.005208333333336,0)" xlink:href="#bd"/></g><g id="D"><use transform="matrix(0.008680555555555556,0,0,0.008680555555555556,0,0)" xlink:href="#aH"/><use transform="matrix(0.008680555555555556,0,0,0.008680555555555556,10.668402777777779,0)" xlink:href="#as"/><use transform="matrix(0.008680555555555556,0,0,0.008680555555555556,21.336805555555557,0)" xlink:href="#aI"/><use transform="matrix(0.008680555555555556,0,0,0.008680555555555556,32.005208333333336,0)" xlink:href="#at"/><use transform="matrix(0.008680555555555556,0,0,0.008680555555555556,42.673611111111114,0)" xlink:href="#az"/><use transform="matrix(0.008680555555555556,0,0,0.008680555555555556,53.34201388888889,0)" xlink:href="#as"/><use transform="matrix(0.008680555555555556,0,0,0.008680555555555556,64.01041666666667,0)" xlink:href="#aE"/><use transform="matrix(0.008680555555555556,0,0,0.008680555555555556,74.67881944444446,0)" xlink:href="#aJ"/><use transform="matrix(0.008680555555555556,0,0,0.008680555555555556,85.34722222222223,0)" xlink:href="#aA"/><use transform="matrix(0.008680555555555556,0,0,0.008680555555555556,96.015625,0)" xlink:href="#ar"/></g><g id="E"><use transform="matrix(0.008680555555555556,0,0,0.008680555555555556,0,0)" xlink:href="#aH"/><use transform="matrix(0.008680555555555556,0,0,0.008680555555555556,10.668402777777779,0)" xlink:href="#as"/><use transform="matrix(0.008680555555555556,0,0,0.008680555555555556,21.336805555555557,0)" xlink:href="#aI"/><use transform="matrix(0.008680555555555556,0,0,0.008680555555555556,32.005208333333336,0)" xlink:href="#at"/><use transform="matrix(0.008680555555555556,0,0,0.008680555555555556,42.673611111111114,0)" xlink:href="#az"/><use transform="matrix(0.008680555555555556,0,0,0.008680555555555556,53.34201388888889,0)" xlink:href="#as"/><use transform="matrix(0.008680555555555556,0,0,0.008680555555555556,64.01041666666667,0)" xlink:href="#aE"/><use transform="matrix(0.008680555555555556,0,0,0.008680555555555556,74.67881944444446,0)" xlink:href="#aJ"/></g><g id="F"><use transform="matrix(0.008680555555555556,0,0,0.008680555555555556,0,0)" xlink:href="#aM"/><use transform="matrix(0.008680555555555556,0,0,0.008680555555555556,10.668402777777779,0)" xlink:href="#aG"/><use transform="matrix(0.008680555555555556,0,0,0.008680555555555556,21.336805555555557,0)" xlink:href="#aA"/><use transform="matrix(0.008680555555555556,0,0,0.008680555555555556,32.005208333333336,0)" xlink:href="#aG"/><use transform="matrix(0.008680555555555556,0,0,0.008680555555555556,42.673611111111114,0)" xlink:href="#aA"/></g><path d="M240-401c-28-1-68 8-86 16V0H71v-679l83-14v236c24-10 61-17 94-17 134-1 184 80 184 212V0h-82v-244c-2-104-15-154-110-157" id="be"/><path d="M330 11c-128 0-169-64-169-190v-216H63v-69h98v-130l82-14v144h196v69H243v216c-2 76 19 120 95 116 46 0 70-8 100-22l12 70c-28 11-72 26-120 26" id="bf"/><path d="M215-331c8-67-42-90-99-66V0H41v-451c72-29 163-35 211 12 29-23 59-35 92-35 81 5 120 59 120 144V0h-75v-332c9-67-67-98-105-49 12 58 4 135 6 202h-75v-152" id="bg"/><path d="M450-15c-29 14-68 25-112 26-118 3-150-73-150-190v-439H54v-70h216v509c0 67 9 117 75 116 35 1 72-11 93-22" id="bh"/><g id="G"><use transform="matrix(0.022222222222222223,0,0,0.022222222222222223,0,0)" xlink:href="#be"/><use transform="matrix(0.022222222222222223,0,0,0.022222222222222223,11.11111111111111,0)" xlink:href="#bf"/><use transform="matrix(0.022222222222222223,0,0,0.022222222222222223,22.22222222222222,0)" xlink:href="#bg"/><use transform="matrix(0.022222222222222223,0,0,0.022222222222222223,33.33333333333333,0)" xlink:href="#bh"/></g><path d="M125-232c-6 132 95 197 221 160v-294c-18-17-60-37-97-36-94 3-120 75-124 170zm114-243c42-1 84 13 107 28v-232l83-14v680C384 0 326 12 262 11 116 6 40-84 40-232c0-141 62-236 199-243" id="bi"/><path d="M249-475c140 0 211 99 211 243S389 11 249 11C111 11 40-89 40-232s70-243 209-243zm0 412c85-1 128-76 126-169 1-94-41-169-126-170-84 1-126 77-124 170-1 92 40 168 124 169" id="bj"/><path d="M302 11C143 7 49-71 49-231c0-184 132-262 323-239 22 3 47 8 72 16l-19 71c-38-14-69-18-116-19-111 2-173 58-175 171 1 114 66 166 179 168 51-1 84-4 126-19l12 69c-45 17-89 24-149 24" id="bk"/><path d="M261-63c30 0 61-4 85-9v-392h83v451C382-2 320 12 253 10 119 11 68-70 68-203v-261h82v243c2 103 19 155 111 158" id="bl"/><path d="M40-231c0-148 78-244 219-244 146 0 204 103 196 265H123c6 96 65 147 167 147 49 1 93-9 122-22l11 70c-30 14-91 28-142 26C126 7 40-77 40-231zm331-46c15-118-134-169-206-88-21 21-35 53-40 88h246" id="bm"/><path d="M240-401c-29 0-61 4-86 9V0H71v-451c53-13 113-23 173-23 130 2 189 66 188 202V0h-82v-257c1-89-24-145-110-144" id="bn"/><g id="H"><use transform="matrix(0.022222222222222223,0,0,0.022222222222222223,0,0)" xlink:href="#bi"/><use transform="matrix(0.022222222222222223,0,0,0.022222222222222223,11.11111111111111,0)" xlink:href="#bj"/><use transform="matrix(0.022222222222222223,0,0,0.022222222222222223,22.22222222222222,0)" xlink:href="#bk"/><use transform="matrix(0.022222222222222223,0,0,0.022222222222222223,33.33333333333333,0)" xlink:href="#bl"/><use transform="matrix(0.022222222222222223,0,0,0.022222222222222223,44.44444444444444,0)" xlink:href="#bg"/><use transform="matrix(0.022222222222222223,0,0,0.022222222222222223,55.55555555555556,0)" xlink:href="#bm"/><use transform="matrix(0.022222222222222223,0,0,0.022222222222222223,66.66666666666667,0)" xlink:href="#bn"/><use transform="matrix(0.022222222222222223,0,0,0.022222222222222223,77.77777777777779,0)" xlink:href="#bf"/></g><path fill="#333" d="M73-131c43 16 97 39 155 38 54 2 112-6 86-55-81-62-245-43-248-187-3-161 224-170 355-120l-19 104c-31-9-86-31-134-28-69-10-105 42-52 71 87 46 224 47 226 178C446 42 172 30 54-28" id="bo"/><path fill="#333" d="M322 11c-129 5-179-56-179-186v-193H36v-102h107v-118l123-20v138h197v102H266v190c-1 53 17 84 70 82 50 1 85-8 119-25l17 106c-40 17-96 26-150 26" id="bp"/><path fill="#333" d="M251-482c145 0 221 99 221 246 0 148-75 249-221 249S29-87 29-236c0-147 77-246 222-246zm0 107c-130-7-133 286-2 281 129 6 134-286 2-281" id="bq"/><path fill="#333" d="M89-439c95-41 252-55 370-20l-22 114c-64-16-157-24-224-4V0H89v-439" id="br"/><path fill="#333" d="M289 11C127 8 31-69 31-231c0-150 79-246 222-251 160-6 226 116 210 287H158c-1 116 178 113 263 75l17 105c-44 15-89 26-149 26zm57-291c16-110-152-134-180-37-4 12-7 24-8 37h188" id="bs"/><g id="I"><use transform="matrix(0.017777777777777778,0,0,0.017777777777777778,0,0)" xlink:href="#bo"/><use transform="matrix(0.017777777777777778,0,0,0.017777777777777778,8.88888888888889,0)" xlink:href="#bp"/><use transform="matrix(0.017777777777777778,0,0,0.017777777777777778,17.77777777777778,0)" xlink:href="#bq"/><use transform="matrix(0.017777777777777778,0,0,0.017777777777777778,26.666666666666668,0)" xlink:href="#br"/><use transform="matrix(0.017777777777777778,0,0,0.017777777777777778,35.55555555555556,0)" xlink:href="#bs"/></g><g id="J"><use transform="matrix(0.008680555555555556,0,0,0.008680555555555556,0,0)" xlink:href="#aq"/><use transform="matrix(0.008680555555555556,0,0,0.008680555555555556,10.668402777777779,0)" xlink:href="#aY"/><use transform="matrix(0.008680555555555556,0,0,0.008680555555555556,21.336805555555557,0)" xlink:href="#az"/><use transform="matrix(0.008680555555555556,0,0,0.008680555555555556,32.005208333333336,0)" xlink:href="#au"/><use transform="matrix(0.008680555555555556,0,0,0.008680555555555556,42.673611111111114,0)" xlink:href="#aA"/><use transform="matrix(0.008680555555555556,0,0,0.008680555555555556,53.34201388888889,0)" xlink:href="#ar"/></g><path d="M242-277c-29 104-5 213 109 207 134-7 174-78 203-199l102-424h97c-46 180-78 373-137 542C578-42 490 15 336 15c-167 0-228-133-189-298l98-410h97" id="bt"/><path d="M374-275c-41 3-86 2-129 2L180 0H83l164-684c174-36 423-28 419 161-3 131-85 202-196 233 47 84 91 189 122 290h-99c-34-95-74-193-119-275zm192-239c1-80-71-103-153-104-47 0-76 1-86 4l-63 262c156 3 300-11 302-162" id="bu"/><path d="M506-81L487 0H83l166-693h97L199-81h307" id="bv"/><path d="M76-101c66 49 281 64 245-71-48-78-189-65-189-195 0-160 207-201 346-139l-35 76c-61-35-225-49-221 54 2 65 84 75 130 106 37 25 65 53 65 114C417 25 176 45 40-25" id="bw"/><g id="K"><use transform="matrix(0.013333333333333327,0,0,0.013333333333333327,0,0)" xlink:href="#bt"/><use transform="matrix(0.013333333333333327,0,0,0.013333333333333327,8.93333333333333,0)" xlink:href="#bu"/><use transform="matrix(0.013333333333333327,0,0,0.013333333333333327,17.106666666666662,0)" xlink:href="#bv"/><use transform="matrix(0.013333333333333327,0,0,0.013333333333333327,23.91999999999999,0)" xlink:href="#bw"/></g><path d="M204-130c-8 91 135 62 178 35l7 79c-27 15-84 30-133 30C115 14 94-92 125-220l107-445 97-16-39 161h177l-19 78H271c-21 102-57 202-67 312" id="bx"/><path d="M402-533c220 0 201 293 106 422C460-45 390 13 277 13 57 13 76-280 171-409c48-66 118-124 231-124zM208-272c-26 89-24 216 85 206 134-12 191-138 191-277 0-69-26-114-98-111-106 5-153 94-178 182" id="by"/><g id="L"><use transform="matrix(0.013333333333333327,0,0,0.013333333333333327,0,0)" xlink:href="#bx"/><use transform="matrix(0.013333333333333327,0,0,0.013333333333333327,5.173333333333331,0)" xlink:href="#by"/></g><path d="M457-530c16 0 30 2 45 4l56-234 97-16c-50 210-104 416-150 629-11 50-2 100 14 141L437 6c-7-15-13-32-17-53-33 28-83 61-150 60-117-3-170-71-170-187 0-218 132-348 357-356zM193-184c0 68 27 117 96 118 58 1 94-29 123-58 14-117 48-216 71-325-183-15-290 96-290 265" id="bz"/><path d="M255-108c84-120 157-263 211-412h84c0 142 10 284 25 412 84-114 164-263 213-412h95C817-323 708-144 590 0h-83c-14-114-28-230-30-354C420-228 346-105 269 0h-83c-30-151-47-331-49-520h93c4 137 8 288 25 412" id="bA"/><path d="M450-246c30-89 40-205-84-205-31 0-67 4-89 11L171 0H78l120-500c52-16 131-28 195-31 150-7 189 123 155 265L484 0h-93" id="bB"/><path d="M259 9C123 17 94-108 125-236l126-524 97-16c-47 197-94 393-141 590-15 67 4 117 73 119" id="bC"/><path d="M510-191c-16 59-17 133 6 185L434 6c-7-15-14-34-18-53-33 28-83 62-150 60-115-3-166-72-166-187 0-220 136-357 362-357 41 0 97 9 125 26zm-317 7c0 68 23 117 92 118 58 1 95-30 124-60 13-117 48-213 70-321-7-3-27-4-37-4-158 9-249 109-249 267" id="bD"/><g id="M"><use transform="matrix(0.013333333333333327,0,0,0.013333333333333327,0,0)" xlink:href="#bz"/><use transform="matrix(0.013333333333333327,0,0,0.013333333333333327,7.346666666666663,0)" xlink:href="#by"/><use transform="matrix(0.013333333333333327,0,0,0.013333333333333327,14.74666666666666,0)" xlink:href="#bA"/><use transform="matrix(0.013333333333333327,0,0,0.013333333333333327,25.293333333333322,0)" xlink:href="#bB"/><use transform="matrix(0.013333333333333327,0,0,0.013333333333333327,32.69333333333332,0)" xlink:href="#bC"/><use transform="matrix(0.013333333333333327,0,0,0.013333333333333327,36.30666666666666,0)" xlink:href="#by"/><use transform="matrix(0.013333333333333327,0,0,0.013333333333333327,43.75999999999999,0)" xlink:href="#bD"/><use transform="matrix(0.013333333333333327,0,0,0.013333333333333327,51.066666666666656,0)" xlink:href="#bz"/></g><path d="M171 0H78l125-520h93zm174-681c8 72-120 96-120 14-10-77 121-97 120-14" id="bE"/><path d="M270 13c-117-1-170-71-170-187 0-220 136-357 362-357 45 0 99 10 131 29L428 185h-93l48-201c-29 15-69 29-113 29zm-77-197C181-57 326-38 404-103l83-343c-19-3-34-5-45-5-158 9-234 110-249 267" id="bF"/><path d="M423-49c-37 33-85 59-155 62-146 7-173-133-141-267l64-266h93c-24 101-46 199-72 300-18 72-9 153 74 153 59 0 102-31 130-62 2-25 4-46 10-70l77-321h93c-29 125-64 246-88 374-10 51-1 99 15 140L441 6c-7-16-15-35-18-55" id="bG"/><path d="M469-396c0-65-92-67-141-42-62 31-103 91-122 165 100-5 196-9 244-63 13-15 19-35 19-60zm1 373C433-5 366 15 301 13c-125-3-199-65-199-186 0-158 70-272 176-329 37-20 80-30 127-30 93 1 155 41 155 129 0 183-189 191-366 201-10 96 42 136 136 134 51-2 99-15 132-34" id="bH"/><g id="N"><use transform="matrix(0.013333333333333327,0,0,0.013333333333333327,0,0)" xlink:href="#bt"/><use transform="matrix(0.013333333333333327,0,0,0.013333333333333327,8.93333333333333,0)" xlink:href="#bB"/><use transform="matrix(0.013333333333333327,0,0,0.013333333333333327,16.33333333333333,0)" xlink:href="#bE"/><use transform="matrix(0.013333333333333327,0,0,0.013333333333333327,19.70666666666666,0)" xlink:href="#bF"/><use transform="matrix(0.013333333333333327,0,0,0.013333333333333327,27.106666666666655,0)" xlink:href="#bG"/><use transform="matrix(0.013333333333333327,0,0,0.013333333333333327,34.49333333333332,0)" xlink:href="#bH"/></g><g id="O"><use transform="matrix(0.013333333333333327,0,0,0.013333333333333327,0,0)" xlink:href="#bt"/><use transform="matrix(0.013333333333333327,0,0,0.013333333333333327,8.93333333333333,0)" xlink:href="#bu"/><use transform="matrix(0.013333333333333327,0,0,0.013333333333333327,17.106666666666662,0)" xlink:href="#bv"/><use transform="matrix(0.013333333333333327,0,0,0.013333333333333327,23.91999999999999,0)" xlink:href="#bw"/></g><path d="M800 425c-1-198 1-404 0-596C746-55 645 20 483 20 183 20 97-237 97-543c0-242 74-429 227-518 49-28 105-42 168-42 163 0 248 85 306 197h4c1-59 6-126 15-176h272c-4 67-9 153-8 236V425H800zm-66-671c93-114 91-467-2-586-35-45-76-79-141-79-64 0-113 31-149 92-69 115-66 440 4 561 39 68 130 111 220 70 25-11 46-31 68-58" id="bI"/><g id="P"><use transform="matrix(0.008680555555555556,0,0,0.008680555555555556,0,0)" xlink:href="#av"/><use transform="matrix(0.008680555555555556,0,0,0.008680555555555556,10.668402777777779,0)" xlink:href="#at"/><use transform="matrix(0.008680555555555556,0,0,0.008680555555555556,21.336805555555557,0)" xlink:href="#aY"/><use transform="matrix(0.008680555555555556,0,0,0.008680555555555556,32.005208333333336,0)" xlink:href="#bI"/><use transform="matrix(0.008680555555555556,0,0,0.008680555555555556,42.673611111111114,0)" xlink:href="#aG"/><use transform="matrix(0.008680555555555556,0,0,0.008680555555555556,53.34201388888889,0)" xlink:href="#aA"/></g><g id="Q"><use transform="matrix(0.008680555555555556,0,0,0.008680555555555556,0,0)" xlink:href="#av"/><use transform="matrix(0.008680555555555556,0,0,0.008680555555555556,10.668402777777779,0)" xlink:href="#aw"/><use transform="matrix(0.008680555555555556,0,0,0.008680555555555556,21.336805555555557,0)" xlink:href="#ax"/></g><g id="R"><use transform="matrix(0.008680555555555556,0,0,0.008680555555555556,0,0)" xlink:href="#aQ"/><use transform="matrix(0.008680555555555556,0,0,0.008680555555555556,10.668402777777779,0)" xlink:href="#as"/><use transform="matrix(0.008680555555555556,0,0,0.008680555555555556,21.336805555555557,0)" xlink:href="#aR"/><use transform="matrix(0.008680555555555556,0,0,0.008680555555555556,32.005208333333336,0)" xlink:href="#au"/></g><g id="S"><use transform="matrix(0.008680555555555556,0,0,0.008680555555555556,0,0)" xlink:href="#aW"/><use transform="matrix(0.008680555555555556,0,0,0.008680555555555556,10.668402777777779,0)" xlink:href="#aX"/><use transform="matrix(0.008680555555555556,0,0,0.008680555555555556,21.336805555555557,0)" xlink:href="#au"/><use transform="matrix(0.008680555555555556,0,0,0.008680555555555556,32.005208333333336,0)" xlink:href="#ar"/><use transform="matrix(0.008680555555555556,0,0,0.008680555555555556,42.673611111111114,0)" xlink:href="#aE"/><use transform="matrix(0.008680555555555556,0,0,0.008680555555555556,53.34201388888889,0)" xlink:href="#aB"/><use transform="matrix(0.008680555555555556,0,0,0.008680555555555556,64.01041666666667,0)" xlink:href="#au"/><use transform="matrix(0.008680555555555556,0,0,0.008680555555555556,74.67881944444446,0)" xlink:href="#as"/><use transform="matrix(0.008680555555555556,0,0,0.008680555555555556,85.34722222222223,0)" xlink:href="#ar"/></g><path d="M143 212c82 12 185 12 233-31 50-45 83-117 110-192L38-1082h297c100 284 211 557 291 861 72-305 176-578 270-861h294L742 57c-80 192-156 368-417 368-60 0-131-4-182-13V212" id="bJ"/><g id="T"><use transform="matrix(0.008680555555555556,0,0,0.008680555555555556,0,0)" xlink:href="#aq"/><use transform="matrix(0.008680555555555556,0,0,0.008680555555555556,10.668402777777779,0)" xlink:href="#aE"/><use transform="matrix(0.008680555555555556,0,0,0.008680555555555556,21.336805555555557,0)" xlink:href="#aB"/><use transform="matrix(0.008680555555555556,0,0,0.008680555555555556,32.005208333333336,0)" xlink:href="#au"/><use transform="matrix(0.008680555555555556,0,0,0.008680555555555556,42.673611111111114,0)" xlink:href="#as"/><use transform="matrix(0.008680555555555556,0,0,0.008680555555555556,53.34201388888889,0)" xlink:href="#ar"/><use transform="matrix(0.008680555555555556,0,0,0.008680555555555556,64.01041666666667,0)" xlink:href="#bJ"/></g><g id="U"><use transform="matrix(0.013333333333333327,0,0,0.013333333333333327,0,0)" xlink:href="#bt"/><use transform="matrix(0.013333333333333327,0,0,0.013333333333333327,8.93333333333333,0)" xlink:href="#bu"/><use transform="matrix(0.013333333333333327,0,0,0.013333333333333327,17.106666666666662,0)" xlink:href="#bv"/><use transform="matrix(0.013333333333333327,0,0,0.013333333333333327,23.91999999999999,0)" xlink:href="#bw"/></g><path fill="#333" d="M165-147c-1 70 93 61 158 56v-108c-62-7-157-16-158 52zM88-461c35-12 101-22 152-21 134-1 201 59 201 191v280C391-1 312 13 242 11 124 11 44-27 44-144c-2-138 147-160 279-138 3-66-29-98-98-97-42 0-91 7-120 17" id="bK"/><path fill="#333" d="M237-374c-68 2-83 60-84 136 1 76 25 143 99 143 21 0 36-1 55-4v-256c-18-10-43-19-70-19zm-21-106c34 0 69 8 91 21v-214l123-21v680C386 1 311 11 251 11 103 13 28-85 28-232c0-140 55-247 188-248" id="bL"/><g id="V"><use transform="matrix(0.017777777777777778,0,0,0.017777777777777778,0,0)" xlink:href="#br"/><use transform="matrix(0.017777777777777778,0,0,0.017777777777777778,8.88888888888889,0)" xlink:href="#bs"/><use transform="matrix(0.017777777777777778,0,0,0.017777777777777778,17.77777777777778,0)" xlink:href="#bK"/><use transform="matrix(0.017777777777777778,0,0,0.017777777777777778,26.666666666666668,0)" xlink:href="#bL"/></g></defs></g></svg>