<svg xmlns="http://www.w3.org/2000/svg" xmlns:xlink="http://www.w3.org/1999/xlink" xmlns:lucid="lucid" width="1854.12" height="966.96"><g transform="translate(226.47432801951038 -469.7544739323735)" lucid:page-tab-id="GOdUfmvH6LWl"><path d="M-500 0h2500v1500H-500z" fill="#f2f3f5"/><path d="M734.13 648.35a6 6 0 0 1 6-6h803.16a6 6 0 0 1 6 6v705a6 6 0 0 1-6 6H740.12a6 6 0 0 1-6-6z" stroke="#000" stroke-opacity="0" stroke-width="2" fill="#dfe3e8" class="lucid-layer" lucid:layer-id="HOlUaB2Eo4~H" display="block"/><g class="lucid-layer" lucid:layer-id="wPlUgMZbG_05" display="block"><path d="M734.13 647.84a6 6 0 0 1 6-6h348.63a6 6 0 0 1 6 6v8a14.48 14.48 0 0 1-4.24 10.24l-1.52 1.5a14.48 14.48 0 0 1-10.24 4.25H740.13a6 6 0 0 1-6-6z" fill="#fff"/><path d="M1094.76 641.84v20l-10 10H734.13" stroke="#3a414a" stroke-width="2" fill="none"/><path d="M734.13 647.84a6 6 0 0 1 6-6h803.16a6 6 0 0 1 6 6v705.5a6 6 0 0 1-6 6H740.12a6 6 0 0 1-6-6z" stroke="#3a414a" stroke-width="2" fill="none"/><use xlink:href="#a" transform="matrix(1,0,0,1,742.1272303887392,641.8352654867065) translate(106.689453125 19.7900390625)"/><use xlink:href="#b" transform="matrix(1,0,0,1,742.1272303887392,641.8352654867065) translate(149.896484375 19.7900390625)"/><path d="M-188.6 495.75a6 6 0 0 1 6-6h348.64a6 6 0 0 1 6 6v8A14.48 14.48 0 0 1 167.8 514l-1.52 1.5a14.48 14.48 0 0 1-10.24 4.25H-182.6a6 6 0 0 1-6-6z" fill="#fff"/><path d="M172.04 489.75v20l-10 10H-188.6" stroke="#3a414a" stroke-width="2" fill="none"/><path d="M-188.6 495.75a6 6 0 0 1 6-6h1784.25a6 6 0 0 1 6 6v914.97a6 6 0 0 1-6 6H-182.6a6 6 0 0 1-6-6z" stroke="#3a414a" stroke-width="2" fill="none"/><use xlink:href="#c" transform="matrix(1,0,0,1,-180.59168557431894,489.7544739323735) translate(133.69384765625 19.7900390625)"/><path d="M1043.45 818.7h-11M998.45 818.7h-5" stroke="#3a414a" stroke-width="2" fill="none"/><path d="M1018.45 832.7c-7.73 0-14-6.28-14-14 0-7.74 6.27-14 14-14s14 6.26 14 14c0 7.72-6.27 14-14 14z" stroke="#3a414a" stroke-width="2" fill="#fff"/><path d="M1018.45 798.7c-11.05 0-20 8.94-20 20 0 11.04 8.95 20 20 20" stroke="#3a414a" stroke-width="2" fill="none"/><path d="M1043.45 818.7a.8.8 0 0 1-.8.8h-9.4a.8.8 0 0 1-.8-.8.8.8 0 0 1 .8-.8h9.4a.8.8 0 0 1 .8.8z" fill="none"/><path d="M1044.45 818.7h8.63" stroke="#3a414a" stroke-width="2" fill="none"/><path d="M1044.47 819.7h-4.02 3v-2h1.02zM1054.1 819.7h-1.04v-2h1.03z" stroke="#3a414a" stroke-width=".05" fill="#3a414a"/><path d="M943.8 818.7h48.65" stroke="#3a414a" stroke-width="2" fill="none"/><path d="M943.84 819.7h-1.03v-2h1.04zM993.45 819.7h-1.03v-2h1.03z" stroke="#3a414a" stroke-width=".05" fill="#3a414a"/><path d="M1226.72 818.7h11M1271.72 818.7h5" stroke="#3a414a" stroke-width="2" fill="none"/><path d="M1251.72 804.7c7.73 0 14 6.26 14 14 0 7.72-6.27 14-14 14s-14-6.28-14-14c0-7.74 6.27-14 14-14z" stroke="#3a414a" stroke-width="2" fill="#fff"/><path d="M1251.72 838.7c11.05 0 20-8.96 20-20 0-11.06-8.95-20-20-20" stroke="#3a414a" stroke-width="2" fill="none"/><path d="M1226.72 818.7a.8.8 0 0 1 .8-.8h9.4a.8.8 0 0 1 .8.8.8.8 0 0 1-.8.8h-9.4a.8.8 0 0 1-.8-.8z" fill="none"/><path d="M1217.1 818.7h8.62" stroke="#3a414a" stroke-width="2" fill="none"/><path d="M1217.1 819.7h-1v-2h1zM1226.72 819.7h-1.02v-2h1.02z" stroke="#3a414a" stroke-width=".05" fill="#3a414a"/><path d="M1332.36 818.7h-54.64" stroke="#3a414a" stroke-width="2" fill="none"/><path d="M1333.36 819.7h-1.02v-2h1.02zM1277.75 819.7h-1.03v-2h1.03z" stroke="#3a414a" stroke-width=".05" fill="#3a414a"/><path d="M1227.98 1031.66h11M1272.98 1031.66h5" stroke="#3a414a" stroke-width="2" fill="none"/><path d="M1252.98 1017.66c7.73 0 14 6.27 14 14 0 7.74-6.27 14-14 14-7.74 0-14-6.26-14-14 0-7.73 6.26-14 14-14z" stroke="#3a414a" stroke-width="2" fill="#fff"/><path d="M1252.98 1051.66c11.04 0 20-8.95 20-20 0-11.04-8.96-20-20-20" stroke="#3a414a" stroke-width="2" fill="none"/><path d="M1227.98 1031.66a.8.8 0 0 1 .8-.8h9.4a.8.8 0 0 1 .8.8.8.8 0 0 1-.8.8h-9.4a.8.8 0 0 1-.8-.8z" fill="none"/><path d="M1010.27 1031.98h-11M965.27 1031.98h-5" stroke="#3a414a" stroke-width="2" fill="none"/><path d="M985.27 1045.98c-7.73 0-14-6.27-14-14s6.27-14 14-14 14 6.27 14 14-6.27 14-14 14z" stroke="#3a414a" stroke-width="2" fill="#fff"/><path d="M985.27 1011.98c-11.05 0-20 8.95-20 20 0 11.04 8.95 20 20 20" stroke="#3a414a" stroke-width="2" fill="none"/><path d="M1010.27 1031.98a.8.8 0 0 1-.8.8h-9.4a.8.8 0 0 1-.8-.8.8.8 0 0 1 .8-.8h9.4a.8.8 0 0 1 .8.8z" fill="none"/><path d="M943.8 1031.98h15.47" stroke="#3a414a" stroke-width="2" fill="none"/><path d="M943.84 1032.98h-1.03v-2h1.04zM960.27 1032.98h-1.03v-2h1.03z" stroke="#3a414a" stroke-width=".05" fill="#3a414a"/><path d="M1011.27 1031.97l41.82-.3" stroke="#3a414a" stroke-width="2" fill="none"/><path d="M1011.3 1032.97l-4.02.03v-.02h3v-2h1zM1054.1 1032.67h-1.03l-.02-2h1.04z" stroke="#3a414a" stroke-width=".05" fill="#3a414a"/><path d="M1226.98 1031.66h-9.9" stroke="#3a414a" stroke-width="2" fill="none"/><path d="M1230.98 1030.66h-3v2h-1.03v-2h4.03zM1217.1 1032.66h-1v-2h1z" stroke="#3a414a" stroke-width=".05" fill="#3a414a"/><path d="M1278.98 1031.66h54.1" stroke="#3a414a" stroke-width="2" fill="none"/><path d="M1279 1032.66h-1.02v-2h-3 4.02zM1334.1 1032.66h-1.04v-2h1.03z" stroke="#3a414a" stroke-width=".05" fill="#3a414a"/><path d="M1414.36 896.2v11M1414.36 941.2v5" stroke="#3a414a" stroke-width="2" fill="none"/><path d="M1428.36 921.2c0 7.72-6.27 14-14 14s-14-6.28-14-14c0-7.74 6.27-14 14-14s14 6.26 14 14z" stroke="#3a414a" stroke-width="2" fill="#fff"/><path d="M1394.36 921.2c0 11.04 8.95 20 20 20 11.04 0 20-8.96 20-20" stroke="#3a414a" stroke-width="2" fill="none"/><path d="M1414.36 896.2a.8.8 0 0 1 .8.8v9.4a.8.8 0 0 1-.8.8.8.8 0 0 1-.8-.8V897a.8.8 0 0 1 .8-.8z" fill="none"/><path d="M1414.36 969.66V947.2" stroke="#3a414a" stroke-width="2" fill="none"/><path d="M1415.36 970.66h-2v-1.02h2zM1415.36 947.22h-2v-1.03h2z" stroke="#3a414a" stroke-width=".05" fill="#3a414a"/><path d="M1414.36 895.2v-14.51" stroke="#3a414a" stroke-width="2" fill="none"/><path d="M1415.36 899.2v-3h-2v-1.04h2zM1415.36 880.72h-2v-1.03h2z" stroke="#3a414a" stroke-width=".05" fill="#3a414a"/><path d="M779.8 818.7H715.1" stroke="#3a414a" stroke-width="2" fill="none"/><path d="M780.8 819.7h-1.02v-2h1.03zM715.1 819.7h-1.02v-2h-3 4.02z" stroke="#3a414a" stroke-width=".05" fill="#3a414a"/><path d="M714.08 818.7h-11M669.08 818.7h-5" stroke="#3a414a" stroke-width="2" fill="none"/><path d="M689.08 832.7c-7.73 0-14-6.26-14-14 0-7.73 6.27-14 14-14s14 6.27 14 14c0 7.74-6.27 14-14 14z" stroke="#3a414a" stroke-width="2" fill="#fff"/><path d="M689.08 798.7c-11.05 0-20 8.96-20 20 0 11.05 8.95 20 20 20" stroke="#3a414a" stroke-width="2" fill="none"/><path d="M714.08 818.7a.8.8 0 0 1-.8.8h-9.4a.8.8 0 0 1-.8-.8.8.8 0 0 1 .8-.8h9.4a.8.8 0 0 1 .8.8z" fill="none"/><path d="M663.08 818.7h-54.9" stroke="#3a414a" stroke-width="2" fill="none"/><path d="M664.08 819.7h-1.03v-2h1.03zM608.2 819.7h-1.02v-2h1.02z" stroke="#3a414a" stroke-width=".05" fill="#3a414a"/><path d="M479.03 756.7v-74.03" stroke="#3a414a" stroke-width="2" fill="none"/><path d="M480.03 757.7h-2v-1.04h2zM480.03 682.7h-2v-1.03h2z" stroke="#3a414a" stroke-width=".05" fill="#3a414a"/><path d="M576.43 756.7v-74.03" stroke="#3a414a" stroke-width="2" fill="none"/><path d="M577.43 757.7h-2v-1.04h2zM577.43 682.7h-2v-1.03h2z" stroke="#3a414a" stroke-width=".05" fill="#3a414a"/><path d="M416.1 818.68h-11M371.1 818.68h-5" stroke="#3a414a" stroke-width="2" fill="none"/><path d="M391.1 832.68c-7.73 0-14-6.27-14-14 0-7.74 6.27-14 14-14 7.74 0 14 6.26 14 14 0 7.73-6.26 14-14 14z" stroke="#3a414a" stroke-width="2" fill="#fff"/><path d="M391.1 798.68c-11.04 0-20 8.95-20 20 0 11.04 8.96 20 20 20" stroke="#3a414a" stroke-width="2" fill="none"/><path d="M416.1 818.68a.8.8 0 0 1-.8.8h-9.4a.8.8 0 0 1-.8-.8.8.8 0 0 1 .8-.8h9.4a.8.8 0 0 1 .8.8z" fill="none"/><path d="M417.1 818.68h27.08" stroke="#3a414a" stroke-width="2" fill="none"/><path d="M417.13 819.68h-4.02 3v-2h1.03zM445.18 819.7h-1.03v-2h1.03z" stroke="#3a414a" stroke-width=".05" fill="#3a414a"/><path d="M365.1 818.68h-28.6" stroke="#3a414a" stroke-width="2" fill="none"/><path d="M366.1 819.68h3-4.02v-2h1.03zM336.53 819.68h-1.02v-2h1.03z" stroke="#3a414a" stroke-width=".05" fill="#3a414a"/><path d="M138.63 818.7h-11M93.63 818.7h-5" stroke="#3a414a" stroke-width="2" fill="none"/><path d="M113.63 832.7c-7.73 0-14-6.26-14-14 0-7.73 6.27-14 14-14 7.74 0 14 6.27 14 14 0 7.74-6.26 14-14 14z" stroke="#3a414a" stroke-width="2" fill="#fff"/><path d="M113.63 798.7c-11.04 0-20 8.96-20 20 0 11.05 8.96 20 20 20" stroke="#3a414a" stroke-width="2" fill="none"/><path d="M138.63 818.7a.8.8 0 0 1-.8.8h-9.4a.8.8 0 0 1-.8-.8.8.8 0 0 1 .8-.8h9.4a.8.8 0 0 1 .8.8z" fill="none"/><path d="M139.63 818.7H172.5" stroke="#3a414a" stroke-width="2" fill="none"/><path d="M139.66 819.7h-1.03v-2h1.03zM173.5 819.7h-1.02v-2h1.03z" stroke="#3a414a" stroke-width=".05" fill="#3a414a"/><path d="M87.63 818.7H67.58a6 6 0 0 0-6 6v95a6 6 0 0 1-6 6H35.53" stroke="#3a414a" stroke-width="2" fill="none"/><path d="M88.63 819.7H87.6v-2h1.03zM35.55 926.7h-1.02v-2h1.02z" stroke="#3a414a" stroke-width=".05" fill="#3a414a"/><path d="M1415.1 1093.66v150.57a6 6 0 0 1-6 6h-192" stroke="#3a414a" stroke-width="2" fill="none"/><path d="M1416.1 1093.7h-2v-1.04h2zM1217.1 1251.23h-1v-2h1z" stroke="#3a414a" stroke-width=".05" fill="#3a414a"/><path d="M368.58 1031.66h11M413.58 1031.66h5" stroke="#3a414a" stroke-width="2" fill="none"/><path d="M393.58 1017.66c7.73 0 14 6.27 14 14 0 7.74-6.27 14-14 14s-14-6.26-14-14c0-7.73 6.27-14 14-14z" stroke="#3a414a" stroke-width="2" fill="#fff"/><path d="M393.58 1051.66c11.05 0 20-8.95 20-20 0-11.04-8.95-20-20-20" stroke="#3a414a" stroke-width="2" fill="none"/><path d="M368.58 1031.66a.8.8 0 0 1 .8-.8h9.4a.8.8 0 0 1 .8.8.8.8 0 0 1-.8.8h-9.4a.8.8 0 0 1-.8-.8z" fill="none"/><path d="M779.8 1032.3H600a.3.3 0 0 1-.3-.32.3.3 0 0 0-.32-.32h-179.8" stroke="#3a414a" stroke-width="2" fill="none"/><path d="M780.8 1033.3h-1.02v-2h1.03zM419.6 1032.66h-1.02v-2h1.03z" stroke="#3a414a" stroke-width=".05" fill="#3a414a"/><path d="M367.58 1031.66h-26.72" stroke="#3a414a" stroke-width="2" fill="none"/><path d="M368.58 1032.66h-1.02v-2h1.02zM340.9 1032.66h-1.04v-2h1.02z" stroke="#3a414a" stroke-width=".05" fill="#3a414a"/><path d="M138.63 1031.66h-11M93.63 1031.66h-5" stroke="#3a414a" stroke-width="2" fill="none"/><path d="M113.63 1045.66c-7.73 0-14-6.26-14-14 0-7.73 6.27-14 14-14 7.74 0 14 6.27 14 14 0 7.74-6.26 14-14 14z" stroke="#3a414a" stroke-width="2" fill="#fff"/><path d="M113.63 1011.66c-11.04 0-20 8.96-20 20 0 11.05 8.96 20 20 20" stroke="#3a414a" stroke-width="2" fill="none"/><path d="M138.63 1031.66a.8.8 0 0 1-.8.8h-9.4a.8.8 0 0 1-.8-.8.8.8 0 0 1 .8-.8h9.4a.8.8 0 0 1 .8.8z" fill="none"/><path d="M139.63 1031.66h37.23" stroke="#3a414a" stroke-width="2" fill="none"/><path d="M139.66 1032.66h-1.03v-2h1.03zM177.86 1032.66h-1.03v-2h1.03z" stroke="#3a414a" stroke-width=".05" fill="#3a414a"/><path d="M87.63 1031.67h-128.1a6 6 0 0 1-6-6V987.7" stroke="#3a414a" stroke-width="2" fill="none"/><path d="M88.63 1032.66h3-4.02v-2h1.03zM-45.47 987.72h-2v-1.03h2z" stroke="#3a414a" stroke-width=".05" fill="#3a414a"/><path d="M861.8 1093.98v150.25a6 6 0 0 0 6 6h185.3" stroke="#3a414a" stroke-width="2" fill="none"/><path d="M862.8 1094h-2v-1.02h2zM1054.1 1251.23h-1.04v-2h1.03z" stroke="#3a414a" stroke-width=".05" fill="#3a414a"/><path d="M781.8 764.7a6 6 0 0 1 6-6h148a6 6 0 0 1 6 6v108a6 6 0 0 1-6 6h-148a6 6 0 0 1-6-6z" stroke="#3a414a" stroke-width="2" fill="#fff"/><path d="M931.8 768.7h-15v20h15z" stroke="#3a414a" fill="#fff"/><path d="M921.8 772.02h-10v3.34h10zm0 10h-10v3.34h10z" stroke="#3a414a" fill="#fff"/><path d="M923.8 878.7a18 18 0 0 1 18-18 18 18 0 0 1 18 18 18 18 0 0 1-18 18 18 18 0 0 1-18-18z" stroke="#000" stroke-opacity="0" fill="#6f7681"/><path d="M945.8 884.9l.1-10.2-3.2 10.2h-1.84l-3.15-10.2.1 10.2h-2.3v-12.4h3.5l2.8 9.24 2.86-9.25h3.45v12.4h-2.3" fill="#fff"/><use xlink:href="#d" transform="matrix(1,0,0,1,781.8094093765783,758.6899344786959) translate(41.99881510416666 50.45030381944444)"/><use xlink:href="#e" transform="matrix(1,0,0,1,781.8094093765783,758.6899344786959) translate(60.668519965277774 50.45030381944444)"/><use xlink:href="#f" transform="matrix(1,0,0,1,781.8094093765783,758.6899344786959) translate(108.67633246527778 50.45030381944444)"/><use xlink:href="#g" transform="matrix(1,0,0,1,781.8094093765783,758.6899344786959) translate(5.326180555555547 78.7326388888889)"/><use xlink:href="#h" transform="matrix(1,0,0,1,781.8094093765783,758.6899344786959) translate(69.33659722222222 78.7326388888889)"/><path d="M1334.36 764.7a6 6 0 0 1 6-6h148a6 6 0 0 1 6 6v108a6 6 0 0 1-6 6h-148a6 6 0 0 1-6-6z" stroke="#3a414a" stroke-width="2" fill="#fff"/><path d="M1484.36 768.7h-15v20h15z" stroke="#3a414a" fill="#fff"/><path d="M1474.36 772.02h-10v3.34h10zm0 10h-10v3.34h10z" stroke="#3a414a" fill="#fff"/><path d="M1476.36 878.7a18 18 0 0 1 18-18 18 18 0 0 1 18 18 18 18 0 0 1-18 18 18 18 0 0 1-18-18z" stroke="#000" stroke-opacity="0" fill="#6f7681"/><path d="M1498.36 884.9l.1-10.2-3.2 10.2h-1.85l-3.14-10.2.1 10.2h-2.3v-12.4h3.5l2.8 9.24 2.85-9.25h3.46v12.4h-2.3" fill="#fff"/><use xlink:href="#d" transform="matrix(1,0,0,1,1334.360597404878,758.6899344786959) translate(41.99881510416666 50.45030381944444)"/><use xlink:href="#e" transform="matrix(1,0,0,1,1334.360597404878,758.6899344786959) translate(60.668519965277774 50.45030381944444)"/><use xlink:href="#f" transform="matrix(1,0,0,1,1334.360597404878,758.6899344786959) translate(108.67633246527778 50.45030381944444)"/><use xlink:href="#g" transform="matrix(1,0,0,1,1334.360597404878,758.6899344786959) translate(5.326180555555547 78.7326388888889)"/><use xlink:href="#i" transform="matrix(1,0,0,1,1334.360597404878,758.6899344786959) translate(69.33659722222222 78.7326388888889)"/><path d="M1335.1 977.66a6 6 0 0 1 6-6h148a6 6 0 0 1 6 6v108a6 6 0 0 1-6 6h-148a6 6 0 0 1-6-6z" stroke="#3a414a" stroke-width="2" fill="#fff"/><path d="M1485.1 981.66h-15v20h15z" stroke="#3a414a" fill="#fff"/><path d="M1475.1 985h-10v3.33h10zm0 10h-10v3.33h10z" stroke="#3a414a" fill="#fff"/><path d="M1477.1 1091.66a18 18 0 0 1 18-18 18 18 0 0 1 18 18 18 18 0 0 1-18 18 18 18 0 0 1-18-18z" stroke="#000" stroke-opacity="0" fill="#6f7681"/><path d="M1499.1 1097.86l.1-10.2-3.22 10.2h-1.85l-3.15-10.2.1 10.2h-2.3v-12.4h3.5l2.8 9.25 2.86-9.24h3.44v12.4h-2.3" fill="#fff"/><use xlink:href="#d" transform="matrix(1,0,0,1,1335.085003390728,971.6643174302274) translate(26.99881510416666 35.45030381944444)"/><use xlink:href="#e" transform="matrix(1,0,0,1,1335.085003390728,971.6643174302274) translate(45.668519965277774 35.45030381944444)"/><use xlink:href="#f" transform="matrix(1,0,0,1,1335.085003390728,971.6643174302274) translate(93.67633246527778 35.45030381944444)"/><use xlink:href="#j" transform="matrix(1,0,0,1,1335.085003390728,971.6643174302274) translate(15.994583333333319 63.73263888888889)"/><use xlink:href="#k" transform="matrix(1,0,0,1,1335.085003390728,971.6643174302274) translate(58.66819444444443 63.73263888888889)"/><use xlink:href="#l" transform="matrix(1,0,0,1,1335.085003390728,971.6643174302274) translate(122.67861111111111 63.73263888888889)"/><use xlink:href="#m" transform="matrix(1,0,0,1,1335.085003390728,971.6643174302274) translate(21.328784722222217 93.94097222222223)"/><use xlink:href="#n" transform="matrix(1,0,0,1,1335.085003390728,971.6643174302274) translate(74.67079861111111 93.94097222222223)"/><path d="M781.8 977.98a6 6 0 0 1 6-6h148a6 6 0 0 1 6 6v108a6 6 0 0 1-6 6h-148a6 6 0 0 1-6-6z" stroke="#3a414a" stroke-width="2" fill="#fff"/><path d="M931.8 981.98h-15v20h15z" stroke="#3a414a" fill="#fff"/><path d="M921.8 985.3h-10v3.35h10zm0 10h-10v3.35h10z" stroke="#3a414a" fill="#fff"/><path d="M923.8 1091.98a18 18 0 0 1 18-18 18 18 0 0 1 18 18 18 18 0 0 1-18 18 18 18 0 0 1-18-18z" stroke="#000" stroke-opacity="0" fill="#6f7681"/><path d="M945.8 1098.18l.1-10.2-3.2 10.2h-1.84l-3.15-10.2.1 10.2h-2.3v-12.4h3.5l2.8 9.25 2.86-9.25h3.45v12.4h-2.3" fill="#fff"/><use xlink:href="#d" transform="matrix(1,0,0,1,781.8094093765783,971.97876671374) translate(26.99881510416666 35.45030381944444)"/><use xlink:href="#e" transform="matrix(1,0,0,1,781.8094093765783,971.97876671374) translate(45.668519965277774 35.45030381944444)"/><use xlink:href="#f" transform="matrix(1,0,0,1,781.8094093765783,971.97876671374) translate(93.67633246527778 35.45030381944444)"/><use xlink:href="#j" transform="matrix(1,0,0,1,781.8094093765783,971.97876671374) translate(15.994583333333333 63.73263888888889)"/><use xlink:href="#o" transform="matrix(1,0,0,1,781.8094093765783,971.97876671374) translate(58.668194444444445 63.73263888888889)"/><use xlink:href="#p" transform="matrix(1,0,0,1,781.8094093765783,971.97876671374) translate(31.997187499999995 93.94097222222223)"/><path d="M1055.1 764.7a6 6 0 0 1 6-6h148a6 6 0 0 1 6 6v108a6 6 0 0 1-6 6h-148a6 6 0 0 1-6-6z" stroke="#3a414a" stroke-width="2" fill="#fff"/><path d="M1205.1 768.7h-15v20h15z" stroke="#3a414a" fill="#fff"/><path d="M1195.1 772.02h-10v3.34h10zm0 10h-10v3.34h10z" stroke="#3a414a" fill="#fff"/><path d="M1029.86 758.7a18 18 0 0 1 18-18h14.45a18 18 0 0 1 18 18 18 18 0 0 1-18 18h-14.44a18 18 0 0 1-18-18z" stroke="#000" stroke-opacity="0" fill="#e81313"/><path d="M1042.68 755.14c.04-1.3-3.17-1.54-3.22-.18.68 2.08 5.34.32 5.4 3.9.04 3.76-7.44 3.44-7.8.4l1.95-.3c.2.85.9 1.12 2 1.12 1.5.36 2.58-1.36 1.1-1.86-1.96-.63-4.63-.5-4.72-3-.1-3.6 6.97-3.34 7.3-.3m6.42 6.93c-.68 1.94-1.95 3.44-4.7 2.8v-1.58c1.57.36 2.4-.5 2.66-1.77l-3.4-8.5h2.36l2.17 6.7c.54-2.36 1.26-4.54 2-6.7h2.3m6.2-.2c3.94-.04 2.63 5.12 2.85 8.8h-2.26c-.33-2.6 1.03-7.12-1.55-7.12-2.67 0-1.54 4.4-1.77 7.1h-2.26l-.05-8.6h2.13c.1.55-.04 1.28.14 1.73.54-1.17 1.27-1.85 2.76-1.9m12.4 5.94c-.3 1.9-1.7 3.03-3.88 3.03-2.68 0-3.8-1.72-4.08-4.43-.54-5 6.97-6.2 7.88-1.63l-2.22.1c-.1-.87-.68-1.45-1.6-1.45-1.34 0-1.57 1.26-1.7 2.9-.28 3.35 2.94 3.94 3.35 1.35" fill="#fff"/><g><use xlink:href="#d" transform="matrix(1,0,0,1,1055.085003390728,758.6899344786959) translate(26.99881510416666 35.45030381944444)"/><use xlink:href="#e" transform="matrix(1,0,0,1,1055.085003390728,758.6899344786959) translate(45.668519965277774 35.45030381944444)"/><use xlink:href="#f" transform="matrix(1,0,0,1,1055.085003390728,758.6899344786959) translate(93.67633246527778 35.45030381944444)"/><use xlink:href="#j" transform="matrix(1,0,0,1,1055.085003390728,758.6899344786959) translate(31.997187499999995 63.73263888888889)"/><use xlink:href="#q" transform="matrix(1,0,0,1,1055.085003390728,758.6899344786959) translate(74.67079861111111 63.73263888888889)"/><use xlink:href="#r" transform="matrix(1,0,0,1,1055.085003390728,758.6899344786959) translate(53.33399305555555 93.94097222222223)"/></g><path d="M1055.1 977.66a6 6 0 0 1 6-6h148a6 6 0 0 1 6 6v108a6 6 0 0 1-6 6h-148a6 6 0 0 1-6-6z" stroke="#3a414a" stroke-width="2" fill="#fff"/><path d="M1205.1 981.66h-15v20h15z" stroke="#3a414a" fill="#fff"/><path d="M1195.1 985h-10v3.33h10zm0 10h-10v3.33h10z" stroke="#3a414a" fill="#fff"/><path d="M1029.86 971.66a18 18 0 0 1 18-18h14.45a18 18 0 0 1 18 18 18 18 0 0 1-18 18h-14.44a18 18 0 0 1-18-18z" stroke="#000" stroke-opacity="0" fill="#e81313"/><path d="M1042.68 968.12c.04-1.32-3.17-1.54-3.22-.18.68 2.08 5.34.3 5.4 3.9.04 3.75-7.44 3.43-7.8.4l1.95-.32c.2.86.9 1.13 2 1.13 1.5.37 2.58-1.35 1.1-1.85-1.96-.64-4.63-.5-4.72-3-.1-3.62 6.97-3.34 7.3-.3m6.42 6.92c-.68 1.95-1.95 3.44-4.7 2.8v-1.58c1.57.37 2.4-.5 2.66-1.76l-3.4-8.52h2.36l2.17 6.7c.54-2.35 1.26-4.52 2-6.7h2.3m6.2-.18c3.94-.04 2.63 5.12 2.85 8.8h-2.26c-.33-2.6 1.03-7.12-1.55-7.12-2.67 0-1.54 4.4-1.77 7.1h-2.26l-.05-8.6h2.13c.1.55-.04 1.27.14 1.72.54-1.17 1.27-1.85 2.76-1.9m12.4 5.93c-.3 1.92-1.7 3.05-3.88 3.05-2.68 0-3.8-1.72-4.08-4.44-.54-4.97 6.97-6.2 7.88-1.62l-2.22.1c-.1-.87-.68-1.46-1.6-1.46-1.34 0-1.57 1.27-1.7 2.9-.28 3.35 2.94 3.94 3.35 1.36" fill="#fff"/><g><use xlink:href="#d" transform="matrix(1,0,0,1,1055.085003390728,971.6643174302274) translate(26.99881510416666 35.45030381944444)"/><use xlink:href="#e" transform="matrix(1,0,0,1,1055.085003390728,971.6643174302274) translate(45.668519965277774 35.45030381944444)"/><use xlink:href="#f" transform="matrix(1,0,0,1,1055.085003390728,971.6643174302274) translate(93.67633246527778 35.45030381944444)"/><use xlink:href="#j" transform="matrix(1,0,0,1,1055.085003390728,971.6643174302274) translate(37.33138888888889 63.73263888888889)"/><use xlink:href="#s" transform="matrix(1,0,0,1,1055.085003390728,971.6643174302274) translate(80.005 63.73263888888889)"/><use xlink:href="#t" transform="matrix(1,0,0,1,1055.085003390728,971.6643174302274) translate(53.33399305555555 93.94097222222223)"/></g><path d="M1055.1 1196.23a6 6 0 0 1 6-6h148a6 6 0 0 1 6 6v108a6 6 0 0 1-6 6h-148a6 6 0 0 1-6-6z" stroke="#3a414a" stroke-width="2" fill="#fff"/><path d="M1205.1 1200.23h-15v20h15z" stroke="#3a414a" fill="#fff"/><path d="M1195.1 1203.57h-10v3.33h10zm0 10h-10v3.33h10z" stroke="#3a414a" fill="#fff"/><path d="M1029.86 1190.23a18 18 0 0 1 18-18h14.45a18 18 0 0 1 18 18 18 18 0 0 1-18 18h-14.44a18 18 0 0 1-18-18z" stroke="#000" stroke-opacity="0" fill="#e81313"/><path d="M1042.68 1186.7c.04-1.33-3.17-1.55-3.22-.2.68 2.1 5.34.32 5.4 3.9.04 3.76-7.44 3.44-7.8.4l1.95-.3c.2.85.9 1.12 2 1.12 1.5.37 2.58-1.35 1.1-1.85-1.96-.64-4.63-.5-4.72-3-.1-3.62 6.97-3.34 7.3-.3m6.42 6.92c-.68 1.94-1.95 3.43-4.7 2.8v-1.6c1.57.38 2.4-.5 2.66-1.75l-3.4-8.52h2.36l2.17 6.7c.54-2.35 1.26-4.52 2-6.7h2.3m6.2-.18c3.94-.05 2.63 5.12 2.85 8.8h-2.26c-.33-2.6 1.03-7.12-1.55-7.12-2.67 0-1.54 4.4-1.77 7.1h-2.26l-.05-8.6h2.13c.1.55-.04 1.27.14 1.72.54-1.17 1.27-1.85 2.76-1.9m12.4 5.93c-.3 1.9-1.7 3.04-3.88 3.04-2.68 0-3.8-1.72-4.08-4.44-.54-4.98 6.97-6.2 7.88-1.63l-2.22.1c-.1-.87-.68-1.46-1.6-1.46-1.34 0-1.57 1.26-1.7 2.9-.28 3.34 2.94 3.93 3.35 1.35" fill="#fff"/><g><use xlink:href="#d" transform="matrix(1,0,0,1,1055.085003390728,1190.2338014797883) translate(45.99946614583333 50.45030381944444)"/><use xlink:href="#u" transform="matrix(1,0,0,1,1055.085003390728,1190.2338014797883) translate(64.66917100694445 50.45030381944444)"/><use xlink:href="#f" transform="matrix(1,0,0,1,1055.085003390728,1190.2338014797883) translate(104.67568142361111 50.45030381944444)"/><use xlink:href="#v" transform="matrix(1,0,0,1,1055.085003390728,1190.2338014797883) translate(10.660381944444461 78.7326388888889)"/></g><path d="M446.18 764.7a6 6 0 0 1 6-6h148a6 6 0 0 1 6 6v108a6 6 0 0 1-6 6h-148a6 6 0 0 1-6-6z" stroke="#3a414a" stroke-width="2" fill="#fff"/><path d="M596.18 768.7h-15v20h15z" stroke="#3a414a" fill="#fff"/><path d="M586.18 772.02h-10v3.34h10zm0 10h-10v3.34h10z" stroke="#3a414a" fill="#fff"/><g><use xlink:href="#d" transform="matrix(1,0,0,1,446.17739470521724,758.6899344786959) translate(41.99881510416666 50.45030381944444)"/><use xlink:href="#e" transform="matrix(1,0,0,1,446.17739470521724,758.6899344786959) translate(60.668519965277774 50.45030381944444)"/><use xlink:href="#f" transform="matrix(1,0,0,1,446.17739470521724,758.6899344786959) translate(108.67633246527778 50.45030381944444)"/><use xlink:href="#j" transform="matrix(1,0,0,1,446.17739470521724,758.6899344786959) translate(10.660381944444447 78.7326388888889)"/><use xlink:href="#w" transform="matrix(1,0,0,1,446.17739470521724,758.6899344786959) translate(53.33399305555556 78.7326388888889)"/></g><path d="M350.18 566.67a6 6 0 0 1 6-6h148a6 6 0 0 1 6 6v108a6 6 0 0 1-6 6h-148a6 6 0 0 1-6-6z" stroke="#3a414a" stroke-width="2" fill="#fff"/><path d="M500.18 570.67h-15v20h15z" stroke="#3a414a" fill="#fff"/><path d="M490.18 574h-10v3.34h10zm0 10h-10v3.34h10z" stroke="#3a414a" fill="#fff"/><g><use xlink:href="#d" transform="matrix(1,0,0,1,350.17739470521724,560.6739684845961) translate(41.99881510416666 50.45030381944444)"/><use xlink:href="#e" transform="matrix(1,0,0,1,350.17739470521724,560.6739684845961) translate(60.668519965277774 50.45030381944444)"/><use xlink:href="#f" transform="matrix(1,0,0,1,350.17739470521724,560.6739684845961) translate(108.67633246527778 50.45030381944444)"/><use xlink:href="#j" transform="matrix(1,0,0,1,350.17739470521724,560.6739684845961) translate(26.662986111111103 78.7326388888889)"/><use xlink:href="#x" transform="matrix(1,0,0,1,350.17739470521724,560.6739684845961) translate(69.33659722222222 78.7326388888889)"/></g><path d="M542.18 566.67a6 6 0 0 1 6-6h148a6 6 0 0 1 6 6v108a6 6 0 0 1-6 6h-148a6 6 0 0 1-6-6z" stroke="#3a414a" stroke-width="2" fill="#fff"/><path d="M692.18 570.67h-15v20h15z" stroke="#3a414a" fill="#fff"/><path d="M682.18 574h-10v3.34h10zm0 10h-10v3.34h10z" stroke="#3a414a" fill="#fff"/><g><use xlink:href="#d" transform="matrix(1,0,0,1,542.1773947052172,560.6739684845961) translate(26.99881510416666 35.45030381944444)"/><use xlink:href="#e" transform="matrix(1,0,0,1,542.1773947052172,560.6739684845961) translate(45.668519965277774 35.45030381944444)"/><use xlink:href="#f" transform="matrix(1,0,0,1,542.1773947052172,560.6739684845961) translate(93.67633246527778 35.45030381944444)"/><use xlink:href="#y" transform="matrix(1,0,0,1,542.1773947052172,560.6739684845961) translate(10.660381944444447 63.73263888888889)"/><use xlink:href="#z" transform="matrix(1,0,0,1,542.1773947052172,560.6739684845961) translate(117.34440972222222 63.73263888888889)"/><use xlink:href="#A" transform="matrix(1,0,0,1,542.1773947052172,560.6739684845961) translate(26.66298611111111 93.94097222222223)"/></g><path d="M174.5 764.7a6 6 0 0 1 6-6h148a6 6 0 0 1 6 6v108a6 6 0 0 1-6 6h-148a6 6 0 0 1-6-6z" stroke="#3a414a" stroke-width="2" fill="#fff"/><path d="M324.5 768.7h-15v20h15z" stroke="#3a414a" fill="#fff"/><path d="M314.5 772.02h-10v3.34h10zm0 10h-10v3.34h10z" stroke="#3a414a" fill="#fff"/><g><use xlink:href="#d" transform="matrix(1,0,0,1,174.50526802944,758.6899344786958) translate(26.99881510416666 35.45030381944444)"/><use xlink:href="#e" transform="matrix(1,0,0,1,174.50526802944,758.6899344786958) translate(45.668519965277774 35.45030381944444)"/><use xlink:href="#f" transform="matrix(1,0,0,1,174.50526802944,758.6899344786958) translate(93.67633246527778 35.45030381944444)"/><use xlink:href="#B" transform="matrix(1,0,0,1,174.50526802944,758.6899344786958) translate(15.994583333333319 63.73263888888889)"/><use xlink:href="#C" transform="matrix(1,0,0,1,174.50526802944,758.6899344786958) translate(90.67340277777778 63.73263888888889)"/><use xlink:href="#D" transform="matrix(1,0,0,1,174.50526802944,758.6899344786958) translate(47.99979166666666 93.94097222222223)"/></g><path d="M-126.47 871.7a6 6 0 0 1 6-6h148a6 6 0 0 1 6 6v108a6 6 0 0 1-6 6h-148a6 6 0 0 1-6-6z" stroke="#3a414a" stroke-width="2" fill="#fff"/><path d="M23.53 875.7h-15v20h15z" stroke="#3a414a" fill="#fff"/><path d="M13.53 879.02h-10v3.34h10zm0 10h-10v3.34h10z" stroke="#3a414a" fill="#fff"/><path d="M15.53 985.7a18 18 0 0 1 18-18 18 18 0 0 1 18 18 18 18 0 0 1-18 18 18 18 0 0 1-18-18z" stroke="#000" stroke-opacity="0" fill="#6f7681"/><path d="M37.53 991.9l.1-10.2-3.2 10.2h-1.85l-3.15-10.2.1 10.2h-2.3v-12.4h3.5l2.8 9.24 2.85-9.25h3.45v12.4h-2.3" fill="#fff"/><path d="M-156.57 865.7a18 18 0 0 1 18-18h24.2a18 18 0 0 1 18 18 18 18 0 0 1-18 18h-24.2a18 18 0 0 1-18-18z" stroke="#000" stroke-opacity="0" fill="#4297ff"/><path d="M-143.78 866.87c-.73.87-1.37 1.8-2.93 1.74-1.7-.03-2.67-.9-2.67-2.65-.05-2.75 2.52-2.9 5.32-2.8.05-1.2-.14-2.16-1.3-2.16-.8.04-1.18.4-1.27 1.23l-2.4-.1c.33-1.73 1.67-2.65 3.78-2.6 2.1.04 3.4 1 3.44 3.12l.04 3.76c-.04.65.55.84 1.15.7v1.24c-1.4.36-3.27.23-3.18-1.47zm-2.2.14c1.33 0 1.97-1.1 1.93-2.6-1.47 0-3.03-.15-2.98 1.37 0 .78.36 1.24 1.05 1.24m11.57-4.9c.03-1.34-3.23-1.57-3.27-.2.7 2.12 5.4.33 5.46 3.96.03 3.8-7.54 3.5-7.9.4l1.97-.3c.18.86.92 1.14 2.02 1.14 1.5.37 2.6-1.38 1.1-1.88-1.98-.65-4.7-.5-4.78-3.03-.1-3.68 7.06-3.4 7.4-.33m6.5 7.02c-.7 1.96-1.97 3.48-4.77 2.83v-1.6c1.6.36 2.43-.5 2.7-1.8l-3.43-8.62h2.38l2.2 6.8c.55-2.38 1.3-4.6 2.02-6.8h2.34m6.3-.17c3.98-.05 2.65 5.18 2.88 8.9h-2.3c-.3-2.62 1.06-7.2-1.55-7.2-2.72 0-1.57 4.44-1.8 7.2h-2.3l-.04-8.72h2.16c.1.56-.05 1.3.13 1.75.55-1.2 1.3-1.88 2.8-1.92m12.58 6c-.33 1.94-1.75 3.08-3.95 3.08-2.7 0-3.86-1.73-4.13-4.5-.55-5.03 7.07-6.27 7.98-1.64l-2.25.1c-.1-.88-.68-1.47-1.6-1.47-1.38 0-1.6 1.27-1.75 2.92-.27 3.4 3 4 3.4 1.38" fill="#fff"/><g><use xlink:href="#d" transform="matrix(1,0,0,1,-126.47432801951038,865.6899344786958) translate(26.99881510416666 35.45030381944444)"/><use xlink:href="#e" transform="matrix(1,0,0,1,-126.47432801951038,865.6899344786958) translate(45.668519965277774 35.45030381944444)"/><use xlink:href="#f" transform="matrix(1,0,0,1,-126.47432801951038,865.6899344786958) translate(93.67633246527778 35.45030381944444)"/><use xlink:href="#E" transform="matrix(1,0,0,1,-126.47432801951038,865.6899344786958) translate(58.668194444444445 63.73263888888889)"/><use xlink:href="#F" transform="matrix(1,0,0,1,-126.47432801951038,865.6899344786958) translate(26.66298611111111 93.94097222222223)"/></g><path d="M178.86 977.66a6 6 0 0 1 6-6h148a6 6 0 0 1 6 6v108a6 6 0 0 1-6 6h-148a6 6 0 0 1-6-6z" stroke="#3a414a" stroke-width="2" fill="#fff"/><path d="M328.86 981.66h-15v20h15z" stroke="#3a414a" fill="#fff"/><path d="M318.86 985h-10v3.33h10zm0 10h-10v3.33h10z" stroke="#3a414a" fill="#fff"/><path d="M153.63 971.66a18 18 0 0 1 18-18h14.45a18 18 0 0 1 18 18 18 18 0 0 1-18 18h-14.45a18 18 0 0 1-18-18z" stroke="#000" stroke-opacity="0" fill="#e81313"/><path d="M166.45 968.12c.05-1.32-3.17-1.54-3.22-.18.68 2.08 5.35.3 5.4 3.9.04 3.75-7.43 3.43-7.8.4l1.95-.32c.18.86.9 1.13 2 1.13 1.5.37 2.58-1.35 1.08-1.85-1.95-.64-4.62-.5-4.7-3-.1-3.62 6.97-3.34 7.28-.3m6.43 6.92c-.68 1.95-1.94 3.44-4.7 2.8v-1.58c1.58.37 2.4-.5 2.67-1.76l-3.4-8.52h2.35l2.17 6.7c.54-2.35 1.27-4.52 2-6.7h2.3m6.2-.18c3.94-.04 2.63 5.12 2.86 8.8h-2.27c-.3-2.6 1.04-7.12-1.54-7.12-2.67 0-1.54 4.4-1.76 7.1h-2.27l-.05-8.6h2.13c.1.55-.05 1.27.13 1.72.56-1.17 1.28-1.85 2.78-1.9m12.4 5.93c-.3 1.92-1.72 3.05-3.9 3.05-2.66 0-3.8-1.72-4.07-4.44-.53-4.97 7-6.2 7.9-1.62l-2.23.1c-.1-.87-.67-1.46-1.58-1.46-1.37 0-1.6 1.27-1.73 2.9-.27 3.35 2.94 3.94 3.35 1.36" fill="#fff"/><g><use xlink:href="#d" transform="matrix(1,0,0,1,178.859005313823,971.6643174302274) translate(41.99881510416666 50.45030381944444)"/><use xlink:href="#e" transform="matrix(1,0,0,1,178.859005313823,971.6643174302274) translate(60.668519965277774 50.45030381944444)"/><use xlink:href="#f" transform="matrix(1,0,0,1,178.859005313823,971.6643174302274) translate(108.67633246527778 50.45030381944444)"/><use xlink:href="#G" transform="matrix(1,0,0,1,178.859005313823,971.6643174302274) translate(5.326180555555547 78.7326388888889)"/><use xlink:href="#H" transform="matrix(1,0,0,1,178.859005313823,971.6643174302274) translate(101.34180555555555 78.7326388888889)"/></g><path d="M13.53 722.64c0 6.63-26.87 12-60 12-33.14 0-60-5.37-60-12v-96c0-6.62 26.86-12 60-12 33.13 0 60 5.38 60 12z" stroke="#000" fill="#fff"/><path d="M13.53 626.64c0 6.63-26.87 12-60 12-33.14 0-60-5.37-60-12" stroke="#000" fill="none"/><g><use xlink:href="#I" transform="matrix(1,0,0,1,-101.47432801951038,643.6452823915387) translate(32.77777777777778 39.94444444444444)"/><use xlink:href="#J" transform="matrix(1,0,0,1,-101.47432801951038,643.6452823915387) translate(10.55555555555555 62.166666666666664)"/></g><path d="M-46.47 863.7V753.64" stroke="#3a414a" stroke-width="2" fill="none"/><path d="M-45.47 864.7h-2v-1.04h2z" stroke="#3a414a" stroke-width=".05" fill="#3a414a"/><path d="M-46.47 738.38l4.63 14.27h-9.27z" stroke="#3a414a" stroke-width="2" fill="#3a414a"/></g><defs><path d="M604-135c236 0 291-142 291-376v-838h190v859c5 340-142 510-480 510-326 0-463-164-463-492v-877h191v851c-3 222 46 363 271 363" id="K"/><path d="M1121-976c0 225-142 341-344 379L1177 0H957L591-575H353V0H162v-1349h482c281 3 477 100 477 373zM633-726c181-1 296-73 296-247 0-149-101-223-304-223H353v470h280" id="L"/><path d="M237 0v-1349h191v1193h672V0H237" id="M"/><g id="a"><use transform="matrix(0.0087890625,0,0,0.0087890625,0,0)" xlink:href="#K"/><use transform="matrix(0.0087890625,0,0,0.0087890625,10.8017578125,0)" xlink:href="#L"/><use transform="matrix(0.0087890625,0,0,0.0087890625,21.603515625,0)" xlink:href="#M"/></g><path d="M385-1193v494h676v158H385V0H194v-1349h891v156H385" id="N"/><path d="M839-1102c70 0 148 7 206 17v167c-112-18-268-36-363 15-129 69-208 203-208 395V0H294c-10-367 32-789-52-1082h171c21 75 41 161 48 250h5c67-152 152-270 373-270" id="O"/><path d="M615-1102c343 0 484 203 482 560-1 347-147 562-488 562-336 0-475-219-479-562-4-349 156-560 485-560zm-8 989c240 0 301-180 301-429 0-245-55-427-290-427-236 0-299 181-299 427 0 243 61 429 288 429" id="P"/><path d="M706-1102c241 0 344 136 343 381V0H868v-695c1-168-57-273-220-268-190 6-283 138-283 336V0H185c-3-360 6-732-6-1082h170c4 54 7 126 8 185h3c63-121 164-204 346-205" id="Q"/><path d="M682 16c-209 0-323-80-324-285v-671H190v-142h170l58-282h120v282h432v142H538v652c2 114 60 155 182 155 106 0 209-16 297-34v137C921-4 806 16 682 16" id="R"/><path d="M745-142h380V0H143v-142h422v-798H246v-142h499v940zM545-1292v-192h200v192H545" id="S"/><path d="M617-1102c355 0 481 238 477 599H322c5 222 84 388 301 388 144 0 244-59 284-166l158 45C1002-72 854 20 623 20c-342 0-490-220-490-568 0-346 151-554 484-554zm291 461c-18-192-90-328-289-328-194 0-287 128-295 328h584" id="T"/><g id="b"><use transform="matrix(0.0087890625,0,0,0.0087890625,0,0)" xlink:href="#N"/><use transform="matrix(0.0087890625,0,0,0.0087890625,10.8017578125,0)" xlink:href="#O"/><use transform="matrix(0.0087890625,0,0,0.0087890625,21.603515625,0)" xlink:href="#P"/><use transform="matrix(0.0087890625,0,0,0.0087890625,32.4052734375,0)" xlink:href="#Q"/><use transform="matrix(0.0087890625,0,0,0.0087890625,43.20703125,0)" xlink:href="#R"/><use transform="matrix(0.0087890625,0,0,0.0087890625,54.0087890625,0)" xlink:href="#S"/><use transform="matrix(0.0087890625,0,0,0.0087890625,64.810546875,0)" xlink:href="#T"/><use transform="matrix(0.0087890625,0,0,0.0087890625,75.6123046875,0)" xlink:href="#O"/></g><path d="M650-1214c-281 0-336 244-336 533 0 295 60 546 347 546 188 0 263-142 322-282l159 65C1058-155 935 20 659 20c-401 0-546-295-546-701 0-407 135-689 536-689 264 0 391 146 466 335l-168 65c-47-129-127-244-297-244" id="U"/><path d="M1000-272c3 95 12 159 101 161 21 0 41-3 59-7V-6c-44 10-86 16-139 16-141 2-191-84-197-217h-6C748-76 648 20 446 20c-207 0-318-120-318-322 0-266 194-348 454-354l236-4c12-191-40-305-222-305-140 0-220 47-232 172l-188-17c33-204 181-292 423-292 255 0 401 118 401 364v466zm-683-27c0 109 63 184 175 182 166-3 259-96 306-217 24-65 20-120 20-200-232 7-501-28-501 235" id="V"/><path d="M1018 0H814c-67-224-138-444-200-673C552-442 476-224 407 0H204L21-1082h178c43 310 105 601 126 933 54-225 128-425 193-638h193c63 212 134 415 185 638 22-336 90-622 136-933h176" id="W"/><path d="M736-142h380V0H134v-142h422v-1200H267v-142h469v1342" id="X"/><g id="c"><use transform="matrix(0.0087890625,0,0,0.0087890625,0,0)" xlink:href="#U"/><use transform="matrix(0.0087890625,0,0,0.0087890625,10.8017578125,0)" xlink:href="#O"/><use transform="matrix(0.0087890625,0,0,0.0087890625,21.603515625,0)" xlink:href="#V"/><use transform="matrix(0.0087890625,0,0,0.0087890625,32.4052734375,0)" xlink:href="#W"/><use transform="matrix(0.0087890625,0,0,0.0087890625,43.20703125,0)" xlink:href="#X"/><use transform="matrix(0.0087890625,0,0,0.0087890625,54.0087890625,0)" xlink:href="#T"/><use transform="matrix(0.0087890625,0,0,0.0087890625,64.810546875,0)" xlink:href="#O"/></g><path fill="#979ea8" d="M940-141L602-506v-63l338-371h178v31L780-537l340 367v29H940zm-477 0L127-506v-63l336-371h177v31L305-537l337 367v29H463" id="Y"/><use transform="matrix(0.007595486111111112,0,0,0.007595486111111112,0,0)" xlink:href="#Y" id="d"/><path fill="#979ea8" d="M631 20c-350 0-501-215-501-562 0-355 162-560 502-560 250 0 399 118 446 323l-192 14c-23-124-109-196-262-196-242 0-305 171-305 415 1 245 61 427 304 427 151 0 248-77 267-215l190 12C1039-107 883 20 631 20" id="Z"/><path fill="#979ea8" d="M736-142h380V0H134v-142h422v-1200H267v-142h469v1342" id="aa"/><path fill="#979ea8" d="M1000-272c3 95 12 159 101 161 21 0 41-3 59-7V-6c-44 10-86 16-139 16-141 2-191-84-197-217h-6C748-76 648 20 446 20c-207 0-318-120-318-322 0-266 194-348 454-354l236-4c12-191-40-305-222-305-140 0-220 47-232 172l-188-17c33-204 181-292 423-292 255 0 401 118 401 364v466zm-683-27c0 109 63 184 175 182 166-3 259-96 306-217 24-65 20-120 20-200-232 7-501-28-501 235" id="ab"/><path fill="#979ea8" d="M873-819c-18-114-119-146-250-146-163 0-245 50-245 151 0 151 170 148 294 185 182 54 388 94 388 320 0 240-189 325-439 329-245 4-410-69-454-268l159-31c24 133 136 168 295 165 144-2 270-31 270-171 0-164-195-160-331-202-167-52-350-87-350-299 0-218 173-315 413-313 220 2 373 77 412 260" id="ac"/><g id="e"><use transform="matrix(0.006510416666666667,0,0,0.006510416666666667,0,0)" xlink:href="#Z"/><use transform="matrix(0.006510416666666667,0,0,0.006510416666666667,8.001302083333334,0)" xlink:href="#aa"/><use transform="matrix(0.006510416666666667,0,0,0.006510416666666667,16.002604166666668,0)" xlink:href="#ab"/><use transform="matrix(0.006510416666666667,0,0,0.006510416666666667,24.00390625,0)" xlink:href="#ac"/><use transform="matrix(0.006510416666666667,0,0,0.006510416666666667,32.005208333333336,0)" xlink:href="#ac"/></g><path fill="#979ea8" d="M762-141H584v-29l338-367-336-372v-31h176l338 371v63zm-475 0H107v-29l338-367-336-372v-31h178l335 371v63" id="ad"/><use transform="matrix(0.007595486111111112,0,0,0.007595486111111112,0,0)" xlink:href="#ad" id="f"/><path d="M462-1121v384h621v228H462V0H167v-1349h939v228H462" id="ae"/><path d="M875-1102c70 0 148 7 206 17v237c-110-17-267-37-359 15-123 69-192 207-192 395V0H250c-10-367 32-789-52-1082h271c19 69 36 149 46 228h4c52-151 151-250 356-248" id="af"/><path d="M616-1102c361 0 521 202 521 560 0 354-171 562-527 562C259 20 92-192 92-542c0-351 169-560 524-560zm-9 930c200-2 236-165 236-370 0-199-27-367-223-367-195 0-233 146-233 367 0 129 18 223 55 282s92 88 165 88" id="ag"/><path d="M768-1103c247 0 336 167 336 416V0H824v-619c-3-164-24-273-171-273-164 0-229 142-229 312V0H143c-4-359 9-736-8-1082h268c7 63 12 146 13 215h4c67-145 160-236 348-236" id="ah"/><path d="M711 13c-250 0-386-99-385-349l2-556H161v-190h181l88-282h176v282h385v190H606v530c-10 130 45 186 174 184 91-2 176-11 255-27v186C933-1 833 13 711 13" id="ai"/><g id="g"><use transform="matrix(0.008680555555555556,0,0,0.008680555555555556,0,0)" xlink:href="#ae"/><use transform="matrix(0.008680555555555556,0,0,0.008680555555555556,10.668402777777779,0)" xlink:href="#af"/><use transform="matrix(0.008680555555555556,0,0,0.008680555555555556,21.336805555555557,0)" xlink:href="#ag"/><use transform="matrix(0.008680555555555556,0,0,0.008680555555555556,32.005208333333336,0)" xlink:href="#ah"/><use transform="matrix(0.008680555555555556,0,0,0.008680555555555556,42.673611111111114,0)" xlink:href="#ai"/></g><path d="M616-1349c316 3 526 118 526 426 0 301-201 442-514 447H431V0H136v-1349h480zm-25 646c164 1 254-62 254-215 0-157-99-200-262-202H431v417h160" id="aj"/><path d="M802-909c-3-189-2-383-2-575h281v1248c-1 83 4 168 8 236H817c-9-50-14-117-15-176h-4C735-49 651 20 482 20 191 20 97-238 97-539c0-243 66-432 221-519 50-28 108-42 175-42 162 2 253 78 309 191zm-70 658c91-113 93-462 2-584-46-61-145-100-224-53-96 56-119 190-120 349 0 123 17 214 52 275 46 82 130 115 222 74 25-12 46-33 68-61" id="ak"/><path d="M471 20c-247 0-336-169-336-415v-687h281v607c4 148 31 285 172 285 152 0 207-150 207-312v-580h281c4 359-9 736 8 1082H816c-7-63-11-146-12-215h-5C736-76 644 20 471 20" id="al"/><path d="M1109-360C1066-122 902 20 624 20c-347 0-514-209-514-555 0-353 168-567 518-567 270 0 425 136 473 361l-283 14c-16-106-75-183-196-182-75 0-130 31-165 93s-52 152-52 270c0 249 74 374 221 374 120 0 188-82 201-201" id="am"/><path d="M1113-274C1038-96 884 20 626 20c-352 0-526-209-526-566 0-358 185-556 530-556 358 0 496 251 499 615H395c5 180 68 319 245 319 102 0 186-45 208-129zM857-663c-6-177-128-307-315-247-94 30-141 121-145 247h460" id="an"/><g id="h"><use transform="matrix(0.008680555555555556,0,0,0.008680555555555556,0,0)" xlink:href="#aj"/><use transform="matrix(0.008680555555555556,0,0,0.008680555555555556,10.668402777777779,0)" xlink:href="#af"/><use transform="matrix(0.008680555555555556,0,0,0.008680555555555556,21.336805555555557,0)" xlink:href="#ag"/><use transform="matrix(0.008680555555555556,0,0,0.008680555555555556,32.005208333333336,0)" xlink:href="#ak"/><use transform="matrix(0.008680555555555556,0,0,0.008680555555555556,42.673611111111114,0)" xlink:href="#al"/><use transform="matrix(0.008680555555555556,0,0,0.008680555555555556,53.34201388888889,0)" xlink:href="#am"/><use transform="matrix(0.008680555555555556,0,0,0.008680555555555556,64.01041666666667,0)" xlink:href="#an"/><use transform="matrix(0.008680555555555556,0,0,0.008680555555555556,74.67881944444446,0)" xlink:href="#af"/></g><path d="M872-915c-35-112-84-223-220-223-91 0-156 41-204 116-89 137-87 550 2 688 51 79 116 122 209 122 150 0 197-126 240-244l273 52C1094-168 961 20 656 20 239 20 80-262 80-681c0-418 154-689 568-689 289 0 425 167 496 389" id="ao"/><path d="M622-916c-112 2-200 14-200 111 0 90 89 101 168 121 234 58 514 77 514 368C1104-4 751 54 434 5 267-21 161-112 121-270l247-37c24 111 113 145 252 141 114-3 226-12 226-124 0-101-103-113-192-134-225-54-490-76-490-351 0-247 201-328 458-328 245 0 413 88 457 292l-249 26c-16-98-92-133-208-131" id="ap"/><path d="M934-1102c199 0 220 177 220 381V0H926c-2-260 10-533-4-785-4-72-14-138-83-138-34 0-61 27-81 81s-29 134-29 241V0H501c-2-260 9-533-5-785-4-72-13-138-82-138-46 0-65 47-80 93-21 67-30 155-30 248V0H75c-3-360 6-732-6-1082h209c6 50 3 123 8 175 36-100 83-195 216-195 135 0 166 79 196 196 42-105 93-196 236-196" id="aq"/><g id="i"><use transform="matrix(0.008680555555555556,0,0,0.008680555555555556,0,0)" xlink:href="#ao"/><use transform="matrix(0.008680555555555556,0,0,0.008680555555555556,10.668402777777779,0)" xlink:href="#ag"/><use transform="matrix(0.008680555555555556,0,0,0.008680555555555556,21.336805555555557,0)" xlink:href="#ah"/><use transform="matrix(0.008680555555555556,0,0,0.008680555555555556,32.005208333333336,0)" xlink:href="#ap"/><use transform="matrix(0.008680555555555556,0,0,0.008680555555555556,42.673611111111114,0)" xlink:href="#al"/><use transform="matrix(0.008680555555555556,0,0,0.008680555555555556,53.34201388888889,0)" xlink:href="#aq"/><use transform="matrix(0.008680555555555556,0,0,0.008680555555555556,64.01041666666667,0)" xlink:href="#an"/><use transform="matrix(0.008680555555555556,0,0,0.008680555555555556,74.67881944444446,0)" xlink:href="#af"/></g><path d="M1100-543c2 361-147 563-501 563-342 0-470-199-470-548v-821h295v818c3 172 13 322 183 320 173-2 198-150 198-330v-808h295v806" id="ar"/><path d="M1157-949c0 209-118 316-279 368L1227 0H895L605-515H432V0H137v-1349h494c317-2 526 111 526 400zM608-744c158 1 248-51 252-193 5-207-223-184-428-183v376h176" id="as"/><path d="M211 0v-1349h295v1121h616V0H211" id="at"/><g id="j"><use transform="matrix(0.008680555555555556,0,0,0.008680555555555556,0,0)" xlink:href="#ar"/><use transform="matrix(0.008680555555555556,0,0,0.008680555555555556,10.668402777777779,0)" xlink:href="#as"/><use transform="matrix(0.008680555555555556,0,0,0.008680555555555556,21.336805555555557,0)" xlink:href="#at"/></g><g id="k"><use transform="matrix(0.008680555555555556,0,0,0.008680555555555556,0,0)" xlink:href="#ae"/><use transform="matrix(0.008680555555555556,0,0,0.008680555555555556,10.668402777777779,0)" xlink:href="#af"/><use transform="matrix(0.008680555555555556,0,0,0.008680555555555556,21.336805555555557,0)" xlink:href="#ag"/><use transform="matrix(0.008680555555555556,0,0,0.008680555555555556,32.005208333333336,0)" xlink:href="#ah"/><use transform="matrix(0.008680555555555556,0,0,0.008680555555555556,42.673611111111114,0)" xlink:href="#ai"/></g><g id="l"><use transform="matrix(0.008680555555555556,0,0,0.008680555555555556,0,0)" xlink:href="#ai"/><use transform="matrix(0.008680555555555556,0,0,0.008680555555555556,10.668402777777779,0)" xlink:href="#ag"/></g><path d="M836-709c204 20 350 118 350 324C1186-112 992 0 719 0H137v-1349h525c258 3 443 87 443 339 0 176-107 269-269 301zM643-811c107 0 165-53 165-159 0-113-61-160-167-160H432v319h211zm46 592c128-1 201-59 200-191-1-128-80-183-207-183H432v374h257" id="au"/><path d="M775-193C708-75 621 20 439 20 226 20 106-93 106-306c0-251 170-341 417-346l223-4c4-143-12-264-148-264-103 0-141 58-150 153l-293-14c37-219 194-321 455-321 263 0 418 130 417 390v392c1 84 5 161 89 160 21 0 42-2 62-6v152c-57 15-108 27-180 26-145 0-202-73-217-205h-6zm-256 17c168 0 234-139 227-325-166 4-347-25-347 173 0 94 33 152 120 152" id="av"/><path d="M864 0L575-490l-121 84V0H173v-1484h281v850l386-448h302L762-660 1171 0H864" id="aw"/><g id="m"><use transform="matrix(0.008680555555555556,0,0,0.008680555555555556,0,0)" xlink:href="#au"/><use transform="matrix(0.008680555555555556,0,0,0.008680555555555556,10.668402777777779,0)" xlink:href="#av"/><use transform="matrix(0.008680555555555556,0,0,0.008680555555555556,21.336805555555557,0)" xlink:href="#am"/><use transform="matrix(0.008680555555555556,0,0,0.008680555555555556,32.005208333333336,0)" xlink:href="#aw"/></g><g id="n"><use transform="matrix(0.008680555555555556,0,0,0.008680555555555556,0,0)" xlink:href="#as"/><use transform="matrix(0.008680555555555556,0,0,0.008680555555555556,10.668402777777779,0)" xlink:href="#ag"/><use transform="matrix(0.008680555555555556,0,0,0.008680555555555556,21.336805555555557,0)" xlink:href="#al"/><use transform="matrix(0.008680555555555556,0,0,0.008680555555555556,32.005208333333336,0)" xlink:href="#ai"/><use transform="matrix(0.008680555555555556,0,0,0.008680555555555556,42.673611111111114,0)" xlink:href="#an"/><use transform="matrix(0.008680555555555556,0,0,0.008680555555555556,53.34201388888889,0)" xlink:href="#af"/></g><path d="M496-1349c439 0 656 222 653 664C1146-265 969 0 556 0H135v-1349h361zm36 1121c245-7 319-187 320-457 1-273-91-439-361-436h-61v893h102" id="ax"/><path d="M1028 0H784c-56-191-119-378-170-573C562-377 495-191 437 0H194L11-1082h228c32 239 67 472 95 714 4 40 7 80 7 119 53-195 119-378 177-568h193c56 190 120 371 169 568-1-79 11-158 21-226l91-607h226" id="ay"/><path d="M794-190h353V0H118v-190h395v-1104H223v-190h571v1294" id="az"/><g id="o"><use transform="matrix(0.008680555555555556,0,0,0.008680555555555556,0,0)" xlink:href="#ax"/><use transform="matrix(0.008680555555555556,0,0,0.008680555555555556,10.668402777777779,0)" xlink:href="#ag"/><use transform="matrix(0.008680555555555556,0,0,0.008680555555555556,21.336805555555557,0)" xlink:href="#ay"/><use transform="matrix(0.008680555555555556,0,0,0.008680555555555556,32.005208333333336,0)" xlink:href="#ah"/><use transform="matrix(0.008680555555555556,0,0,0.008680555555555556,42.673611111111114,0)" xlink:href="#az"/><use transform="matrix(0.008680555555555556,0,0,0.008680555555555556,53.34201388888889,0)" xlink:href="#ag"/><use transform="matrix(0.008680555555555556,0,0,0.008680555555555556,64.01041666666667,0)" xlink:href="#av"/><use transform="matrix(0.008680555555555556,0,0,0.008680555555555556,74.67881944444446,0)" xlink:href="#ak"/></g><path d="M609-1161c-125 0-218 36-218 153 0 149 166 161 290 196 235 67 484 129 484 421 0 300-239 408-554 411C302 23 93-114 38-367l285-37c32 128 131 205 296 203 143-2 259-31 259-173 0-164-197-172-333-212-218-64-441-131-441-405 0-276 231-379 511-379 299 0 463 114 513 363l-286 29c-28-115-96-183-233-183" id="aA"/><path d="M424-1484c-2 206 5 424-8 618h4c67-145 160-234 348-236 251-3 335 167 336 416V0H824v-621c0-150-23-276-173-270-163 7-227 142-227 312V0H143v-1484h281" id="aB"/><g id="p"><use transform="matrix(0.008680555555555556,0,0,0.008680555555555556,0,0)" xlink:href="#aA"/><use transform="matrix(0.008680555555555556,0,0,0.008680555555555556,10.668402777777779,0)" xlink:href="#am"/><use transform="matrix(0.008680555555555556,0,0,0.008680555555555556,21.336805555555557,0)" xlink:href="#aB"/><use transform="matrix(0.008680555555555556,0,0,0.008680555555555556,32.005208333333336,0)" xlink:href="#an"/><use transform="matrix(0.008680555555555556,0,0,0.008680555555555556,42.673611111111114,0)" xlink:href="#ak"/><use transform="matrix(0.008680555555555556,0,0,0.008680555555555556,53.34201388888889,0)" xlink:href="#al"/><use transform="matrix(0.008680555555555556,0,0,0.008680555555555556,64.01041666666667,0)" xlink:href="#az"/><use transform="matrix(0.008680555555555556,0,0,0.008680555555555556,74.67881944444446,0)" xlink:href="#an"/><use transform="matrix(0.008680555555555556,0,0,0.008680555555555556,85.34722222222223,0)" xlink:href="#af"/></g><g id="q"><use transform="matrix(0.008680555555555556,0,0,0.008680555555555556,0,0)" xlink:href="#ae"/><use transform="matrix(0.008680555555555556,0,0,0.008680555555555556,10.668402777777779,0)" xlink:href="#af"/><use transform="matrix(0.008680555555555556,0,0,0.008680555555555556,21.336805555555557,0)" xlink:href="#ag"/><use transform="matrix(0.008680555555555556,0,0,0.008680555555555556,32.005208333333336,0)" xlink:href="#ah"/><use transform="matrix(0.008680555555555556,0,0,0.008680555555555556,42.673611111111114,0)" xlink:href="#ai"/></g><path d="M615-1370c385 0 542 273 542 691 0 358-114 602-378 679 41 115 114 187 266 186 41 0 86-7 123-13v202c-117 27-296 45-408-1C608 311 534 171 482 7 194-58 72-308 72-679c0-419 158-691 543-691zM797-330c77-133 78-564 0-695-44-73-101-113-182-113s-139 40-183 114c-79 133-78 560 0 694 45 77 102 118 183 118s138-41 182-118" id="aC"/><g id="r"><use transform="matrix(0.008680555555555556,0,0,0.008680555555555556,0,0)" xlink:href="#aC"/><use transform="matrix(0.008680555555555556,0,0,0.008680555555555556,10.668402777777779,0)" xlink:href="#al"/><use transform="matrix(0.008680555555555556,0,0,0.008680555555555556,21.336805555555557,0)" xlink:href="#an"/><use transform="matrix(0.008680555555555556,0,0,0.008680555555555556,32.005208333333336,0)" xlink:href="#al"/><use transform="matrix(0.008680555555555556,0,0,0.008680555555555556,42.673611111111114,0)" xlink:href="#an"/></g><g id="s"><use transform="matrix(0.008680555555555556,0,0,0.008680555555555556,0,0)" xlink:href="#au"/><use transform="matrix(0.008680555555555556,0,0,0.008680555555555556,10.668402777777779,0)" xlink:href="#av"/><use transform="matrix(0.008680555555555556,0,0,0.008680555555555556,21.336805555555557,0)" xlink:href="#am"/><use transform="matrix(0.008680555555555556,0,0,0.008680555555555556,32.005208333333336,0)" xlink:href="#aw"/></g><g id="t"><use transform="matrix(0.008680555555555556,0,0,0.008680555555555556,0,0)" xlink:href="#aC"/><use transform="matrix(0.008680555555555556,0,0,0.008680555555555556,10.668402777777779,0)" xlink:href="#al"/><use transform="matrix(0.008680555555555556,0,0,0.008680555555555556,21.336805555555557,0)" xlink:href="#an"/><use transform="matrix(0.008680555555555556,0,0,0.008680555555555556,32.005208333333336,0)" xlink:href="#al"/><use transform="matrix(0.008680555555555556,0,0,0.008680555555555556,42.673611111111114,0)" xlink:href="#an"/></g><path fill="#979ea8" d="M865-914c-3-187-2-380-2-570h180v1261c0 76 1 155 6 223H877c-8-49-9-116-10-174h-5C801-44 708 26 530 26c-135 0-234-46-297-139s-95-232-95-419c0-377 131-566 392-566 176 0 271 63 335 184zm-286-51c-222 0-255 197-255 427 0 229 31 425 253 425 237 0 286-195 286-441 0-238-52-411-284-411" id="aD"/><path fill="#979ea8" d="M745-142h380V0H143v-142h422v-798H246v-142h499v940zM545-1292v-192h200v192H545" id="aE"/><path fill="#979ea8" d="M682 16c-209 0-323-80-324-285v-671H190v-142h170l58-282h120v282h432v142H538v652c2 114 60 155 182 155 106 0 209-16 297-34v137C921-4 806 16 682 16" id="aF"/><g id="u"><use transform="matrix(0.006510416666666667,0,0,0.006510416666666667,0,0)" xlink:href="#aD"/><use transform="matrix(0.006510416666666667,0,0,0.006510416666666667,8.001302083333334,0)" xlink:href="#aE"/><use transform="matrix(0.006510416666666667,0,0,0.006510416666666667,16.002604166666668,0)" xlink:href="#Z"/><use transform="matrix(0.006510416666666667,0,0,0.006510416666666667,24.00390625,0)" xlink:href="#aF"/></g><path d="M796 0v-574H433V0H138v-1349h295v531h363v-531h295V0H796" id="aG"/><path d="M324-409v-244h580v244H324" id="aH"/><g id="v"><use transform="matrix(0.008680555555555556,0,0,0.008680555555555556,0,0)" xlink:href="#aG"/><use transform="matrix(0.008680555555555556,0,0,0.008680555555555556,10.668402777777779,0)" xlink:href="#ag"/><use transform="matrix(0.008680555555555556,0,0,0.008680555555555556,21.336805555555557,0)" xlink:href="#ap"/><use transform="matrix(0.008680555555555556,0,0,0.008680555555555556,32.005208333333336,0)" xlink:href="#ai"/><use transform="matrix(0.008680555555555556,0,0,0.008680555555555556,42.673611111111114,0)" xlink:href="#aH"/><use transform="matrix(0.008680555555555556,0,0,0.008680555555555556,53.34201388888889,0)" xlink:href="#ai"/><use transform="matrix(0.008680555555555556,0,0,0.008680555555555556,64.01041666666667,0)" xlink:href="#ag"/><use transform="matrix(0.008680555555555556,0,0,0.008680555555555556,74.67881944444446,0)" xlink:href="#aH"/><use transform="matrix(0.008680555555555556,0,0,0.008680555555555556,85.34722222222223,0)" xlink:href="#aC"/><use transform="matrix(0.008680555555555556,0,0,0.008680555555555556,96.015625,0)" xlink:href="#al"/><use transform="matrix(0.008680555555555556,0,0,0.008680555555555556,106.68402777777777,0)" xlink:href="#an"/><use transform="matrix(0.008680555555555556,0,0,0.008680555555555556,117.35243055555554,0)" xlink:href="#al"/><use transform="matrix(0.008680555555555556,0,0,0.008680555555555556,128.02083333333331,0)" xlink:href="#an"/></g><path d="M137 0v-1349h968v228H432v324h612v228H432v341h714V0H137" id="aI"/><path d="M874 0L612-392 348 0H49l406-559-387-523h303l241 354 240-354h305L770-562 1179 0H874" id="aJ"/><g id="w"><use transform="matrix(0.008680555555555556,0,0,0.008680555555555556,0,0)" xlink:href="#aI"/><use transform="matrix(0.008680555555555556,0,0,0.008680555555555556,10.668402777777779,0)" xlink:href="#aJ"/><use transform="matrix(0.008680555555555556,0,0,0.008680555555555556,21.336805555555557,0)" xlink:href="#ai"/><use transform="matrix(0.008680555555555556,0,0,0.008680555555555556,32.005208333333336,0)" xlink:href="#af"/><use transform="matrix(0.008680555555555556,0,0,0.008680555555555556,42.673611111111114,0)" xlink:href="#av"/><use transform="matrix(0.008680555555555556,0,0,0.008680555555555556,53.34201388888889,0)" xlink:href="#am"/><use transform="matrix(0.008680555555555556,0,0,0.008680555555555556,64.01041666666667,0)" xlink:href="#ai"/><use transform="matrix(0.008680555555555556,0,0,0.008680555555555556,74.67881944444446,0)" xlink:href="#ag"/><use transform="matrix(0.008680555555555556,0,0,0.008680555555555556,85.34722222222223,0)" xlink:href="#af"/></g><path d="M794-190h353V0H118v-190h395v-702H223v-190h571v892zM513-1277v-207h281v207H513" id="aK"/><g id="x"><use transform="matrix(0.008680555555555556,0,0,0.008680555555555556,0,0)" xlink:href="#ae"/><use transform="matrix(0.008680555555555556,0,0,0.008680555555555556,10.668402777777779,0)" xlink:href="#aK"/><use transform="matrix(0.008680555555555556,0,0,0.008680555555555556,21.336805555555557,0)" xlink:href="#az"/><use transform="matrix(0.008680555555555556,0,0,0.008680555555555556,32.005208333333336,0)" xlink:href="#ai"/><use transform="matrix(0.008680555555555556,0,0,0.008680555555555556,42.673611111111114,0)" xlink:href="#an"/><use transform="matrix(0.008680555555555556,0,0,0.008680555555555556,53.34201388888889,0)" xlink:href="#af"/></g><path d="M427-171c3 195 2 397 2 596H148V-846c1-83-4-168-8-236h272c10 49 14 118 15 176h4c59-114 151-197 316-197 291 0 385 259 385 560 0 243-65 433-220 521-50 28-109 42-176 42-162-2-253-78-309-191zm69-661c-91 113-92 463-1 586 46 62 145 101 225 54 96-57 118-191 119-351 0-123-18-215-53-276-46-82-128-115-220-74-25 12-48 33-70 61" id="aL"/><g id="y"><use transform="matrix(0.008680555555555556,0,0,0.008680555555555556,0,0)" xlink:href="#ax"/><use transform="matrix(0.008680555555555556,0,0,0.008680555555555556,10.668402777777779,0)" xlink:href="#al"/><use transform="matrix(0.008680555555555556,0,0,0.008680555555555556,21.336805555555557,0)" xlink:href="#aL"/><use transform="matrix(0.008680555555555556,0,0,0.008680555555555556,32.005208333333336,0)" xlink:href="#az"/><use transform="matrix(0.008680555555555556,0,0,0.008680555555555556,42.673611111111114,0)" xlink:href="#aK"/><use transform="matrix(0.008680555555555556,0,0,0.008680555555555556,53.34201388888889,0)" xlink:href="#am"/><use transform="matrix(0.008680555555555556,0,0,0.008680555555555556,64.01041666666667,0)" xlink:href="#av"/><use transform="matrix(0.008680555555555556,0,0,0.008680555555555556,74.67881944444446,0)" xlink:href="#ai"/><use transform="matrix(0.008680555555555556,0,0,0.008680555555555556,85.34722222222223,0)" xlink:href="#an"/></g><g id="z"><use transform="matrix(0.008680555555555556,0,0,0.008680555555555556,0,0)" xlink:href="#ar"/><use transform="matrix(0.008680555555555556,0,0,0.008680555555555556,10.668402777777779,0)" xlink:href="#as"/><use transform="matrix(0.008680555555555556,0,0,0.008680555555555556,21.336805555555557,0)" xlink:href="#at"/></g><g id="A"><use transform="matrix(0.008680555555555556,0,0,0.008680555555555556,0,0)" xlink:href="#aI"/><use transform="matrix(0.008680555555555556,0,0,0.008680555555555556,10.668402777777779,0)" xlink:href="#az"/><use transform="matrix(0.008680555555555556,0,0,0.008680555555555556,21.336805555555557,0)" xlink:href="#aK"/><use transform="matrix(0.008680555555555556,0,0,0.008680555555555556,32.005208333333336,0)" xlink:href="#aq"/><use transform="matrix(0.008680555555555556,0,0,0.008680555555555556,42.673611111111114,0)" xlink:href="#aK"/><use transform="matrix(0.008680555555555556,0,0,0.008680555555555556,53.34201388888889,0)" xlink:href="#ah"/><use transform="matrix(0.008680555555555556,0,0,0.008680555555555556,64.01041666666667,0)" xlink:href="#av"/><use transform="matrix(0.008680555555555556,0,0,0.008680555555555556,74.67881944444446,0)" xlink:href="#ai"/><use transform="matrix(0.008680555555555556,0,0,0.008680555555555556,85.34722222222223,0)" xlink:href="#ag"/><use transform="matrix(0.008680555555555556,0,0,0.008680555555555556,96.015625,0)" xlink:href="#af"/></g><g id="B"><use transform="matrix(0.008680555555555556,0,0,0.008680555555555556,0,0)" xlink:href="#as"/><use transform="matrix(0.008680555555555556,0,0,0.008680555555555556,10.668402777777779,0)" xlink:href="#an"/><use transform="matrix(0.008680555555555556,0,0,0.008680555555555556,21.336805555555557,0)" xlink:href="#ay"/><use transform="matrix(0.008680555555555556,0,0,0.008680555555555556,32.005208333333336,0)" xlink:href="#aK"/><use transform="matrix(0.008680555555555556,0,0,0.008680555555555556,42.673611111111114,0)" xlink:href="#ah"/><use transform="matrix(0.008680555555555556,0,0,0.008680555555555556,53.34201388888889,0)" xlink:href="#ak"/></g><path d="M157-1349h916v228H757v893h316V0H157v-228h316v-893H157v-228" id="aM"/><g id="C"><use transform="matrix(0.008680555555555556,0,0,0.008680555555555556,0,0)" xlink:href="#aM"/><use transform="matrix(0.008680555555555556,0,0,0.008680555555555556,10.668402777777779,0)" xlink:href="#ah"/><use transform="matrix(0.008680555555555556,0,0,0.008680555555555556,21.336805555555557,0)" xlink:href="#aL"/><use transform="matrix(0.008680555555555556,0,0,0.008680555555555556,32.005208333333336,0)" xlink:href="#al"/><use transform="matrix(0.008680555555555556,0,0,0.008680555555555556,42.673611111111114,0)" xlink:href="#ai"/></g><g id="D"><use transform="matrix(0.008680555555555556,0,0,0.008680555555555556,0,0)" xlink:href="#aA"/><use transform="matrix(0.008680555555555556,0,0,0.008680555555555556,10.668402777777779,0)" xlink:href="#ai"/><use transform="matrix(0.008680555555555556,0,0,0.008680555555555556,21.336805555555557,0)" xlink:href="#af"/><use transform="matrix(0.008680555555555556,0,0,0.008680555555555556,32.005208333333336,0)" xlink:href="#an"/><use transform="matrix(0.008680555555555556,0,0,0.008680555555555556,42.673611111111114,0)" xlink:href="#av"/><use transform="matrix(0.008680555555555556,0,0,0.008680555555555556,53.34201388888889,0)" xlink:href="#aq"/></g><path d="M762-1121V0H467v-1121H61v-228h1107v228H762" id="aN"/><g id="E"><use transform="matrix(0.008680555555555556,0,0,0.008680555555555556,0,0)" xlink:href="#aG"/><use transform="matrix(0.008680555555555556,0,0,0.008680555555555556,10.668402777777779,0)" xlink:href="#aN"/><use transform="matrix(0.008680555555555556,0,0,0.008680555555555556,21.336805555555557,0)" xlink:href="#aN"/><use transform="matrix(0.008680555555555556,0,0,0.008680555555555556,32.005208333333336,0)" xlink:href="#aj"/></g><g id="F"><use transform="matrix(0.008680555555555556,0,0,0.008680555555555556,0,0)" xlink:href="#ax"/><use transform="matrix(0.008680555555555556,0,0,0.008680555555555556,10.668402777777779,0)" xlink:href="#ag"/><use transform="matrix(0.008680555555555556,0,0,0.008680555555555556,21.336805555555557,0)" xlink:href="#ay"/><use transform="matrix(0.008680555555555556,0,0,0.008680555555555556,32.005208333333336,0)" xlink:href="#ah"/><use transform="matrix(0.008680555555555556,0,0,0.008680555555555556,42.673611111111114,0)" xlink:href="#az"/><use transform="matrix(0.008680555555555556,0,0,0.008680555555555556,53.34201388888889,0)" xlink:href="#ag"/><use transform="matrix(0.008680555555555556,0,0,0.008680555555555556,64.01041666666667,0)" xlink:href="#av"/><use transform="matrix(0.008680555555555556,0,0,0.008680555555555556,74.67881944444446,0)" xlink:href="#ak"/><use transform="matrix(0.008680555555555556,0,0,0.008680555555555556,85.34722222222223,0)" xlink:href="#an"/><use transform="matrix(0.008680555555555556,0,0,0.008680555555555556,96.015625,0)" xlink:href="#af"/></g><g id="G"><use transform="matrix(0.008680555555555556,0,0,0.008680555555555556,0,0)" xlink:href="#ax"/><use transform="matrix(0.008680555555555556,0,0,0.008680555555555556,10.668402777777779,0)" xlink:href="#ag"/><use transform="matrix(0.008680555555555556,0,0,0.008680555555555556,21.336805555555557,0)" xlink:href="#ay"/><use transform="matrix(0.008680555555555556,0,0,0.008680555555555556,32.005208333333336,0)" xlink:href="#ah"/><use transform="matrix(0.008680555555555556,0,0,0.008680555555555556,42.673611111111114,0)" xlink:href="#az"/><use transform="matrix(0.008680555555555556,0,0,0.008680555555555556,53.34201388888889,0)" xlink:href="#ag"/><use transform="matrix(0.008680555555555556,0,0,0.008680555555555556,64.01041666666667,0)" xlink:href="#av"/><use transform="matrix(0.008680555555555556,0,0,0.008680555555555556,74.67881944444446,0)" xlink:href="#ak"/></g><g id="H"><use transform="matrix(0.008680555555555556,0,0,0.008680555555555556,0,0)" xlink:href="#aC"/><use transform="matrix(0.008680555555555556,0,0,0.008680555555555556,10.668402777777779,0)" xlink:href="#al"/><use transform="matrix(0.008680555555555556,0,0,0.008680555555555556,21.336805555555557,0)" xlink:href="#an"/><use transform="matrix(0.008680555555555556,0,0,0.008680555555555556,32.005208333333336,0)" xlink:href="#al"/><use transform="matrix(0.008680555555555556,0,0,0.008680555555555556,42.673611111111114,0)" xlink:href="#an"/></g><path d="M240-401c-28-1-68 8-86 16V0H71v-679l83-14v236c24-10 61-17 94-17 134-1 184 80 184 212V0h-82v-244c-2-104-15-154-110-157" id="aO"/><path d="M330 11c-128 0-169-64-169-190v-216H63v-69h98v-130l82-14v144h196v69H243v216c-2 76 19 120 95 116 46 0 70-8 100-22l12 70c-28 11-72 26-120 26" id="aP"/><path d="M215-331c8-67-42-90-99-66V0H41v-451c72-29 163-35 211 12 29-23 59-35 92-35 81 5 120 59 120 144V0h-75v-332c9-67-67-98-105-49 12 58 4 135 6 202h-75v-152" id="aQ"/><path d="M450-15c-29 14-68 25-112 26-118 3-150-73-150-190v-439H54v-70h216v509c0 67 9 117 75 116 35 1 72-11 93-22" id="aR"/><g id="I"><use transform="matrix(0.022222222222222223,0,0,0.022222222222222223,0,0)" xlink:href="#aO"/><use transform="matrix(0.022222222222222223,0,0,0.022222222222222223,11.11111111111111,0)" xlink:href="#aP"/><use transform="matrix(0.022222222222222223,0,0,0.022222222222222223,22.22222222222222,0)" xlink:href="#aQ"/><use transform="matrix(0.022222222222222223,0,0,0.022222222222222223,33.33333333333333,0)" xlink:href="#aR"/></g><path d="M125-232c-6 132 95 197 221 160v-294c-18-17-60-37-97-36-94 3-120 75-124 170zm114-243c42-1 84 13 107 28v-232l83-14v680C384 0 326 12 262 11 116 6 40-84 40-232c0-141 62-236 199-243" id="aS"/><path d="M249-475c140 0 211 99 211 243S389 11 249 11C111 11 40-89 40-232s70-243 209-243zm0 412c85-1 128-76 126-169 1-94-41-169-126-170-84 1-126 77-124 170-1 92 40 168 124 169" id="aT"/><path d="M302 11C143 7 49-71 49-231c0-184 132-262 323-239 22 3 47 8 72 16l-19 71c-38-14-69-18-116-19-111 2-173 58-175 171 1 114 66 166 179 168 51-1 84-4 126-19l12 69c-45 17-89 24-149 24" id="aU"/><path d="M261-63c30 0 61-4 85-9v-392h83v451C382-2 320 12 253 10 119 11 68-70 68-203v-261h82v243c2 103 19 155 111 158" id="aV"/><path d="M40-231c0-148 78-244 219-244 146 0 204 103 196 265H123c6 96 65 147 167 147 49 1 93-9 122-22l11 70c-30 14-91 28-142 26C126 7 40-77 40-231zm331-46c15-118-134-169-206-88-21 21-35 53-40 88h246" id="aW"/><path d="M240-401c-29 0-61 4-86 9V0H71v-451c53-13 113-23 173-23 130 2 189 66 188 202V0h-82v-257c1-89-24-145-110-144" id="aX"/><g id="J"><use transform="matrix(0.022222222222222223,0,0,0.022222222222222223,0,0)" xlink:href="#aS"/><use transform="matrix(0.022222222222222223,0,0,0.022222222222222223,11.11111111111111,0)" xlink:href="#aT"/><use transform="matrix(0.022222222222222223,0,0,0.022222222222222223,22.22222222222222,0)" xlink:href="#aU"/><use transform="matrix(0.022222222222222223,0,0,0.022222222222222223,33.33333333333333,0)" xlink:href="#aV"/><use transform="matrix(0.022222222222222223,0,0,0.022222222222222223,44.44444444444444,0)" xlink:href="#aQ"/><use transform="matrix(0.022222222222222223,0,0,0.022222222222222223,55.55555555555556,0)" xlink:href="#aW"/><use transform="matrix(0.022222222222222223,0,0,0.022222222222222223,66.66666666666667,0)" xlink:href="#aX"/><use transform="matrix(0.022222222222222223,0,0,0.022222222222222223,77.77777777777779,0)" xlink:href="#aP"/></g></defs></g></svg>